# Blender v2.82 (sub 7) OBJ File: ''
# www.blender.org
mtllib Cathode.mtl
o Cathode
v -0.769545 65.238739 2.114319
v -1.006076 65.238739 3.508616
v -0.390708 65.238739 2.215828
v -0.507982 65.238739 3.614489
v 0.000000 65.238739 2.250011
v 0.000000 65.238739 3.650012
v 0.390708 65.238739 2.215828
v -1.948557 65.238739 1.125011
v -3.025987 65.238739 2.041066
v -1.723600 65.238739 1.446283
v -2.712479 65.238739 2.442338
v -1.446272 65.238739 1.723611
v -2.346174 65.238739 2.796073
v -1.125000 65.238739 1.948568
v -1.934205 65.238739 3.095387
v -1.484589 65.238739 3.334452
v -2.215817 65.238739 -0.390697
v -3.630005 65.238739 -0.381518
v -2.250000 65.238739 0.000011
v -3.647777 65.238739 0.127395
v -2.215817 65.238739 0.390719
v -3.594548 65.238739 0.633827
v -2.114308 65.238739 0.769557
v -3.471356 65.238739 1.127923
v -3.280598 65.238739 1.600066
v 0.507982 65.238739 3.614489
v 1.006076 65.238739 3.508616
v 0.769546 65.238739 2.114319
v 1.484589 65.238739 3.334452
v 1.125000 65.238739 1.948568
v 1.934206 65.238739 3.095387
v 1.446272 65.238739 1.723611
v 2.346175 65.238739 2.796073
v 1.723600 65.238739 1.446283
v 2.712479 65.238739 2.442338
v 1.948557 65.238739 1.125011
v -1.446272 65.238739 -1.723589
v -2.535503 65.238739 -2.625579
v -1.723600 65.238739 -1.446261
v -2.876239 65.238739 -2.247153
v -1.948557 65.238739 -1.124989
v -3.160993 65.238739 -1.824989
v -2.114308 65.238739 -0.769534
v -3.384221 65.238739 -1.367303
v -3.541579 65.238739 -0.883004
v 0.000000 65.238739 -2.249989
v -0.254611 65.238739 -3.641098
v -0.390708 65.238739 -2.215806
v -0.758877 65.238739 -3.570228
v -0.769545 65.238739 -2.114297
v -1.248373 65.238739 -3.429867
v -1.125000 65.238739 -1.948546
v -1.713571 65.238739 -3.222748
v -2.145416 65.238739 -2.952901
v 1.446272 65.238739 -1.723589
v 2.145416 65.238739 -2.952901
v 1.125000 65.238739 -1.948546
v 1.713571 65.238739 -3.222748
v 0.769546 65.238739 -2.114297
v 1.248374 65.238739 -3.429867
v 0.390708 65.238739 -2.215806
v 0.758878 65.238739 -3.570228
v 0.254611 65.238739 -3.641098
v 2.250000 65.238739 0.000011
v 3.630005 65.238739 -0.381518
v 2.215817 65.238739 -0.390697
v 3.541579 65.238739 -0.883004
v 2.114308 65.238739 -0.769534
v 3.384221 65.238739 -1.367303
v 1.948557 65.238739 -1.124989
v 3.160993 65.238739 -1.824989
v 1.723600 65.238739 -1.446261
v 2.876239 65.238739 -2.247153
v 2.535503 65.238739 -2.625579
v 3.025988 65.238739 2.041066
v 3.280599 65.238739 1.600066
v 2.114308 65.238739 0.769557
v 3.471356 65.238739 1.127923
v 2.215817 65.238739 0.390719
v 3.594548 65.238739 0.633827
v 3.647777 65.238739 0.127395
v 1.723600 28.685883 -1.446267
v 2.872667 28.685883 -2.410448
v 1.948557 28.685883 -1.124995
v 3.247596 28.685883 -1.874995
v 2.114308 28.685883 -0.769540
v 3.523848 28.685883 -1.282571
v 2.215817 28.685883 -0.390703
v 3.693029 28.685883 -0.651176
v 2.250000 28.685883 0.000005
v 3.750000 28.685883 0.000005
v 2.215817 28.685883 0.390713
v 3.693029 28.685883 0.651186
v 2.114308 28.685883 0.769551
v 3.523848 28.685883 1.282581
v 1.948557 28.685883 1.125005
v 3.247596 28.685883 1.875005
v 1.723600 28.685883 1.446277
v 2.872667 28.685883 2.410459
v 1.446272 28.685883 1.723605
v 2.410454 28.685883 2.872672
v 1.125000 28.685883 1.948562
v 1.875000 28.685883 3.247601
v 0.769546 28.685883 2.114313
v 1.282576 28.685883 3.523853
v 0.390708 28.685883 2.215822
v 0.651181 28.685883 3.693034
v 0.000000 28.685883 2.250005
v 0.000000 28.685883 3.750005
v -0.390708 28.685883 2.215822
v -0.651181 28.685883 3.693034
v -0.769545 28.685883 2.114313
v -1.282576 28.685883 3.523853
v -1.125000 28.685883 1.948562
v -1.875000 28.685883 3.247601
v -1.446272 28.685883 1.723605
v -2.410453 28.685883 2.872672
v -1.723600 28.685883 1.446277
v -2.872667 28.685883 2.410459
v -1.948557 28.685883 1.125005
v -3.247595 28.685883 1.875005
v -2.114308 28.685883 0.769551
v -3.523847 28.685883 1.282581
v -2.215817 28.685883 0.390713
v -3.693029 28.685883 0.651186
v -2.250000 28.685883 0.000005
v -3.750000 28.685883 0.000005
v -2.215817 28.685883 -0.390703
v -3.693029 28.685883 -0.651176
v -2.114308 28.685883 -0.769540
v -3.523847 28.685883 -1.282571
v -1.948557 28.685883 -1.124995
v -3.247595 28.685883 -1.874995
v -1.723600 28.685883 -1.446267
v -2.872667 28.685883 -2.410448
v -1.446272 28.685883 -1.723595
v -2.410453 28.685883 -2.872662
v -1.125000 28.685883 -1.948552
v -1.875000 28.685883 -3.247590
v -0.769545 28.685883 -2.114303
v -1.282576 28.685883 -3.523842
v -0.390708 28.685883 -2.215812
v -0.651181 28.685883 -3.693024
v 0.000000 28.685883 -2.249995
v 0.000000 28.685883 -3.749995
v 0.390708 28.685883 -2.215812
v 0.651181 28.685883 -3.693024
v 0.769546 28.685883 -2.114303
v 1.282576 28.685883 -3.523842
v 1.125000 28.685883 -1.948552
v 1.875000 28.685883 -3.247590
v 1.446272 28.685883 -1.723595
v 2.410454 28.685883 -2.872662
v -0.651181 65.138733 -3.693018
v -0.261587 65.138733 -3.740854
v -0.779669 65.138733 -3.668042
v -1.282576 65.138733 -3.523836
v -2.204195 65.138733 -3.033802
v -1.875000 65.138733 -3.247584
v -1.760518 65.138733 -3.311042
v -2.604969 65.138733 -2.697513
v -2.410453 65.138733 -2.872656
v -3.476939 65.138733 -1.404764
v -3.247595 65.138733 -1.874989
v -2.955040 65.138733 -2.308719
v -2.872667 65.138733 -2.410442
v -3.523847 65.138733 -1.282565
v -3.638609 65.138733 -0.907196
v -3.693029 65.138733 -0.651170
v -3.729457 65.138733 -0.391971
v -3.750000 65.138733 0.000011
v -3.747715 65.138733 0.130884
v -3.693029 65.138733 0.651192
v -3.370477 65.138733 1.643903
v -3.523847 65.138733 1.282587
v -3.566462 65.138733 1.158825
v -3.108891 65.138733 2.096984
v -3.247595 65.138733 1.875011
v -1.987197 65.138733 3.180192
v -2.410453 65.138733 2.872678
v -2.786793 65.138733 2.509251
v -2.872667 65.138733 2.410465
v -1.875000 65.138733 3.247607
v -1.525262 65.138733 3.425807
v -1.282576 65.138733 3.523859
v -1.033640 65.138733 3.604743
v -0.651181 65.138733 3.693040
v -0.521899 65.138733 3.713517
v 0.000000 65.138733 3.750011
v 1.033640 65.138733 3.604743
v 0.651181 65.138733 3.693040
v 0.521899 65.138733 3.713517
v 1.525262 65.138733 3.425807
v 1.282576 65.138733 3.523859
v 2.786794 65.138733 2.509251
v 2.410454 65.138733 2.872678
v 1.987197 65.138733 3.180192
v 1.875000 65.138733 3.247607
v 2.872667 65.138733 2.410465
v 3.108891 65.138733 2.096984
v 3.247596 65.138733 1.875011
v 3.370479 65.138733 1.643903
v 3.523848 65.138733 1.282587
v 3.566463 65.138733 1.158825
v 3.693029 65.138733 0.651192
v 3.729457 65.138733 -0.391971
v 3.750000 65.138733 0.000011
v 3.747716 65.138733 0.130884
v 3.638610 65.138733 -0.907196
v 3.693029 65.138733 -0.651170
v 2.955041 65.138733 -2.308719
v 3.247596 65.138733 -1.874989
v 3.476939 65.138733 -1.404764
v 3.523848 65.138733 -1.282565
v 2.872667 65.138733 -2.410442
v 2.604969 65.138733 -2.697513
v 2.410454 65.138733 -2.872656
v 2.204195 65.138733 -3.033802
v 1.875000 65.138733 -3.247584
v 1.760519 65.138733 -3.311042
v 1.282576 65.138733 -3.523836
v 0.000000 65.138733 -3.749989
v 0.261587 65.138733 -3.740854
v 0.651181 65.138733 -3.693018
v 0.779669 65.138733 -3.668042
v 1.986392 65.156105 3.178903
v 3.565017 65.156105 1.158355
v 3.475532 65.156105 -1.404195
v 1.759805 65.156105 -3.309701
v -0.779353 65.156105 -3.666556
v -2.953843 65.156105 -2.307784
v -3.746197 65.156105 0.130831
v -2.785664 65.156105 2.508234
v -0.521688 65.156105 3.712012
v -1.010863 65.237221 3.525309
v -1.491652 65.237221 3.350316
v -1.015504 65.232704 3.541494
v -1.498500 65.232704 3.365697
v -1.019858 65.225342 3.556679
v -1.504925 65.225342 3.380129
v -1.023794 65.215340 3.570406
v -1.510733 65.215340 3.393174
v -1.027191 65.203018 3.582254
v -1.515747 65.203018 3.404434
v -1.029947 65.188736 3.591864
v -1.519813 65.188736 3.413567
v -1.031978 65.172943 3.598945
v -1.522809 65.172943 3.420298
v -1.033221 65.156105 3.603282
v -1.524644 65.156105 3.424419
v -3.040383 65.237221 2.050776
v -3.296206 65.237221 1.607678
v -3.054342 65.232704 2.060191
v -3.311339 65.232704 1.615059
v -3.067439 65.225342 2.069025
v -3.325538 65.225342 1.621985
v -3.079277 65.215340 2.077009
v -3.338371 65.215340 1.628243
v -3.089495 65.203018 2.083901
v -3.349450 65.203018 1.633647
v -3.097784 65.188736 2.089492
v -3.358436 65.188736 1.638030
v -3.103891 65.172943 2.093612
v -3.365057 65.172943 1.641259
v -3.107631 65.156105 2.096135
v -3.369112 65.156105 1.643237
v -3.647274 65.237221 -0.383333
v -3.558428 65.237221 -0.887205
v -3.664020 65.232704 -0.385093
v -3.574765 65.232704 -0.891278
v -3.679731 65.225342 -0.386744
v -3.590094 65.225342 -0.895100
v -3.693932 65.215340 -0.388236
v -3.603949 65.215340 -0.898554
v -3.706190 65.203018 -0.389525
v -3.615908 65.203018 -0.901536
v -3.716133 65.188736 -0.390570
v -3.625609 65.188736 -0.903954
v -3.723459 65.172943 -0.391340
v -3.632757 65.172943 -0.905737
v -3.727946 65.156105 -0.391812
v -3.637135 65.156105 -0.906828
v -2.547566 65.237221 -2.638070
v -2.155623 65.237221 -2.966949
v -2.559262 65.232704 -2.650182
v -2.165519 65.232704 -2.980571
v -2.570236 65.225342 -2.661546
v -2.174805 65.225342 -2.993352
v -2.580155 65.215340 -2.671818
v -2.183198 65.215340 -3.004904
v -2.588717 65.203018 -2.680684
v -2.190443 65.203018 -3.014875
v -2.595662 65.188736 -2.687876
v -2.196320 65.188736 -3.022964
v -2.600780 65.172943 -2.693175
v -2.200650 65.172943 -3.028923
v -2.603913 65.156105 -2.696420
v -2.203302 65.156105 -3.032574
v -0.255822 65.237221 -3.658420
v 0.255823 65.237221 -3.658420
v -0.256997 65.232704 -3.675217
v 0.256997 65.232704 -3.675217
v -0.258099 65.225342 -3.690976
v 0.258099 65.225342 -3.690976
v -0.259095 65.215340 -3.705220
v 0.259095 65.215340 -3.705220
v -0.259955 65.203018 -3.717516
v 0.259955 65.203018 -3.717516
v -0.260652 65.188736 -3.727489
v 0.260652 65.188736 -3.727489
v -0.261166 65.172943 -3.734838
v 0.261166 65.172943 -3.734838
v -0.261481 65.156105 -3.739338
v 0.261481 65.156105 -3.739338
v 2.155623 65.237221 -2.966949
v 2.547565 65.237221 -2.638070
v 2.165520 65.232704 -2.980571
v 2.559262 65.232704 -2.650182
v 2.174806 65.225342 -2.993352
v 2.570236 65.225342 -2.661546
v 2.183198 65.215340 -3.004904
v 2.580155 65.215340 -2.671818
v 2.190444 65.203018 -3.014875
v 2.588717 65.203018 -2.680684
v 2.196320 65.188736 -3.022964
v 2.595662 65.188736 -2.687876
v 2.200650 65.172943 -3.028923
v 2.600780 65.172943 -2.693175
v 2.203302 65.156105 -3.032574
v 2.603914 65.156105 -2.696420
v 3.558429 65.237221 -0.887205
v 3.647275 65.237221 -0.383333
v 3.574766 65.232704 -0.891278
v 3.664020 65.232704 -0.385093
v 3.590095 65.225342 -0.895100
v 3.679731 65.225342 -0.386744
v 3.603950 65.215340 -0.898554
v 3.693932 65.215340 -0.388236
v 3.615909 65.203018 -0.901536
v 3.706190 65.203018 -0.389525
v 3.625609 65.188736 -0.903954
v 3.716133 65.188736 -0.390570
v 3.632758 65.172943 -0.905737
v 3.723460 65.172943 -0.391340
v 3.637136 65.156105 -0.906828
v 3.727946 65.156105 -0.391812
v 3.296206 65.237221 1.607678
v 3.040383 65.237221 2.050776
v 3.311339 65.232704 1.615059
v 3.054342 65.232704 2.060191
v 3.325538 65.225342 1.621985
v 3.067439 65.225342 2.069025
v 3.338372 65.215340 1.628243
v 3.079277 65.215340 2.077009
v 3.349450 65.203018 1.633647
v 3.089496 65.203018 2.083901
v 3.358436 65.188736 1.638030
v 3.097784 65.188736 2.089492
v 3.365058 65.172943 1.641259
v 3.103891 65.172943 2.093612
v 3.369113 65.156105 1.643237
v 3.107632 65.156105 2.096135
v 1.491652 65.237221 3.350316
v 1.010863 65.237221 3.525309
v 1.498500 65.232704 3.365697
v 1.015504 65.232704 3.541494
v 1.504926 65.225342 3.380129
v 1.019858 65.225342 3.556679
v 1.510733 65.215340 3.393174
v 1.023794 65.215340 3.570406
v 1.515747 65.203018 3.404434
v 1.027192 65.203018 3.582254
v 1.519814 65.188736 3.413567
v 1.029947 65.188736 3.591864
v 1.522810 65.172943 3.420298
v 1.031978 65.172943 3.598945
v 1.524644 65.156105 3.424419
v 1.033222 65.156105 3.603282
v 0.000000 65.237221 3.667376
v -0.510398 65.237221 3.631686
v 0.000000 65.232704 3.684213
v -0.512742 65.232704 3.648359
v 0.000000 65.225342 3.700011
v -0.514940 65.225342 3.664003
v 0.000000 65.215340 3.714289
v -0.516928 65.215340 3.678143
v 0.000000 65.203018 3.726615
v -0.518643 65.203018 3.690348
v 0.000000 65.188736 3.736614
v -0.520034 65.188736 3.700249
v 0.000000 65.172943 3.743981
v -0.521060 65.172943 3.707545
v 0.000000 65.156105 3.748492
v -1.986392 65.156105 3.178903
v -1.984001 65.172943 3.175078
v -1.980098 65.188736 3.168829
v -1.974799 65.203018 3.160351
v -1.968268 65.215340 3.149898
v -1.960701 65.225342 3.137789
v -1.952330 65.232704 3.124392
v -1.943407 65.237221 3.110114
v -2.357337 65.237221 2.809375
v -2.368159 65.232704 2.822274
v -2.378314 65.225342 2.834375
v -2.387492 65.215340 2.845314
v -2.395415 65.203018 2.854756
v -2.401842 65.188736 2.862415
v -2.406577 65.172943 2.868058
v -2.409477 65.156105 2.871514
v -2.725383 65.237221 2.453957
v -2.737895 65.232704 2.465223
v -2.749636 65.225342 2.475795
v -2.760247 65.215340 2.485349
v -2.769407 65.203018 2.493596
v -2.776837 65.188736 2.500287
v -2.782311 65.172943 2.505216
v -3.565017 65.156105 1.158355
v -3.560726 65.172943 1.156961
v -3.553720 65.188736 1.154685
v -3.544211 65.203018 1.151595
v -3.532489 65.215340 1.147786
v -3.518909 65.225342 1.143374
v -3.503884 65.232704 1.138492
v -3.487871 65.237221 1.133289
v -3.611649 65.237221 0.636842
v -3.628231 65.232704 0.639766
v -3.643789 65.225342 0.642509
v -3.657851 65.215340 0.644989
v -3.669989 65.203018 0.647129
v -3.679835 65.188736 0.648866
v -3.687090 65.172943 0.650145
v -3.691533 65.156105 0.650928
v -3.665131 65.237221 0.128000
v -3.681958 65.232704 0.128588
v -3.697746 65.225342 0.129139
v -3.712016 65.215340 0.129638
v -3.724334 65.203018 0.130068
v -3.734326 65.188736 0.130417
v -3.741688 65.172943 0.130673
v -3.475531 65.156105 -1.404195
v -3.471348 65.172943 -1.402504
v -3.464517 65.188736 -1.399745
v -3.455247 65.203018 -1.396000
v -3.443819 65.215340 -1.391382
v -3.430580 65.225342 -1.386033
v -3.415932 65.232704 -1.380115
v -3.400321 65.237221 -1.373808
v -3.176031 65.237221 -1.833671
v -3.190612 65.232704 -1.842090
v -3.204294 65.225342 -1.849989
v -3.216660 65.215340 -1.857128
v -3.227334 65.203018 -1.863291
v -3.235992 65.188736 -1.868290
v -3.242372 65.172943 -1.871973
v -3.246279 65.156105 -1.874229
v -2.889923 65.237221 -2.257844
v -2.903191 65.232704 -2.268210
v -2.915640 65.225342 -2.277936
v -2.926892 65.215340 -2.286727
v -2.936604 65.203018 -2.294316
v -2.944483 65.188736 -2.300471
v -2.950288 65.172943 -2.305006
v -1.759805 65.156105 -3.309701
v -1.757687 65.172943 -3.305718
v -1.754229 65.188736 -3.299213
v -1.749535 65.203018 -3.290385
v -1.743748 65.215340 -3.279502
v -1.737045 65.225342 -3.266895
v -1.729628 65.232704 -3.252946
v -1.721724 65.237221 -3.238080
v -1.254313 65.237221 -3.446185
v -1.260071 65.232704 -3.462006
v -1.265474 65.225342 -3.476851
v -1.270358 65.215340 -3.490269
v -1.274574 65.203018 -3.501852
v -1.277993 65.188736 -3.511247
v -1.280513 65.172943 -3.518169
v -1.282056 65.156105 -3.522408
v -0.762488 65.237221 -3.587213
v -0.765988 65.232704 -3.603682
v -0.769273 65.225342 -3.619135
v -0.772242 65.215340 -3.633102
v -0.774805 65.203018 -3.645158
v -0.776883 65.188736 -3.654938
v -0.778415 65.172943 -3.662143
v 0.779353 65.156105 -3.666556
v 0.778415 65.172943 -3.662143
v 0.776884 65.188736 -3.654938
v 0.774805 65.203018 -3.645158
v 0.772242 65.215340 -3.633102
v 0.769273 65.225342 -3.619135
v 0.765989 65.232704 -3.603682
v 0.762488 65.237221 -3.587213
v 1.254313 65.237221 -3.446185
v 1.260072 65.232704 -3.462006
v 1.265475 65.225342 -3.476851
v 1.270359 65.215340 -3.490269
v 1.274574 65.203018 -3.501852
v 1.277994 65.188736 -3.511247
v 1.280513 65.172943 -3.518169
v 1.282056 65.156105 -3.522408
v 1.721724 65.237221 -3.238080
v 1.729628 65.232704 -3.252946
v 1.737045 65.225342 -3.266895
v 1.743749 65.215340 -3.279502
v 1.749535 65.203018 -3.290385
v 1.754229 65.188736 -3.299213
v 1.757688 65.172943 -3.305718
v 2.953843 65.156105 -2.307784
v 2.950288 65.172943 -2.305006
v 2.944483 65.188736 -2.300471
v 2.936604 65.203018 -2.294316
v 2.926892 65.215340 -2.286727
v 2.915640 65.225342 -2.277936
v 2.903191 65.232704 -2.268210
v 2.889923 65.237221 -2.257844
v 3.176032 65.237221 -1.833671
v 3.190613 65.232704 -1.842090
v 3.204294 65.225342 -1.849989
v 3.216660 65.215340 -1.857128
v 3.227334 65.203018 -1.863291
v 3.235993 65.188736 -1.868290
v 3.242373 65.172943 -1.871973
v 3.246280 65.156105 -1.874229
v 3.400321 65.237221 -1.373808
v 3.415933 65.232704 -1.380115
v 3.430580 65.225342 -1.386033
v 3.443820 65.215340 -1.391382
v 3.455248 65.203018 -1.396000
v 3.464518 65.188736 -1.399745
v 3.471348 65.172943 -1.402504
v 3.746198 65.156105 0.130831
v 3.741689 65.172943 0.130673
v 3.734326 65.188736 0.130417
v 3.724335 65.203018 0.130068
v 3.712016 65.215340 0.129638
v 3.697746 65.225342 0.129139
v 3.681958 65.232704 0.128588
v 3.665131 65.237221 0.128000
v 3.611650 65.237221 0.636842
v 3.628231 65.232704 0.639766
v 3.643789 65.225342 0.642509
v 3.657851 65.215340 0.644989
v 3.669990 65.203018 0.647129
v 3.679835 65.188736 0.648866
v 3.687091 65.172943 0.650145
v 3.691533 65.156105 0.650928
v 3.487872 65.237221 1.133289
v 3.503884 65.232704 1.138492
v 3.518909 65.225342 1.143374
v 3.532489 65.215340 1.147786
v 3.544211 65.203018 1.151595
v 3.553720 65.188736 1.154685
v 3.560726 65.172943 1.156961
v 2.785665 65.156105 2.508234
v 2.782311 65.172943 2.505216
v 2.776837 65.188736 2.500287
v 2.769407 65.203018 2.493596
v 2.760247 65.215340 2.485349
v 2.749636 65.225342 2.475795
v 2.737896 65.232704 2.465223
v 2.725383 65.237221 2.453957
v 2.357337 65.237221 2.809375
v 2.368160 65.232704 2.822274
v 2.378314 65.225342 2.834375
v 2.387493 65.215340 2.845314
v 2.395416 65.203018 2.854756
v 2.401842 65.188736 2.862415
v 2.406578 65.172943 2.868058
v 2.409477 65.156105 2.871514
v 1.943408 65.237221 3.110114
v 1.952330 65.232704 3.124392
v 1.960702 65.225342 3.137789
v 1.968268 65.215340 3.149898
v 1.974800 65.203018 3.160351
v 1.980098 65.188736 3.168829
v 1.984002 65.172943 3.175078
v 0.521688 65.156105 3.712012
v 0.521060 65.172943 3.707545
v 0.520035 65.188736 3.700249
v 0.518643 65.203018 3.690348
v 0.516928 65.215340 3.678143
v 0.514941 65.225342 3.664003
v 0.512742 65.232704 3.648359
v 0.510398 65.237221 3.631686
v -5.000000 43.485886 5.000007
v -5.000000 4.761262 5.000001
v 5.000000 43.485886 5.000007
v 5.000000 4.761262 5.000001
v -5.000000 43.485886 -4.999993
v -5.000000 4.761264 -4.999999
v 5.000000 43.485886 -4.999993
v 5.000000 4.761264 -4.999999
v -1.948557 43.685883 -1.124993
v -1.723600 43.685883 -1.446265
v -4.800000 43.685883 -4.799993
v 4.800000 43.685883 4.800007
v 0.000000 43.685883 2.250007
v -4.800000 43.685883 4.800007
v -0.390708 43.685883 2.215824
v -0.769545 43.685883 2.114315
v -1.125000 43.685883 1.948564
v -1.446272 43.685883 1.723607
v -1.723600 43.685883 1.446279
v -1.948557 43.685883 1.125007
v -2.114308 43.685883 0.769553
v 1.125000 43.685883 -1.948550
v 1.446272 43.685883 -1.723593
v 4.800000 43.685883 -4.799993
v -2.114308 43.685883 -0.769538
v -1.446272 43.685883 -1.723593
v -1.125000 43.685883 -1.948550
v -0.769545 43.685883 -2.114301
v 0.769546 43.685883 -2.114301
v -2.215817 43.685883 0.390715
v -2.250000 43.685883 0.000007
v -2.215817 43.685883 -0.390701
v -0.390708 43.685883 -2.215810
v 0.000000 43.685883 -2.249993
v 0.390708 43.685883 -2.215810
v 1.723600 43.685883 -1.446265
v 1.948557 43.685883 -1.124993
v 2.114308 43.685883 -0.769538
v 2.114308 43.685883 0.769553
v 1.948557 43.685883 1.125007
v 2.215817 43.685883 -0.390701
v 2.250000 43.685883 0.000007
v 2.215817 43.685883 0.390715
v 1.723600 43.685883 1.446279
v 1.446272 43.685883 1.723607
v 1.125000 43.685883 1.948564
v 0.769546 43.685883 2.114315
v 0.390708 43.685883 2.215824
v 0.000000 28.685883 0.000005
v 4.953209 43.614441 4.953216
v 4.963831 43.600601 4.963838
v 4.963831 43.600601 -4.963823
v 4.973206 43.585884 4.973213
v 4.973206 43.585884 -4.973198
v 4.981261 43.570404 4.981268
v 4.981261 43.570404 -4.981254
v 4.987939 43.554291 4.987946
v 4.987939 43.554291 -4.987931
v 4.993186 43.537651 4.993193
v 4.993186 43.537651 -4.993178
v 4.996963 43.520615 4.996970
v 4.996963 43.520615 -4.996955
v 4.999240 43.503319 4.999247
v 4.999240 43.503319 -4.999232
v 4.953209 43.614441 -4.953202
v 4.928557 43.639091 -4.928550
v 4.928557 43.639091 4.928564
v 4.900001 43.659088 -4.899993
v 4.900001 43.659088 4.900008
v 4.868404 43.673820 -4.868397
v 4.868404 43.673820 4.868411
v 4.834730 43.682846 -4.834723
v 4.834730 43.682846 4.834737
v -4.953209 43.614441 4.953216
v -4.963830 43.600601 4.963838
v -4.973205 43.585884 4.973213
v -4.981261 43.570404 4.981268
v -4.987938 43.554291 4.987946
v -4.993185 43.537651 4.993193
v -4.996962 43.520615 4.996970
v -4.999239 43.503319 4.999247
v -4.928557 43.639091 4.928564
v -4.900000 43.659088 4.900008
v -4.868404 43.673820 4.868411
v -4.834730 43.682846 4.834737
v -4.834730 43.682846 -4.834723
v -4.868404 43.673820 -4.868397
v -4.900000 43.659088 -4.899993
v -4.928557 43.639091 -4.928550
v -4.953209 43.614441 -4.953202
v -4.963830 43.600601 -4.963823
v -4.973205 43.585884 -4.973198
v -4.993185 43.537651 -4.993178
v -4.987938 43.554291 -4.987931
v -4.981261 43.570404 -4.981254
v -4.999239 43.503319 -4.999232
v -4.996962 43.520615 -4.996955
vn -0.0000 1.0000 -0.0000
vn 0.0000 1.0000 0.0001
vn 0.0000 -1.0000 0.0000
vn 0.0000 -1.0000 0.0001
vn -0.0000 -1.0000 -0.0001
vn -0.0001 -1.0000 0.0001
vn 0.0001 -1.0000 -0.0000
vn -0.0001 -1.0000 0.0000
vn -0.0001 -1.0000 -0.0001
vn 0.0001 -1.0000 0.0001
vn 0.0001 -1.0000 -0.0001
vn -0.1219 -0.0000 -0.9925
vn -0.1908 -0.0000 -0.9816
vn -0.2756 -0.0000 -0.9613
vn -0.5736 -0.0004 -0.8192
vn -0.5446 0.0000 -0.8387
vn -0.4848 -0.0013 -0.8746
vn -0.7071 -0.0004 -0.7071
vn -0.6691 0.0000 -0.7432
vn -0.8988 -0.0000 -0.4384
vn -0.8290 -0.0000 -0.5592
vn -0.7771 0.0000 -0.6293
vn -0.9336 -0.0013 -0.3584
vn -0.9563 0.0000 -0.2924
vn -0.9781 0.0000 -0.2079
vn -0.9903 -0.0000 -0.1392
vn -0.9986 -0.0000 -0.0523
vn -0.9998 -0.0000 0.0175
vn -0.9945 -0.0000 0.1045
vn -0.9063 -0.0004 0.4226
vn -0.9205 0.0000 0.3907
vn -0.9455 -0.0013 0.3256
vn -0.8192 -0.0004 0.5736
vn -0.8481 -0.0000 0.5299
vn -0.5878 0.0000 0.8090
vn -0.6947 0.0000 0.7193
vn -0.7547 -0.0000 0.6561
vn -0.5150 -0.0013 0.8572
vn -0.4540 0.0000 0.8910
vn -0.3746 -0.0000 0.9272
vn -0.3090 0.0000 0.9511
vn -0.2250 -0.0000 0.9744
vn -0.1564 -0.0000 0.9877
vn -0.0698 -0.0000 0.9976
vn 0.2588 -0.0004 0.9659
vn 0.2249 0.0000 0.9744
vn 0.1564 -0.0013 0.9877
vn 0.4226 -0.0004 0.9063
vn 0.3746 -0.0000 0.9272
vn 0.6947 0.0000 0.7193
vn 0.5878 -0.0000 0.8090
vn 0.5150 -0.0000 0.8572
vn 0.7547 -0.0013 0.6561
vn 0.7986 -0.0000 0.6018
vn 0.8480 0.0000 0.5299
vn 0.8829 0.0000 0.4695
vn 0.9205 0.0000 0.3907
vn 0.9455 -0.0000 0.3256
vn 0.9703 -0.0000 0.2419
vn 0.9962 -0.0004 -0.0872
vn 0.9986 0.0000 -0.0523
vn 0.9998 -0.0013 0.0175
vn 0.9659 -0.0004 -0.2588
vn 0.9781 0.0000 -0.2079
vn 0.8290 -0.0000 -0.5592
vn 0.8988 -0.0000 -0.4384
vn 0.9336 0.0000 -0.3584
vn 0.7771 -0.0013 -0.6293
vn 0.7314 0.0000 -0.6820
vn 0.6691 -0.0000 -0.7431
vn 0.6157 -0.0000 -0.7880
vn 0.5446 0.0000 -0.8387
vn 0.4848 0.0000 -0.8746
vn 0.4067 -0.0000 -0.9135
vn -0.0349 0.0000 -0.9994
vn 0.0349 -0.0000 -0.9994
vn 0.1219 -0.0000 -0.9925
vn 0.1908 -0.0013 -0.9816
vn -0.0002 -1.0000 -0.0000
vn 0.0001 -1.0000 0.0002
vn -0.0001 -1.0000 0.0002
vn -0.0002 -1.0000 0.0003
vn -0.0002 -1.0000 0.0002
vn -0.0002 -1.0000 0.0001
vn -0.0005 -1.0000 0.0002
vn -0.0004 -1.0000 0.0001
vn -0.0004 -1.0000 0.0000
vn -0.0005 -1.0000 -0.0000
vn -0.0005 -1.0000 -0.0001
vn -0.0002 -1.0000 -0.0001
vn -0.0003 -1.0000 -0.0002
vn -0.0002 -1.0000 -0.0002
vn -0.0001 -1.0000 -0.0004
vn -0.0000 -1.0000 -0.0004
vn -0.0000 -1.0000 0.0002
vn -0.0003 -1.0000 0.0001
vn 0.5131 0.0871 0.8539
vn 0.9419 0.0871 0.3243
vn 0.9300 0.0871 -0.3570
vn 0.4830 0.0871 -0.8713
vn -0.1901 0.0871 -0.9779
vn -0.7742 0.0871 -0.6269
vn -0.9960 0.0871 0.0174
vn -0.7518 0.0871 0.6536
vn -0.1558 0.0871 0.9839
vn -0.0298 0.9962 0.0818
vn -0.0888 0.9657 0.2440
vn -0.1448 0.9059 0.3979
vn -0.1965 0.8185 0.5398
vn -0.1965 0.8185 0.5399
vn -0.2421 0.7063 0.6652
vn -0.2804 0.5725 0.7704
vn -0.3101 0.4218 0.8520
vn -0.3101 0.4219 0.8520
vn -0.3304 0.2583 0.9078
vn -0.0754 0.9962 0.0435
vn -0.2249 0.9657 0.1298
vn -0.3667 0.9059 0.2117
vn -0.4975 0.8185 0.2872
vn -0.6131 0.7063 0.3539
vn -0.7100 0.5725 0.4099
vn -0.7100 0.5726 0.4099
vn -0.7852 0.4218 0.4533
vn -0.8366 0.2583 0.4830
vn -0.0857 0.9962 -0.0151
vn -0.2557 0.9657 -0.0451
vn -0.4170 0.9059 -0.0735
vn -0.5658 0.8185 -0.0998
vn -0.6972 0.7063 -0.1229
vn -0.6971 0.7063 -0.1229
vn -0.8074 0.5726 -0.1424
vn -0.8074 0.5725 -0.1424
vn -0.8929 0.4218 -0.1574
vn -0.9514 0.2583 -0.1678
vn -0.0560 0.9962 -0.0667
vn -0.1669 0.9657 -0.1989
vn -0.2722 0.9059 -0.3244
vn -0.3693 0.8185 -0.4401
vn -0.4550 0.7063 -0.5423
vn -0.5270 0.5725 -0.6281
vn -0.5828 0.4218 -0.6946
vn -0.6210 0.2583 -0.7401
vn -0.0000 0.9962 -0.0870
vn 0.0000 0.9657 -0.2597
vn -0.0000 0.9059 -0.4235
vn 0.0000 0.8185 -0.5745
vn 0.0000 0.7063 -0.7079
vn -0.0000 0.5725 -0.8199
vn 0.0000 0.4218 -0.9067
vn 0.0000 0.2583 -0.9661
vn 0.0560 0.9962 -0.0667
vn 0.1669 0.9657 -0.1989
vn 0.2722 0.9059 -0.3244
vn 0.3693 0.8185 -0.4401
vn 0.4550 0.7063 -0.5423
vn 0.5270 0.5725 -0.6281
vn 0.5828 0.4218 -0.6946
vn 0.6210 0.2583 -0.7401
vn 0.0857 0.9962 -0.0151
vn 0.2557 0.9657 -0.0451
vn 0.4171 0.9059 -0.0735
vn 0.4170 0.9059 -0.0735
vn 0.5658 0.8185 -0.0998
vn 0.6972 0.7063 -0.1229
vn 0.6971 0.7063 -0.1229
vn 0.8074 0.5726 -0.1424
vn 0.8074 0.5725 -0.1424
vn 0.8929 0.4218 -0.1574
vn 0.9514 0.2583 -0.1678
vn 0.0754 0.9962 0.0435
vn 0.2249 0.9657 0.1298
vn 0.3667 0.9059 0.2117
vn 0.4975 0.8185 0.2872
vn 0.6131 0.7063 0.3540
vn 0.7100 0.5726 0.4099
vn 0.7100 0.5725 0.4099
vn 0.7852 0.4218 0.4533
vn 0.8366 0.2583 0.4830
vn 0.0298 0.9962 0.0818
vn 0.0888 0.9657 0.2440
vn 0.1448 0.9059 0.3979
vn 0.1965 0.8185 0.5399
vn 0.1965 0.8185 0.5398
vn 0.2421 0.7063 0.6652
vn 0.2804 0.5725 0.7704
vn 0.3101 0.4219 0.8520
vn 0.3101 0.4218 0.8520
vn 0.3304 0.2583 0.9078
vn -0.0061 0.9962 0.0868
vn -0.0181 0.9657 0.2590
vn -0.0295 0.9059 0.4224
vn -0.0401 0.8185 0.5731
vn -0.0494 0.7063 0.7062
vn -0.0572 0.5726 0.8178
vn -0.0572 0.5725 0.8179
vn -0.0632 0.4218 0.9045
vn -0.0674 0.2583 0.9637
vn -0.5131 0.0871 0.8539
vn -0.4535 0.2583 0.8530
vn -0.4257 0.4218 0.8005
vn -0.3849 0.5725 0.7239
vn -0.3323 0.7063 0.6250
vn -0.2697 0.8185 0.5073
vn -0.1988 0.9059 0.3739
vn -0.1219 0.9657 0.2293
vn -0.0512 0.9962 0.0704
vn -0.1526 0.9657 0.2101
vn -0.2489 0.9059 0.3426
vn -0.3377 0.8185 0.4648
vn -0.4161 0.7063 0.5727
vn -0.4819 0.5725 0.6633
vn -0.5329 0.4218 0.7335
vn -0.5678 0.2583 0.7816
vn -0.0605 0.9962 0.0626
vn -0.1804 0.9657 0.1868
vn -0.2942 0.9059 0.3046
vn -0.3991 0.8185 0.4133
vn -0.4917 0.7063 0.5092
vn -0.5695 0.5725 0.5898
vn -0.6298 0.4218 0.6522
vn -0.9419 0.0871 0.3243
vn -0.8957 0.2583 0.3619
vn -0.8407 0.4218 0.3396
vn -0.7602 0.5725 0.3071
vn -0.6563 0.7063 0.2652
vn -0.5327 0.8185 0.2152
vn -0.3926 0.9059 0.1586
vn -0.2408 0.9657 0.0973
vn -0.0845 0.9962 0.0211
vn -0.2520 0.9657 0.0628
vn -0.4109 0.9059 0.1024
vn -0.5574 0.8185 0.1390
vn -0.6869 0.7063 0.1713
vn -0.7956 0.5725 0.1983
vn -0.8797 0.4218 0.2193
vn -0.9374 0.2583 0.2337
vn -0.0866 0.9962 0.0091
vn -0.2583 0.9657 0.0271
vn -0.4212 0.9059 0.0443
vn -0.5713 0.8185 0.0601
vn -0.7040 0.7063 0.0740
vn -0.8154 0.5725 0.0857
vn -0.9017 0.4218 0.0948
vn -0.9300 0.0871 -0.3570
vn -0.9188 0.2583 -0.2985
vn -0.8623 0.4218 -0.2802
vn -0.7797 0.5725 -0.2534
vn -0.6732 0.7063 -0.2188
vn -0.5464 0.8185 -0.1775
vn -0.4027 0.9059 -0.1309
vn -0.2470 0.9657 -0.0802
vn -0.0782 0.9962 -0.0382
vn -0.2334 0.9657 -0.1138
vn -0.3806 0.9059 -0.1856
vn -0.5164 0.8185 -0.2518
vn -0.6362 0.7063 -0.3103
vn -0.7369 0.5725 -0.3594
vn -0.8149 0.4218 -0.3975
vn -0.8683 0.2583 -0.4235
vn -0.0722 0.9962 -0.0487
vn -0.2153 0.9657 -0.1452
vn -0.3511 0.9059 -0.2368
vn -0.4763 0.8185 -0.3213
vn -0.5869 0.7063 -0.3958
vn -0.6797 0.5726 -0.4585
vn -0.7517 0.4218 -0.5070
vn -0.4830 0.0871 -0.8713
vn -0.5119 0.2583 -0.8193
vn -0.4805 0.4218 -0.7689
vn -0.4345 0.5725 -0.6953
vn -0.3751 0.7063 -0.6003
vn -0.3044 0.8185 -0.4872
vn -0.2244 0.9059 -0.3591
vn -0.1376 0.9657 -0.2202
vn -0.0354 0.9962 -0.0795
vn -0.1056 0.9657 -0.2372
vn -0.1722 0.9059 -0.3869
vn -0.2337 0.8185 -0.5248
vn -0.2879 0.7063 -0.6467
vn -0.3335 0.5725 -0.7490
vn -0.3688 0.4218 -0.8283
vn -0.3929 0.2583 -0.8825
vn -0.0240 0.9962 -0.0837
vn -0.0716 0.9657 -0.2496
vn -0.1167 0.9059 -0.4071
vn -0.1584 0.8185 -0.5522
vn -0.1951 0.7063 -0.6805
vn -0.2260 0.5725 -0.7881
vn -0.2499 0.4218 -0.8716
vn 0.1901 0.0871 -0.9779
vn 0.1345 0.2583 -0.9567
vn 0.1262 0.4218 -0.8979
vn 0.1141 0.5725 -0.8119
vn 0.0985 0.7063 -0.7010
vn 0.0800 0.8185 -0.5689
vn 0.0589 0.9059 -0.4194
vn 0.0361 0.9657 -0.2572
vn 0.0240 0.9962 -0.0837
vn 0.0716 0.9657 -0.2496
vn 0.1167 0.9059 -0.4071
vn 0.1584 0.8185 -0.5522
vn 0.1951 0.7063 -0.6805
vn 0.2260 0.5725 -0.7881
vn 0.2499 0.4218 -0.8716
vn 0.2663 0.2583 -0.9286
vn 0.0354 0.9962 -0.0795
vn 0.1056 0.9657 -0.2372
vn 0.1722 0.9059 -0.3869
vn 0.2337 0.8185 -0.5248
vn 0.2879 0.7063 -0.6467
vn 0.3335 0.5726 -0.7490
vn 0.3688 0.4218 -0.8283
vn 0.7742 0.0871 -0.6269
vn 0.7179 0.2583 -0.6464
vn 0.6738 0.4218 -0.6067
vn 0.6093 0.5726 -0.5486
vn 0.5261 0.7063 -0.4737
vn 0.4269 0.8185 -0.3844
vn 0.3147 0.9059 -0.2834
vn 0.1930 0.9657 -0.1738
vn 0.0722 0.9962 -0.0487
vn 0.2153 0.9657 -0.1452
vn 0.3511 0.9059 -0.2368
vn 0.4763 0.8185 -0.3213
vn 0.5869 0.7063 -0.3958
vn 0.6797 0.5726 -0.4585
vn 0.7517 0.4218 -0.5070
vn 0.8009 0.2583 -0.5402
vn 0.0782 0.9962 -0.0382
vn 0.2334 0.9657 -0.1138
vn 0.3806 0.9059 -0.1856
vn 0.5163 0.8185 -0.2518
vn 0.6363 0.7063 -0.3103
vn 0.7369 0.5725 -0.3594
vn 0.8149 0.4218 -0.3975
vn 0.9960 0.0871 0.0174
vn 0.9655 0.2583 -0.0337
vn 0.9061 0.4218 -0.0316
vn 0.8194 0.5725 -0.0286
vn 0.7075 0.7063 -0.0247
vn 0.5741 0.8185 -0.0200
vn 0.4232 0.9059 -0.0148
vn 0.2595 0.9657 -0.0091
vn 0.0866 0.9962 0.0091
vn 0.2583 0.9657 0.0271
vn 0.4212 0.9059 0.0443
vn 0.5713 0.8185 0.0601
vn 0.7040 0.7063 0.0740
vn 0.8154 0.5725 0.0857
vn 0.9017 0.4219 0.0948
vn 0.9608 0.2583 0.1010
vn 0.0845 0.9962 0.0211
vn 0.2520 0.9657 0.0628
vn 0.4109 0.9059 0.1024
vn 0.5574 0.8185 0.1390
vn 0.6869 0.7063 0.1713
vn 0.7955 0.5725 0.1983
vn 0.8798 0.4218 0.2193
vn 0.7518 0.0871 0.6536
vn 0.7613 0.2583 0.5948
vn 0.7145 0.4218 0.5582
vn 0.6460 0.5726 0.5048
vn 0.5578 0.7063 0.4358
vn 0.4527 0.8185 0.3537
vn 0.3337 0.9059 0.2607
vn 0.2046 0.9657 0.1599
vn 0.0605 0.9962 0.0626
vn 0.1804 0.9657 0.1868
vn 0.2942 0.9059 0.3046
vn 0.3991 0.8185 0.4133
vn 0.4917 0.7063 0.5092
vn 0.5695 0.5725 0.5898
vn 0.6298 0.4218 0.6522
vn 0.6711 0.2583 0.6949
vn 0.0512 0.9962 0.0704
vn 0.1526 0.9657 0.2101
vn 0.2489 0.9059 0.3426
vn 0.3377 0.8185 0.4648
vn 0.4161 0.7063 0.5727
vn 0.4819 0.5725 0.6633
vn 0.5329 0.4218 0.7335
vn 0.1558 0.0871 0.9839
vn 0.2009 0.2583 0.9450
vn 0.1885 0.4218 0.8869
vn 0.1705 0.5725 0.8020
vn 0.1472 0.7063 0.6924
vn 0.1194 0.8185 0.5619
vn 0.0880 0.9059 0.4142
vn 0.0540 0.9657 0.2540
vn 0.0000 -0.0001 1.0000
vn -0.0000 0.0000 1.0000
vn -1.0000 -0.0000 0.0000
vn -0.0000 -0.0000 -1.0000
vn 0.0001 1.0000 0.0000
vn -0.0000 1.0000 -0.0001
vn -0.0001 1.0000 -0.0000
vn 0.0002 -1.0000 -0.0001
vn -0.0001 -1.0000 0.0004
vn -0.0003 -1.0000 0.0005
vn -0.0005 -1.0000 0.0001
vn -0.0005 -1.0000 -0.0002
vn -0.0004 -1.0000 -0.0001
vn -0.0006 -1.0000 -0.0004
vn -0.0004 -1.0000 -0.0003
vn -0.0003 -1.0000 -0.0004
vn -0.0002 -1.0000 -0.0003
vn 0.0000 -1.0000 -0.0002
vn -0.0003 -1.0000 0.0000
vn 0.7933 0.6088 -0.0001
vn 0.7933 0.6088 -0.0000
vn 0.8434 0.5373 -0.0000
vn 0.8871 0.4616 0.0000
vn 0.8870 0.4617 -0.0000
vn 0.9239 0.3827 0.0000
vn 0.9537 0.3007 -0.0000
vn 0.9763 0.2163 -0.0000
vn 0.9763 0.2164 0.0000
vn 0.9915 0.1304 -0.0000
vn 0.9915 0.1305 -0.0000
vn 0.7071 0.7071 -0.0000
vn 0.5736 0.8191 0.0000
vn 0.4226 0.9063 -0.0000
vn 0.2588 0.9659 -0.0000
vn 0.0000 0.6088 0.7933
vn -0.0000 0.5373 0.8434
vn -0.0000 0.4617 0.8870
vn -0.0000 0.3826 0.9239
vn 0.0000 0.3008 0.9537
vn -0.0000 0.2164 0.9763
vn 0.0000 0.1305 0.9915
vn 0.0000 0.7071 0.7071
vn -0.0000 0.8191 0.5736
vn 0.0000 0.9063 0.4226
vn 0.0000 0.9659 0.2588
vn 0.0000 0.9962 -0.0872
vn -0.0000 0.9659 -0.2588
vn 0.0000 0.9063 -0.4226
vn 0.0000 0.8191 -0.5736
vn 0.0000 0.7071 -0.7071
vn 0.0000 0.6088 -0.7933
vn 0.0000 0.5373 -0.8434
vn -0.0000 0.2164 -0.9763
vn 0.0000 0.3007 -0.9537
vn -0.0000 0.3826 -0.9239
vn 0.0000 0.0436 -0.9990
vn -0.0000 0.1305 -0.9915
usemtl Default_OBJ
s 1
f 1//1 2//1 3//1
f 3//1 2//1 4//1
f 3//1 4//1 5//1
f 5//1 4//1 6//1
f 5//1 6//1 7//1
f 8//1 9//1 10//1
f 10//1 9//1 11//1
f 10//1 11//1 12//1
f 12//1 11//1 13//1
f 12//1 13//1 14//1
f 14//1 13//1 15//1
f 14//1 15//1 1//1
f 1//1 15//1 16//1
f 1//1 16//1 2//1
f 17//1 18//1 19//1
f 19//1 18//1 20//1
f 19//1 20//1 21//1
f 21//1 20//1 22//1
f 21//1 22//1 23//1
f 23//1 22//1 24//1
f 23//1 24//1 8//1
f 8//1 24//1 25//1
f 8//1 25//1 9//1
f 6//1 26//1 7//1
f 7//1 26//1 27//1
f 7//1 27//1 28//1
f 28//1 27//1 29//1
f 28//1 29//1 30//1
f 30//1 29//1 31//1
f 30//1 31//1 32//1
f 32//1 31//1 33//1
f 32//1 33//1 34//1
f 34//1 33//1 35//1
f 34//1 35//1 36//1
f 37//1 38//1 39//1
f 39//1 38//1 40//1
f 39//1 40//1 41//1
f 41//1 40//1 42//1
f 41//1 42//1 43//1
f 43//1 42//1 44//1
f 43//1 44//1 17//1
f 17//1 44//1 45//1
f 17//1 45//1 18//1
f 46//1 47//1 48//1
f 48//1 47//1 49//1
f 48//1 49//1 50//1
f 50//1 49//1 51//1
f 50//1 51//1 52//1
f 52//1 51//1 53//1
f 52//1 53//1 37//1
f 37//1 53//1 54//1
f 37//1 54//1 38//1
f 55//1 56//1 57//1
f 57//1 56//1 58//1
f 57//1 58//1 59//1
f 59//1 58//1 60//1
f 59//1 60//1 61//1
f 61//1 60//1 62//1
f 61//1 62//1 46//1
f 46//1 62//1 63//1
f 46//1 63//1 47//1
f 64//2 65//1 66//1
f 66//1 65//1 67//1
f 66//1 67//1 68//1
f 68//1 67//1 69//1
f 68//1 69//1 70//1
f 70//1 69//1 71//1
f 70//1 71//1 72//1
f 72//1 71//1 73//1
f 72//1 73//1 55//1
f 55//1 73//1 74//1
f 55//1 74//1 56//1
f 35//1 75//1 36//1
f 36//1 75//1 76//1
f 36//1 76//1 77//1
f 77//1 76//1 78//1
f 77//1 78//1 79//1
f 79//1 78//1 80//2
f 79//1 80//2 64//2
f 64//2 80//2 81//1
f 64//2 81//1 65//1
f 82//3 83//4 84//3
f 84//3 83//4 85//5
f 84//3 85//5 86//3
f 86//3 85//5 87//3
f 86//3 87//3 88//3
f 88//3 87//3 89//3
f 88//3 89//3 90//3
f 90//3 89//3 91//4
f 90//3 91//4 92//3
f 92//3 91//4 93//5
f 92//3 93//5 94//3
f 94//3 93//5 95//3
f 94//3 95//3 96//3
f 96//3 95//3 97//3
f 96//3 97//3 98//3
f 98//3 97//3 99//6
f 98//3 99//6 100//3
f 100//3 99//6 101//7
f 100//3 101//7 102//3
f 102//3 101//7 103//3
f 102//3 103//3 104//3
f 104//3 103//3 105//3
f 104//3 105//3 106//3
f 106//3 105//3 107//8
f 106//3 107//8 108//3
f 108//3 107//8 109//7
f 108//3 109//7 110//3
f 110//3 109//7 111//3
f 110//3 111//3 112//3
f 112//3 111//3 113//3
f 112//3 113//3 114//3
f 114//3 113//3 115//9
f 114//3 115//9 116//3
f 116//3 115//9 117//10
f 116//3 117//10 118//3
f 118//3 117//10 119//3
f 118//3 119//3 120//3
f 120//3 119//3 121//3
f 120//3 121//3 122//3
f 122//3 121//3 123//5
f 122//3 123//5 124//3
f 124//3 123//5 125//4
f 124//3 125//4 126//3
f 126//3 125//4 127//3
f 126//3 127//3 128//3
f 128//3 127//3 129//3
f 128//3 129//3 130//3
f 130//3 129//3 131//5
f 130//3 131//5 132//3
f 132//3 131//5 133//4
f 132//3 133//4 134//3
f 134//3 133//4 135//3
f 134//3 135//3 136//3
f 136//3 135//3 137//3
f 136//3 137//3 138//3
f 138//3 137//3 139//11
f 138//3 139//11 140//3
f 140//3 139//11 141//8
f 140//3 141//8 142//3
f 142//3 141//8 143//3
f 142//3 143//3 144//3
f 144//3 143//3 145//3
f 144//3 145//3 146//3
f 146//3 145//3 147//7
f 146//3 147//7 148//3
f 148//3 147//7 149//8
f 148//3 149//8 150//3
f 150//3 149//8 151//3
f 150//3 151//3 152//3
f 152//3 151//3 153//3
f 152//3 153//3 82//3
f 82//3 153//3 83//4
f 154//12 155//12 143//3
f 143//3 155//12 145//3
f 154//12 143//3 156//13
f 156//13 143//3 141//8
f 156//13 141//8 157//14
f 137//3 158//15 139//11
f 139//11 158//15 159//16
f 139//11 159//16 141//8
f 141//8 159//16 160//17
f 141//8 160//17 157//14
f 135//3 161//18 137//3
f 137//3 161//18 162//19
f 137//3 162//19 158//15
f 163//20 164//20 133//4
f 133//4 164//20 165//21
f 133//4 165//21 135//3
f 135//3 165//21 166//22
f 135//3 166//22 161//18
f 163//20 133//4 167//23
f 167//23 133//4 131//5
f 167//23 131//5 168//24
f 168//24 131//5 129//3
f 168//24 129//3 169//25
f 169//25 129//3 170//26
f 170//26 129//3 127//3
f 170//26 127//3 171//27
f 171//27 127//3 172//28
f 172//28 127//3 125//4
f 172//28 125//4 173//29
f 121//3 174//30 123//5
f 123//5 174//30 175//31
f 123//5 175//31 125//4
f 125//4 175//31 176//32
f 125//4 176//32 173//29
f 119//3 177//33 121//3
f 121//3 177//33 178//34
f 121//3 178//34 174//30
f 179//35 180//35 117//10
f 117//10 180//35 181//36
f 117//10 181//36 119//3
f 119//3 181//36 182//37
f 119//3 182//37 177//33
f 179//35 117//10 183//38
f 183//38 117//10 115//9
f 183//38 115//9 184//39
f 184//39 115//9 113//3
f 184//39 113//3 185//40
f 185//40 113//3 186//41
f 186//41 113//3 111//3
f 186//41 111//3 187//42
f 187//42 111//3 188//43
f 188//43 111//3 109//7
f 188//43 109//7 189//44
f 105//3 190//45 107//8
f 107//8 190//45 191//46
f 107//8 191//46 109//7
f 109//7 191//46 192//47
f 109//7 192//47 189//44
f 103//3 193//48 105//3
f 105//3 193//48 194//49
f 105//3 194//49 190//45
f 195//50 196//50 101//7
f 101//7 196//50 197//51
f 101//7 197//51 103//3
f 103//3 197//51 198//52
f 103//3 198//52 193//48
f 195//50 101//7 199//53
f 199//53 101//7 99//6
f 199//53 99//6 200//54
f 200//54 99//6 97//3
f 200//54 97//3 201//55
f 201//55 97//3 202//56
f 202//56 97//3 95//3
f 202//56 95//3 203//57
f 203//57 95//3 204//58
f 204//58 95//3 93//5
f 204//58 93//5 205//59
f 89//3 206//60 91//4
f 91//4 206//60 207//61
f 91//4 207//61 93//5
f 93//5 207//61 208//62
f 93//5 208//62 205//59
f 87//3 209//63 89//3
f 89//3 209//63 210//64
f 89//3 210//64 206//60
f 211//65 212//65 85//5
f 85//5 212//65 213//66
f 85//5 213//66 87//3
f 87//3 213//66 214//67
f 87//3 214//67 209//63
f 211//65 85//5 215//68
f 215//68 85//5 83//4
f 215//68 83//4 216//69
f 216//69 83//4 153//3
f 216//69 153//3 217//70
f 217//70 153//3 218//71
f 218//71 153//3 151//3
f 218//71 151//3 219//72
f 219//72 151//3 220//73
f 220//73 151//3 149//8
f 220//73 149//8 221//74
f 155//12 222//75 145//3
f 145//3 222//75 223//76
f 145//3 223//76 147//7
f 147//7 223//76 224//77
f 147//7 224//77 149//8
f 149//8 224//77 225//78
f 149//8 225//78 221//74
f 46//1 144//3 61//1
f 61//1 144//3 146//79
f 61//1 146//79 59//1
f 59//1 146//79 148//8
f 59//1 148//8 57//1
f 57//1 148//8 150//8
f 57//1 150//8 55//1
f 55//1 150//8 152//8
f 55//1 152//8 72//1
f 72//1 152//8 82//8
f 72//1 82//8 70//1
f 70//1 82//8 84//4
f 70//1 84//4 68//1
f 68//1 84//4 86//80
f 68//1 86//80 66//1
f 66//1 86//80 88//4
f 66//1 88//4 64//2
f 64//2 88//4 90//3
f 64//2 90//3 79//1
f 79//1 90//3 92//81
f 79//1 92//81 77//1
f 77//1 92//81 94//6
f 77//1 94//6 36//1
f 36//1 94//6 96//82
f 36//1 96//82 34//1
f 34//1 96//82 98//83
f 34//1 98//83 32//1
f 32//1 98//83 100//84
f 32//1 100//84 30//1
f 30//1 100//84 102//85
f 30//1 102//85 28//1
f 28//1 102//85 104//86
f 28//1 104//86 7//1
f 7//1 104//86 106//87
f 7//1 106//87 5//1
f 5//1 106//87 108//88
f 5//1 108//88 3//1
f 3//1 108//88 110//89
f 3//1 110//89 1//1
f 1//1 110//89 112//90
f 1//1 112//90 14//1
f 14//1 112//90 114//91
f 14//1 114//91 12//1
f 12//1 114//91 116//9
f 12//1 116//9 10//1
f 10//1 116//9 118//92
f 10//1 118//92 8//1
f 8//1 118//92 120//7
f 8//1 120//7 23//1
f 23//1 120//7 122//93
f 23//1 122//93 21//1
f 21//1 122//93 124//94
f 21//1 124//94 19//1
f 19//1 124//94 126//3
f 19//1 126//3 17//1
f 17//1 126//3 128//4
f 17//1 128//4 43//1
f 43//1 128//4 130//95
f 43//1 130//95 41//1
f 41//1 130//95 132//3
f 41//1 132//3 39//1
f 39//1 132//3 134//4
f 39//1 134//4 37//1
f 37//1 134//4 136//7
f 37//1 136//7 52//1
f 52//1 136//7 138//6
f 52//1 138//6 50//1
f 50//1 138//6 140//96
f 50//1 140//96 48//1
f 48//1 140//96 142//8
f 48//1 142//8 46//1
f 46//1 142//8 144//3
f 198//52 197//51 226//97
f 203//57 204//58 227//98
f 214//67 213//66 228//99
f 219//72 220//73 229//100
f 154//12 156//13 230//101
f 166//22 165//21 231//102
f 171//27 172//28 232//103
f 182//37 181//36 233//104
f 187//42 188//43 234//105
f 2//1 16//1 235//106
f 235//106 16//1 236//106
f 235//106 236//106 237//107
f 237//107 236//106 238//107
f 237//107 238//107 239//108
f 239//108 238//107 240//108
f 239//108 240//108 241//109
f 241//109 240//108 242//110
f 241//109 242//110 243//111
f 243//111 242//110 244//111
f 243//111 244//111 245//112
f 245//112 244//111 246//112
f 245//112 246//112 247//113
f 247//113 246//112 248//114
f 247//113 248//114 249//115
f 249//115 248//114 250//115
f 9//1 25//1 251//116
f 251//116 25//1 252//116
f 251//116 252//116 253//117
f 253//117 252//116 254//117
f 253//117 254//117 255//118
f 255//118 254//117 256//118
f 255//118 256//118 257//119
f 257//119 256//118 258//119
f 257//119 258//119 259//120
f 259//120 258//119 260//120
f 259//120 260//120 261//121
f 261//121 260//120 262//122
f 261//121 262//122 263//123
f 263//123 262//122 264//123
f 263//123 264//123 265//124
f 265//124 264//123 266//124
f 18//1 45//1 267//125
f 267//125 45//1 268//125
f 267//125 268//125 269//126
f 269//126 268//125 270//126
f 269//126 270//126 271//127
f 271//127 270//126 272//127
f 271//127 272//127 273//128
f 273//128 272//127 274//128
f 273//128 274//128 275//129
f 275//129 274//128 276//130
f 275//129 276//130 277//131
f 277//131 276//130 278//132
f 277//131 278//132 279//133
f 279//133 278//132 280//133
f 279//133 280//133 281//134
f 281//134 280//133 282//134
f 38//1 54//1 283//135
f 283//135 54//1 284//135
f 283//135 284//135 285//136
f 285//136 284//135 286//136
f 285//136 286//136 287//137
f 287//137 286//136 288//137
f 287//137 288//137 289//138
f 289//138 288//137 290//138
f 289//138 290//138 291//139
f 291//139 290//138 292//139
f 291//139 292//139 293//140
f 293//140 292//139 294//140
f 293//140 294//140 295//141
f 295//141 294//140 296//141
f 295//141 296//141 297//142
f 297//142 296//141 298//142
f 47//1 63//1 299//143
f 299//143 63//1 300//143
f 299//143 300//143 301//144
f 301//144 300//143 302//144
f 301//144 302//144 303//145
f 303//145 302//144 304//145
f 303//145 304//145 305//146
f 305//146 304//145 306//146
f 305//146 306//146 307//147
f 307//147 306//146 308//147
f 307//147 308//147 309//148
f 309//148 308//147 310//148
f 309//148 310//148 311//149
f 311//149 310//148 312//149
f 311//149 312//149 313//150
f 313//150 312//149 314//150
f 56//1 74//1 315//151
f 315//151 74//1 316//151
f 315//151 316//151 317//152
f 317//152 316//151 318//152
f 317//152 318//152 319//153
f 319//153 318//152 320//153
f 319//153 320//153 321//154
f 321//154 320//153 322//154
f 321//154 322//154 323//155
f 323//155 322//154 324//155
f 323//155 324//155 325//156
f 325//156 324//155 326//156
f 325//156 326//156 327//157
f 327//157 326//156 328//157
f 327//157 328//157 329//158
f 329//158 328//157 330//158
f 67//1 65//1 331//159
f 331//159 65//1 332//159
f 331//159 332//159 333//160
f 333//160 332//159 334//160
f 333//160 334//160 335//161
f 335//161 334//160 336//162
f 335//161 336//162 337//163
f 337//163 336//162 338//163
f 337//163 338//163 339//164
f 339//164 338//163 340//165
f 339//164 340//165 341//166
f 341//166 340//165 342//167
f 341//166 342//167 343//168
f 343//168 342//167 344//168
f 343//168 344//168 345//169
f 345//169 344//168 346//169
f 76//1 75//1 347//170
f 347//170 75//1 348//170
f 347//170 348//170 349//171
f 349//171 348//170 350//171
f 349//171 350//171 351//172
f 351//172 350//171 352//172
f 351//172 352//172 353//173
f 353//173 352//172 354//173
f 353//173 354//173 355//174
f 355//174 354//173 356//174
f 355//174 356//174 357//175
f 357//175 356//174 358//176
f 357//175 358//176 359//177
f 359//177 358//176 360//177
f 359//177 360//177 361//178
f 361//178 360//177 362//178
f 29//1 27//1 363//179
f 363//179 27//1 364//179
f 363//179 364//179 365//180
f 365//180 364//179 366//180
f 365//180 366//180 367//181
f 367//181 366//180 368//181
f 367//181 368//181 369//182
f 369//182 368//181 370//183
f 369//182 370//183 371//184
f 371//184 370//183 372//184
f 371//184 372//184 373//185
f 373//185 372//184 374//185
f 373//185 374//185 375//186
f 375//186 374//185 376//187
f 375//186 376//187 377//188
f 377//188 376//187 378//188
f 6//1 4//1 379//189
f 379//189 4//1 380//189
f 379//189 380//189 381//190
f 381//190 380//189 382//190
f 381//190 382//190 383//191
f 383//191 382//190 384//191
f 383//191 384//191 385//192
f 385//192 384//191 386//192
f 385//192 386//192 387//193
f 387//193 386//192 388//193
f 387//193 388//193 389//194
f 389//194 388//193 390//195
f 389//194 390//195 391//196
f 391//196 390//195 392//196
f 391//196 392//196 393//197
f 393//197 392//196 234//105
f 393//197 234//105 189//44
f 189//44 234//105 188//43
f 4//1 2//1 380//189
f 380//189 2//1 235//106
f 380//189 235//106 382//190
f 382//190 235//106 237//107
f 382//190 237//107 384//191
f 384//191 237//107 239//108
f 384//191 239//108 386//192
f 386//192 239//108 241//109
f 386//192 241//109 388//193
f 388//193 241//109 243//111
f 388//193 243//111 390//195
f 390//195 243//111 245//112
f 390//195 245//112 392//196
f 392//196 245//112 247//113
f 392//196 247//113 234//105
f 234//105 247//113 249//115
f 234//105 249//115 187//42
f 183//38 184//39 250//115
f 250//115 184//39 185//40
f 250//115 185//40 249//115
f 249//115 185//40 186//41
f 249//115 186//41 187//42
f 179//35 183//38 394//198
f 394//198 183//38 250//115
f 394//198 250//115 395//199
f 395//199 250//115 248//114
f 395//199 248//114 396//200
f 396//200 248//114 246//112
f 396//200 246//112 397//201
f 397//201 246//112 244//111
f 397//201 244//111 398//202
f 398//202 244//111 242//110
f 398//202 242//110 399//203
f 399//203 242//110 240//108
f 399//203 240//108 400//204
f 400//204 240//108 238//107
f 400//204 238//107 401//205
f 401//205 238//107 236//106
f 401//205 236//106 15//1
f 15//1 236//106 16//1
f 15//1 13//1 401//205
f 401//205 13//1 402//206
f 401//205 402//206 400//204
f 400//204 402//206 403//207
f 400//204 403//207 399//203
f 399//203 403//207 404//208
f 399//203 404//208 398//202
f 398//202 404//208 405//209
f 398//202 405//209 397//201
f 397//201 405//209 406//210
f 397//201 406//210 396//200
f 396//200 406//210 407//211
f 396//200 407//211 395//199
f 395//199 407//211 408//212
f 395//199 408//212 394//198
f 394//198 408//212 409//213
f 394//198 409//213 179//35
f 179//35 409//213 180//35
f 13//1 11//1 402//206
f 402//206 11//1 410//214
f 402//206 410//214 403//207
f 403//207 410//214 411//215
f 403//207 411//215 404//208
f 404//208 411//215 412//216
f 404//208 412//216 405//209
f 405//209 412//216 413//217
f 405//209 413//217 406//210
f 406//210 413//217 414//218
f 406//210 414//218 407//211
f 407//211 414//218 415//219
f 407//211 415//219 408//212
f 408//212 415//219 416//220
f 408//212 416//220 409//213
f 409//213 416//220 233//104
f 409//213 233//104 180//35
f 180//35 233//104 181//36
f 11//1 9//1 410//214
f 410//214 9//1 251//116
f 410//214 251//116 411//215
f 411//215 251//116 253//117
f 411//215 253//117 412//216
f 412//216 253//117 255//118
f 412//216 255//118 413//217
f 413//217 255//118 257//119
f 413//217 257//119 414//218
f 414//218 257//119 259//120
f 414//218 259//120 415//219
f 415//219 259//120 261//121
f 415//219 261//121 416//220
f 416//220 261//121 263//123
f 416//220 263//123 233//104
f 233//104 263//123 265//124
f 233//104 265//124 182//37
f 175//31 174//30 266//124
f 266//124 174//30 178//34
f 266//124 178//34 265//124
f 265//124 178//34 177//33
f 265//124 177//33 182//37
f 176//32 175//31 417//221
f 417//221 175//31 266//124
f 417//221 266//124 418//222
f 418//222 266//124 264//123
f 418//222 264//123 419//223
f 419//223 264//123 262//122
f 419//223 262//122 420//224
f 420//224 262//122 260//120
f 420//224 260//120 421//225
f 421//225 260//120 258//119
f 421//225 258//119 422//226
f 422//226 258//119 256//118
f 422//226 256//118 423//227
f 423//227 256//118 254//117
f 423//227 254//117 424//228
f 424//228 254//117 252//116
f 424//228 252//116 24//1
f 24//1 252//116 25//1
f 24//1 22//1 424//228
f 424//228 22//1 425//229
f 424//228 425//229 423//227
f 423//227 425//229 426//230
f 423//227 426//230 422//226
f 422//226 426//230 427//231
f 422//226 427//231 421//225
f 421//225 427//231 428//232
f 421//225 428//232 420//224
f 420//224 428//232 429//233
f 420//224 429//233 419//223
f 419//223 429//233 430//234
f 419//223 430//234 418//222
f 418//222 430//234 431//235
f 418//222 431//235 417//221
f 417//221 431//235 432//236
f 417//221 432//236 176//32
f 176//32 432//236 173//29
f 22//1 20//1 425//229
f 425//229 20//1 433//237
f 425//229 433//237 426//230
f 426//230 433//237 434//238
f 426//230 434//238 427//231
f 427//231 434//238 435//239
f 427//231 435//239 428//232
f 428//232 435//239 436//240
f 428//232 436//240 429//233
f 429//233 436//240 437//241
f 429//233 437//241 430//234
f 430//234 437//241 438//242
f 430//234 438//242 431//235
f 431//235 438//242 439//243
f 431//235 439//243 432//236
f 432//236 439//243 232//103
f 432//236 232//103 173//29
f 173//29 232//103 172//28
f 20//1 18//1 433//237
f 433//237 18//1 267//125
f 433//237 267//125 434//238
f 434//238 267//125 269//126
f 434//238 269//126 435//239
f 435//239 269//126 271//127
f 435//239 271//127 436//240
f 436//240 271//127 273//128
f 436//240 273//128 437//241
f 437//241 273//128 275//129
f 437//241 275//129 438//242
f 438//242 275//129 277//131
f 438//242 277//131 439//243
f 439//243 277//131 279//133
f 439//243 279//133 232//103
f 232//103 279//133 281//134
f 232//103 281//134 171//27
f 167//23 168//24 282//134
f 282//134 168//24 169//25
f 282//134 169//25 281//134
f 281//134 169//25 170//26
f 281//134 170//26 171//27
f 163//20 167//23 440//244
f 440//244 167//23 282//134
f 440//244 282//134 441//245
f 441//245 282//134 280//133
f 441//245 280//133 442//246
f 442//246 280//133 278//132
f 442//246 278//132 443//247
f 443//247 278//132 276//130
f 443//247 276//130 444//248
f 444//248 276//130 274//128
f 444//248 274//128 445//249
f 445//249 274//128 272//127
f 445//249 272//127 446//250
f 446//250 272//127 270//126
f 446//250 270//126 447//251
f 447//251 270//126 268//125
f 447//251 268//125 44//1
f 44//1 268//125 45//1
f 44//1 42//1 447//251
f 447//251 42//1 448//252
f 447//251 448//252 446//250
f 446//250 448//252 449//253
f 446//250 449//253 445//249
f 445//249 449//253 450//254
f 445//249 450//254 444//248
f 444//248 450//254 451//255
f 444//248 451//255 443//247
f 443//247 451//255 452//256
f 443//247 452//256 442//246
f 442//246 452//256 453//257
f 442//246 453//257 441//245
f 441//245 453//257 454//258
f 441//245 454//258 440//244
f 440//244 454//258 455//259
f 440//244 455//259 163//20
f 163//20 455//259 164//20
f 42//1 40//1 448//252
f 448//252 40//1 456//260
f 448//252 456//260 449//253
f 449//253 456//260 457//261
f 449//253 457//261 450//254
f 450//254 457//261 458//262
f 450//254 458//262 451//255
f 451//255 458//262 459//263
f 451//255 459//263 452//256
f 452//256 459//263 460//264
f 452//256 460//264 453//257
f 453//257 460//264 461//265
f 453//257 461//265 454//258
f 454//258 461//265 462//266
f 454//258 462//266 455//259
f 455//259 462//266 231//102
f 455//259 231//102 164//20
f 164//20 231//102 165//21
f 40//1 38//1 456//260
f 456//260 38//1 283//135
f 456//260 283//135 457//261
f 457//261 283//135 285//136
f 457//261 285//136 458//262
f 458//262 285//136 287//137
f 458//262 287//137 459//263
f 459//263 287//137 289//138
f 459//263 289//138 460//264
f 460//264 289//138 291//139
f 460//264 291//139 461//265
f 461//265 291//139 293//140
f 461//265 293//140 462//266
f 462//266 293//140 295//141
f 462//266 295//141 231//102
f 231//102 295//141 297//142
f 231//102 297//142 166//22
f 159//16 158//15 298//142
f 298//142 158//15 162//19
f 298//142 162//19 297//142
f 297//142 162//19 161//18
f 297//142 161//18 166//22
f 160//17 159//16 463//267
f 463//267 159//16 298//142
f 463//267 298//142 464//268
f 464//268 298//142 296//141
f 464//268 296//141 465//269
f 465//269 296//141 294//140
f 465//269 294//140 466//270
f 466//270 294//140 292//139
f 466//270 292//139 467//271
f 467//271 292//139 290//138
f 467//271 290//138 468//272
f 468//272 290//138 288//137
f 468//272 288//137 469//273
f 469//273 288//137 286//136
f 469//273 286//136 470//274
f 470//274 286//136 284//135
f 470//274 284//135 53//1
f 53//1 284//135 54//1
f 53//1 51//1 470//274
f 470//274 51//1 471//275
f 470//274 471//275 469//273
f 469//273 471//275 472//276
f 469//273 472//276 468//272
f 468//272 472//276 473//277
f 468//272 473//277 467//271
f 467//271 473//277 474//278
f 467//271 474//278 466//270
f 466//270 474//278 475//279
f 466//270 475//279 465//269
f 465//269 475//279 476//280
f 465//269 476//280 464//268
f 464//268 476//280 477//281
f 464//268 477//281 463//267
f 463//267 477//281 478//282
f 463//267 478//282 160//17
f 160//17 478//282 157//14
f 51//1 49//1 471//275
f 471//275 49//1 479//283
f 471//275 479//283 472//276
f 472//276 479//283 480//284
f 472//276 480//284 473//277
f 473//277 480//284 481//285
f 473//277 481//285 474//278
f 474//278 481//285 482//286
f 474//278 482//286 475//279
f 475//279 482//286 483//287
f 475//279 483//287 476//280
f 476//280 483//287 484//288
f 476//280 484//288 477//281
f 477//281 484//288 485//289
f 477//281 485//289 478//282
f 478//282 485//289 230//101
f 478//282 230//101 157//14
f 157//14 230//101 156//13
f 49//1 47//1 479//283
f 479//283 47//1 299//143
f 479//283 299//143 480//284
f 480//284 299//143 301//144
f 480//284 301//144 481//285
f 481//285 301//144 303//145
f 481//285 303//145 482//286
f 482//286 303//145 305//146
f 482//286 305//146 483//287
f 483//287 305//146 307//147
f 483//287 307//147 484//288
f 484//288 307//147 309//148
f 484//288 309//148 485//289
f 485//289 309//148 311//149
f 485//289 311//149 230//101
f 230//101 311//149 313//150
f 230//101 313//150 154//12
f 224//77 223//76 314//150
f 314//150 223//76 222//75
f 314//150 222//75 313//150
f 313//150 222//75 155//12
f 313//150 155//12 154//12
f 225//78 224//77 486//290
f 486//290 224//77 314//150
f 486//290 314//150 487//291
f 487//291 314//150 312//149
f 487//291 312//149 488//292
f 488//292 312//149 310//148
f 488//292 310//148 489//293
f 489//293 310//148 308//147
f 489//293 308//147 490//294
f 490//294 308//147 306//146
f 490//294 306//146 491//295
f 491//295 306//146 304//145
f 491//295 304//145 492//296
f 492//296 304//145 302//144
f 492//296 302//144 493//297
f 493//297 302//144 300//143
f 493//297 300//143 62//1
f 62//1 300//143 63//1
f 62//1 60//1 493//297
f 493//297 60//1 494//298
f 493//297 494//298 492//296
f 492//296 494//298 495//299
f 492//296 495//299 491//295
f 491//295 495//299 496//300
f 491//295 496//300 490//294
f 490//294 496//300 497//301
f 490//294 497//301 489//293
f 489//293 497//301 498//302
f 489//293 498//302 488//292
f 488//292 498//302 499//303
f 488//292 499//303 487//291
f 487//291 499//303 500//304
f 487//291 500//304 486//290
f 486//290 500//304 501//305
f 486//290 501//305 225//78
f 225//78 501//305 221//74
f 60//1 58//1 494//298
f 494//298 58//1 502//306
f 494//298 502//306 495//299
f 495//299 502//306 503//307
f 495//299 503//307 496//300
f 496//300 503//307 504//308
f 496//300 504//308 497//301
f 497//301 504//308 505//309
f 497//301 505//309 498//302
f 498//302 505//309 506//310
f 498//302 506//310 499//303
f 499//303 506//310 507//311
f 499//303 507//311 500//304
f 500//304 507//311 508//312
f 500//304 508//312 501//305
f 501//305 508//312 229//100
f 501//305 229//100 221//74
f 221//74 229//100 220//73
f 58//1 56//1 502//306
f 502//306 56//1 315//151
f 502//306 315//151 503//307
f 503//307 315//151 317//152
f 503//307 317//152 504//308
f 504//308 317//152 319//153
f 504//308 319//153 505//309
f 505//309 319//153 321//154
f 505//309 321//154 506//310
f 506//310 321//154 323//155
f 506//310 323//155 507//311
f 507//311 323//155 325//156
f 507//311 325//156 508//312
f 508//312 325//156 327//157
f 508//312 327//157 229//100
f 229//100 327//157 329//158
f 229//100 329//158 219//72
f 215//68 216//69 330//158
f 330//158 216//69 217//70
f 330//158 217//70 329//158
f 329//158 217//70 218//71
f 329//158 218//71 219//72
f 211//65 215//68 509//313
f 509//313 215//68 330//158
f 509//313 330//158 510//314
f 510//314 330//158 328//157
f 510//314 328//157 511//315
f 511//315 328//157 326//156
f 511//315 326//156 512//316
f 512//316 326//156 324//155
f 512//316 324//155 513//317
f 513//317 324//155 322//154
f 513//317 322//154 514//318
f 514//318 322//154 320//153
f 514//318 320//153 515//319
f 515//319 320//153 318//152
f 515//319 318//152 516//320
f 516//320 318//152 316//151
f 516//320 316//151 73//1
f 73//1 316//151 74//1
f 73//1 71//1 516//320
f 516//320 71//1 517//321
f 516//320 517//321 515//319
f 515//319 517//321 518//322
f 515//319 518//322 514//318
f 514//318 518//322 519//323
f 514//318 519//323 513//317
f 513//317 519//323 520//324
f 513//317 520//324 512//316
f 512//316 520//324 521//325
f 512//316 521//325 511//315
f 511//315 521//325 522//326
f 511//315 522//326 510//314
f 510//314 522//326 523//327
f 510//314 523//327 509//313
f 509//313 523//327 524//328
f 509//313 524//328 211//65
f 211//65 524//328 212//65
f 71//1 69//1 517//321
f 517//321 69//1 525//329
f 517//321 525//329 518//322
f 518//322 525//329 526//330
f 518//322 526//330 519//323
f 519//323 526//330 527//331
f 519//323 527//331 520//324
f 520//324 527//331 528//332
f 520//324 528//332 521//325
f 521//325 528//332 529//333
f 521//325 529//333 522//326
f 522//326 529//333 530//334
f 522//326 530//334 523//327
f 523//327 530//334 531//335
f 523//327 531//335 524//328
f 524//328 531//335 228//99
f 524//328 228//99 212//65
f 212//65 228//99 213//66
f 69//1 67//1 525//329
f 525//329 67//1 331//159
f 525//329 331//159 526//330
f 526//330 331//159 333//160
f 526//330 333//160 527//331
f 527//331 333//160 335//161
f 527//331 335//161 528//332
f 528//332 335//161 337//163
f 528//332 337//163 529//333
f 529//333 337//163 339//164
f 529//333 339//164 530//334
f 530//334 339//164 341//166
f 530//334 341//166 531//335
f 531//335 341//166 343//168
f 531//335 343//168 228//99
f 228//99 343//168 345//169
f 228//99 345//169 214//67
f 207//61 206//60 346//169
f 346//169 206//60 210//64
f 346//169 210//64 345//169
f 345//169 210//64 209//63
f 345//169 209//63 214//67
f 208//62 207//61 532//336
f 532//336 207//61 346//169
f 532//336 346//169 533//337
f 533//337 346//169 344//168
f 533//337 344//168 534//338
f 534//338 344//168 342//167
f 534//338 342//167 535//339
f 535//339 342//167 340//165
f 535//339 340//165 536//340
f 536//340 340//165 338//163
f 536//340 338//163 537//341
f 537//341 338//163 336//162
f 537//341 336//162 538//342
f 538//342 336//162 334//160
f 538//342 334//160 539//343
f 539//343 334//160 332//159
f 539//343 332//159 81//1
f 81//1 332//159 65//1
f 81//1 80//2 539//343
f 539//343 80//2 540//344
f 539//343 540//344 538//342
f 538//342 540//344 541//345
f 538//342 541//345 537//341
f 537//341 541//345 542//346
f 537//341 542//346 536//340
f 536//340 542//346 543//347
f 536//340 543//347 535//339
f 535//339 543//347 544//348
f 535//339 544//348 534//338
f 534//338 544//348 545//349
f 534//338 545//349 533//337
f 533//337 545//349 546//350
f 533//337 546//350 532//336
f 532//336 546//350 547//351
f 532//336 547//351 208//62
f 208//62 547//351 205//59
f 80//2 78//1 540//344
f 540//344 78//1 548//352
f 540//344 548//352 541//345
f 541//345 548//352 549//353
f 541//345 549//353 542//346
f 542//346 549//353 550//354
f 542//346 550//354 543//347
f 543//347 550//354 551//355
f 543//347 551//355 544//348
f 544//348 551//355 552//356
f 544//348 552//356 545//349
f 545//349 552//356 553//357
f 545//349 553//357 546//350
f 546//350 553//357 554//358
f 546//350 554//358 547//351
f 547//351 554//358 227//98
f 547//351 227//98 205//59
f 205//59 227//98 204//58
f 78//1 76//1 548//352
f 548//352 76//1 347//170
f 548//352 347//170 549//353
f 549//353 347//170 349//171
f 549//353 349//171 550//354
f 550//354 349//171 351//172
f 550//354 351//172 551//355
f 551//355 351//172 353//173
f 551//355 353//173 552//356
f 552//356 353//173 355//174
f 552//356 355//174 553//357
f 553//357 355//174 357//175
f 553//357 357//175 554//358
f 554//358 357//175 359//177
f 554//358 359//177 227//98
f 227//98 359//177 361//178
f 227//98 361//178 203//57
f 199//53 200//54 362//178
f 362//178 200//54 201//55
f 362//178 201//55 361//178
f 361//178 201//55 202//56
f 361//178 202//56 203//57
f 195//50 199//53 555//359
f 555//359 199//53 362//178
f 555//359 362//178 556//360
f 556//360 362//178 360//177
f 556//360 360//177 557//361
f 557//361 360//177 358//176
f 557//361 358//176 558//362
f 558//362 358//176 356//174
f 558//362 356//174 559//363
f 559//363 356//174 354//173
f 559//363 354//173 560//364
f 560//364 354//173 352//172
f 560//364 352//172 561//365
f 561//365 352//172 350//171
f 561//365 350//171 562//366
f 562//366 350//171 348//170
f 562//366 348//170 35//1
f 35//1 348//170 75//1
f 35//1 33//1 562//366
f 562//366 33//1 563//367
f 562//366 563//367 561//365
f 561//365 563//367 564//368
f 561//365 564//368 560//364
f 560//364 564//368 565//369
f 560//364 565//369 559//363
f 559//363 565//369 566//370
f 559//363 566//370 558//362
f 558//362 566//370 567//371
f 558//362 567//371 557//361
f 557//361 567//371 568//372
f 557//361 568//372 556//360
f 556//360 568//372 569//373
f 556//360 569//373 555//359
f 555//359 569//373 570//374
f 555//359 570//374 195//50
f 195//50 570//374 196//50
f 33//1 31//1 563//367
f 563//367 31//1 571//375
f 563//367 571//375 564//368
f 564//368 571//375 572//376
f 564//368 572//376 565//369
f 565//369 572//376 573//377
f 565//369 573//377 566//370
f 566//370 573//377 574//378
f 566//370 574//378 567//371
f 567//371 574//378 575//379
f 567//371 575//379 568//372
f 568//372 575//379 576//380
f 568//372 576//380 569//373
f 569//373 576//380 577//381
f 569//373 577//381 570//374
f 570//374 577//381 226//97
f 570//374 226//97 196//50
f 196//50 226//97 197//51
f 31//1 29//1 571//375
f 571//375 29//1 363//179
f 571//375 363//179 572//376
f 572//376 363//179 365//180
f 572//376 365//180 573//377
f 573//377 365//180 367//181
f 573//377 367//181 574//378
f 574//378 367//181 369//182
f 574//378 369//182 575//379
f 575//379 369//182 371//184
f 575//379 371//184 576//380
f 576//380 371//184 373//185
f 576//380 373//185 577//381
f 577//381 373//185 375//186
f 577//381 375//186 226//97
f 226//97 375//186 377//188
f 226//97 377//188 198//52
f 191//46 190//45 378//188
f 378//188 190//45 194//49
f 378//188 194//49 377//188
f 377//188 194//49 193//48
f 377//188 193//48 198//52
f 192//47 191//46 578//382
f 578//382 191//46 378//188
f 578//382 378//188 579//383
f 579//383 378//188 376//187
f 579//383 376//187 580//384
f 580//384 376//187 374//185
f 580//384 374//185 581//385
f 581//385 374//185 372//184
f 581//385 372//184 582//386
f 582//386 372//184 370//183
f 582//386 370//183 583//387
f 583//387 370//183 368//181
f 583//387 368//181 584//388
f 584//388 368//181 366//180
f 584//388 366//180 585//389
f 585//389 366//180 364//179
f 585//389 364//179 26//1
f 26//1 364//179 27//1
f 26//1 6//1 585//389
f 585//389 6//1 379//189
f 585//389 379//189 584//388
f 584//388 379//189 381//190
f 584//388 381//190 583//387
f 583//387 381//190 383//191
f 583//387 383//191 582//386
f 582//386 383//191 385//192
f 582//386 385//192 581//385
f 581//385 385//192 387//193
f 581//385 387//193 580//384
f 580//384 387//193 389//194
f 580//384 389//194 579//383
f 579//383 389//194 391//196
f 579//383 391//196 578//382
f 578//382 391//196 393//197
f 578//382 393//197 192//47
f 192//47 393//197 189//44
f 586//390 587//391 588//390
f 588//390 587//391 589//391
f 590//392 591//392 586//390
f 586//390 591//392 587//391
f 592//393 593//393 590//392
f 590//392 593//393 591//392
f 588//390 589//391 592//393
f 592//393 589//391 593//393
f 591//392 593//393 587//391
f 587//391 593//393 589//391
f 594//1 595//1 596//1
f 597//1 598//1 599//1
f 599//1 598//1 600//394
f 600//394 601//1 599//1
f 599//1 601//1 602//1
f 599//1 602//1 603//1
f 603//1 604//1 599//1
f 599//1 604//1 605//1
f 599//1 605//1 606//1
f 607//1 608//1 609//1
f 594//1 596//1 610//1
f 595//1 611//1 596//1
f 596//1 611//1 612//1
f 596//1 612//1 613//1
f 607//1 609//1 614//1
f 606//1 615//395 599//1
f 599//1 615//395 616//1
f 599//1 616//1 596//1
f 596//1 616//1 617//2
f 596//1 617//2 610//1
f 613//1 618//394 596//1
f 596//1 618//394 619//1
f 596//1 619//1 609//1
f 609//1 619//1 620//396
f 609//1 620//396 614//1
f 608//1 621//1 609//1
f 609//1 621//1 622//1
f 609//1 622//1 623//1
f 624//1 625//1 597//1
f 623//1 626//2 609//1
f 609//1 626//2 627//1
f 609//1 627//1 597//1
f 597//1 627//1 628//395
f 597//1 628//395 624//1
f 625//1 629//1 597//1
f 597//1 629//1 630//1
f 597//1 630//1 631//1
f 631//1 632//1 597//1
f 597//1 632//1 633//396
f 597//1 633//396 598//1
f 619//1 144//397 620//396
f 620//396 144//397 146//79
f 620//396 146//79 614//1
f 614//1 146//79 148//90
f 614//1 148//90 607//1
f 607//1 148//90 150//91
f 607//1 150//91 608//1
f 608//1 150//91 152//7
f 608//1 152//7 621//1
f 621//1 152//7 82//5
f 621//1 82//5 622//1
f 622//1 82//5 84//5
f 622//1 84//5 623//1
f 623//1 84//5 86//11
f 623//1 86//11 626//2
f 626//2 86//11 88//6
f 626//2 88//6 627//1
f 627//1 88//6 90//7
f 627//1 90//7 628//395
f 628//395 90//7 92//398
f 628//395 92//398 624//1
f 624//1 92//398 94//398
f 624//1 94//398 625//1
f 625//1 94//398 96//7
f 625//1 96//7 629//1
f 629//1 96//7 98//399
f 629//1 98//399 630//1
f 630//1 98//399 100//81
f 630//1 100//81 631//1
f 631//1 100//81 102//83
f 631//1 102//83 632//1
f 632//1 102//83 104//6
f 632//1 104//6 633//396
f 633//396 104//6 106//87
f 633//396 106//87 598//1
f 598//1 106//87 108//400
f 598//1 108//400 600//394
f 600//394 108//400 110//401
f 600//394 110//401 601//1
f 601//1 110//401 112//402
f 601//1 112//402 602//1
f 602//1 112//402 114//79
f 602//1 114//79 603//1
f 603//1 114//79 116//403
f 603//1 116//403 604//1
f 604//1 116//403 118//404
f 604//1 118//404 605//1
f 605//1 118//404 120//405
f 605//1 120//405 606//1
f 606//1 120//405 122//406
f 606//1 122//406 615//395
f 615//395 122//406 124//94
f 615//395 124//94 616//1
f 616//1 124//94 126//8
f 616//1 126//8 617//2
f 617//2 126//8 128//9
f 617//2 128//9 610//1
f 610//1 128//9 130//8
f 610//1 130//8 594//1
f 594//1 130//8 132//407
f 594//1 132//407 595//1
f 595//1 132//407 134//5
f 595//1 134//5 611//1
f 611//1 134//5 136//8
f 611//1 136//8 612//1
f 612//1 136//8 138//79
f 612//1 138//79 613//1
f 613//1 138//79 140//408
f 613//1 140//408 618//394
f 618//394 140//408 142//408
f 618//394 142//408 619//1
f 619//1 142//408 144//397
f 112//3 110//3 634//1
f 634//1 110//3 108//3
f 634//1 108//3 106//3
f 118//3 116//3 634//1
f 634//1 116//3 114//3
f 634//1 114//3 112//3
f 124//3 122//3 634//1
f 634//1 122//3 120//3
f 634//1 120//3 118//3
f 130//3 128//3 634//1
f 634//1 128//3 126//3
f 634//1 126//3 124//3
f 136//3 134//3 634//1
f 634//1 134//3 132//3
f 634//1 132//3 130//3
f 142//3 140//3 634//1
f 634//1 140//3 138//3
f 634//1 138//3 136//3
f 148//3 146//3 634//1
f 634//1 146//3 144//3
f 634//1 144//3 142//3
f 82//3 152//3 634//1
f 634//1 152//3 150//3
f 634//1 150//3 148//3
f 88//3 86//3 634//1
f 634//1 86//3 84//3
f 634//1 84//3 82//3
f 94//3 92//3 634//1
f 634//1 92//3 90//3
f 634//1 90//3 88//3
f 100//3 98//3 634//1
f 634//1 98//3 96//3
f 634//1 96//3 94//3
f 106//3 104//3 634//1
f 634//1 104//3 102//3
f 634//1 102//3 100//3
f 635//409 636//410 637//410
f 637//410 636//410 638//411
f 637//410 638//411 639//411
f 639//411 638//411 640//412
f 639//411 640//412 641//413
f 641//413 640//412 642//414
f 641//413 642//414 643//414
f 643//414 642//414 644//415
f 643//414 644//415 645//415
f 645//415 644//415 646//416
f 645//415 646//416 647//417
f 647//417 646//416 648//418
f 647//417 648//418 649//419
f 649//419 648//418 588//390
f 649//419 588//390 592//393
f 637//410 650//410 635//409
f 635//409 650//410 651//420
f 635//409 651//420 652//420
f 652//420 651//420 653//421
f 652//420 653//421 654//421
f 654//421 653//421 655//422
f 654//421 655//422 656//422
f 656//422 655//422 657//423
f 656//422 657//423 658//423
f 658//423 657//423 609//1
f 658//423 609//1 597//1
f 659//424 660//424 636//410
f 636//410 660//424 661//425
f 636//410 661//425 638//411
f 638//411 661//425 662//426
f 638//411 662//426 640//412
f 640//412 662//426 663//427
f 640//412 663//427 642//414
f 642//414 663//427 664//428
f 642//414 664//428 644//415
f 644//415 664//428 665//429
f 644//415 665//429 646//416
f 646//416 665//429 666//430
f 646//416 666//430 648//418
f 648//418 666//430 586//390
f 648//418 586//390 588//390
f 636//410 635//409 659//424
f 659//424 635//409 652//420
f 659//424 652//420 667//431
f 667//431 652//420 654//421
f 667//431 654//421 668//432
f 668//432 654//421 656//422
f 668//432 656//422 669//433
f 669//433 656//422 658//423
f 669//433 658//423 670//434
f 670//434 658//423 597//1
f 670//434 597//1 599//1
f 596//1 609//1 657//423
f 596//1 657//423 671//435
f 671//435 657//423 655//422
f 671//435 655//422 672//436
f 672//436 655//422 653//421
f 672//436 653//421 673//437
f 673//437 653//421 651//420
f 673//437 651//420 674//438
f 674//438 651//420 650//410
f 674//438 650//410 675//439
f 675//439 650//410 676//440
f 676//440 650//410 637//410
f 676//440 637//410 677//441
f 647//417 678//442 645//415
f 645//415 678//442 679//443
f 645//415 679//443 643//414
f 643//414 679//443 680//444
f 643//414 680//444 641//413
f 641//413 680//444 677//441
f 641//413 677//441 639//411
f 639//411 677//441 637//410
f 592//393 590//392 649//419
f 649//419 590//392 681//445
f 649//419 681//445 647//417
f 647//417 681//445 682//446
f 647//417 682//446 678//442
f 590//392 586//390 681//445
f 681//445 586//390 666//430
f 681//445 666//430 682//446
f 666//430 665//429 682//446
f 682//446 665//429 664//428
f 682//446 664//428 678//442
f 678//442 664//428 663//427
f 678//442 663//427 679//443
f 679//443 663//427 662//426
f 679//443 662//426 680//444
f 680//444 662//426 661//425
f 680//444 661//425 677//441
f 677//441 661//425 660//424
f 677//441 660//424 676//440
f 676//440 660//424 675//439
f 660//424 659//424 675//439
f 675//439 659//424 667//431
f 675//439 667//431 674//438
f 674//438 667//431 668//432
f 674//438 668//432 673//437
f 673//437 668//432 669//433
f 673//437 669//433 672//436
f 672//436 669//433 670//434
f 672//436 670//434 671//435
f 671//435 670//434 599//1
f 671//435 599//1 596//1
