ISO-10303-21;
HEADER;
FILE_DESCRIPTION (( 'STEP AP214' ),
    '1' );
FILE_NAME ('DischargeChamber.STEP',
    '2019-10-29T03:38:40',
    ( '' ),
    ( '' ),
    'SwSTEP 2.0',
    'SolidWorks 2019',
    '' );
FILE_SCHEMA (( 'AUTOMOTIVE_DESIGN' ));
ENDSEC;

DATA;
#1 = ORIENTED_EDGE ( 'NONE', *, *, #1157, .F. ) ;
#2 = ORIENTED_EDGE ( 'NONE', *, *, #157, .T. ) ;
#3 = LINE ( 'NONE', #215, #70 ) ;
#4 = FACE_BOUND ( 'NONE', #45, .T. ) ;
#5 = VERTEX_POINT ( 'NONE', #833 ) ;
#6 = FACE_OUTER_BOUND ( 'NONE', #1130, .T. ) ;
#7 = COLOUR_RGB ( '',0.7921568627450980005, 0.8196078431372548767, 0.9333333333333333481 ) ;
#8 = AXIS2_PLACEMENT_3D ( 'NONE', #262, #158, #339 ) ;
#9 = FACE_OUTER_BOUND ( 'NONE', #700, .T. ) ;
#10 = EDGE_CURVE ( 'NONE', #640, #108, #999, .T. ) ;
#11 = EDGE_CURVE ( 'NONE', #233, #922, #605, .T. ) ;
#12 = VERTEX_POINT ( 'NONE', #1034 ) ;
#13 = ORIENTED_EDGE ( 'NONE', *, *, #595, .T. ) ;
#14 = ORIENTED_EDGE ( 'NONE', *, *, #485, .F. ) ;
#15 = DIRECTION ( 'NONE',  ( -0.0000000000000000000, -0.0000000000000000000, 1.000000000000000000 ) ) ;
#16 = DIRECTION ( 'NONE',  ( -1.000000000000000000, 0.0000000000000000000, 0.0000000000000000000 ) ) ;
#17 = EDGE_CURVE ( 'NONE', #882, #1146, #377, .T. ) ;
#18 = ORIENTED_EDGE ( 'NONE', *, *, #595, .F. ) ;
#19 = CARTESIAN_POINT ( 'NONE',  ( -0.6495190528383133488, 0.3749999999999719669, 2.899999999999999467 ) ) ;
#20 = EDGE_CURVE ( 'NONE', #23, #680, #792, .T. ) ;
#21 = ORIENTED_EDGE ( 'NONE', *, *, #1069, .F. ) ;
#22 = CARTESIAN_POINT ( 'NONE',  ( -0.3749999999999961142, 0.6495190528383127937, 2.899999999999999467 ) ) ;
#23 = VERTEX_POINT ( 'NONE', #163 ) ;
#24 = CYLINDRICAL_SURFACE ( 'NONE', #1216, 0.2999999999999999889 ) ;
#25 = DIRECTION ( 'NONE',  ( 1.000000000000000000, 0.0000000000000000000, 0.0000000000000000000 ) ) ;
#26 = EDGE_LOOP ( 'NONE', ( #56, #1118 ) ) ;
#27 = CARTESIAN_POINT ( 'NONE',  ( 6.376514919853691401E-14, -0.7500000000000001110, 3.000000000000000444 ) ) ;
#28 = ORIENTED_EDGE ( 'NONE', *, *, #1198, .F. ) ;
#29 = DIRECTION ( 'NONE',  ( -0.0000000000000000000, 0.0000000000000000000, 1.000000000000000000 ) ) ;
#30 = EDGE_LOOP ( 'NONE', ( #1132, #368 ) ) ;
#31 = DIRECTION ( 'NONE',  ( -0.0000000000000000000, 0.0000000000000000000, 1.000000000000000000 ) ) ;
#32 = AXIS2_PLACEMENT_3D ( 'NONE', #248, #239, #615 ) ;
#33 = DIRECTION ( 'NONE',  ( -0.0000000000000000000, -0.0000000000000000000, 1.000000000000000000 ) ) ;
#34 = ORIENTED_EDGE ( 'NONE', *, *, #1190, .T. ) ;
#35 = DIRECTION ( 'NONE',  ( -1.000000000000000000, 0.0000000000000000000, -0.0000000000000000000 ) ) ;
#36 = VECTOR ( 'NONE', #147, 39.37007874015748143 ) ;
#37 = ORIENTED_EDGE ( 'NONE', *, *, #11, .F. ) ;
#38 = CARTESIAN_POINT ( 'NONE',  ( -0.2999999999999999889, 0.0000000000000000000, 2.899999999999999467 ) ) ;
#39 = ORIENTED_EDGE ( 'NONE', *, *, #1036, .F. ) ;
#40 = EDGE_CURVE ( 'NONE', #997, #484, #1245, .T. ) ;
#41 = CARTESIAN_POINT ( 'NONE',  ( 0.0000000000000000000, 0.7500000000000001110, 3.000000000000000444 ) ) ;
#42 = CARTESIAN_POINT ( 'NONE',  ( 0.05000000000012978091, -0.7500000000000001110, 3.000000000000000444 ) ) ;
#43 = VERTEX_POINT ( 'NONE', #265 ) ;
#44 = FACE_BOUND ( 'NONE', #1128, .T. ) ;
#45 = EDGE_LOOP ( 'NONE', ( #718, #1125 ) ) ;
#46 = AXIS2_PLACEMENT_3D ( 'NONE', #1068, #1059, #565 ) ;
#47 = ORIENTED_EDGE ( 'NONE', *, *, #933, .T. ) ;
#48 = DIRECTION ( 'NONE',  ( -0.0000000000000000000, -0.0000000000000000000, -1.000000000000000000 ) ) ;
#49 = VERTEX_POINT ( 'NONE', #1141 ) ;
#50 = CLOSED_SHELL ( 'NONE', ( #869, #692, #396, #1052, #350, #509, #469, #286, #59, #306, #1191, #383, #1063, #111, #227, #684, #856, #889, #1259, #164, #638, #1096, #1062, #786, #934, #92, #468, #261, #807, #251, #209, #780, #1176, #829, #476, #105 ) ) ;
#51 = FACE_OUTER_BOUND ( 'NONE', #114, .T. ) ;
#52 = EDGE_LOOP ( 'NONE', ( #588, #814, #886, #1101 ) ) ;
#53 = CARTESIAN_POINT ( 'NONE',  ( -1.500000000000000222, 0.0000000000000000000, 3.000000000000000444 ) ) ;
#54 = VERTEX_POINT ( 'NONE', #861 ) ;
#55 = CARTESIAN_POINT ( 'NONE',  ( -0.6999999999999207967, -3.196829987520877287E-14, 3.000000000000000444 ) ) ;
#56 = ORIENTED_EDGE ( 'NONE', *, *, #20, .T. ) ;
#57 = CYLINDRICAL_SURFACE ( 'NONE', #1142, 0.05000000000003224782 ) ;
#58 = ORIENTED_EDGE ( 'NONE', *, *, #365, .T. ) ;
#59 = ADVANCED_FACE ( 'NONE', ( #63 ), #643, .F. ) ;
#60 = APPLICATION_PROTOCOL_DEFINITION ( 'draft international standard', 'automotive_design', 1998, #712 ) ;
#61 = CARTESIAN_POINT ( 'NONE',  ( 0.0000000000000000000, 0.0000000000000000000, 0.0000000000000000000 ) ) ;
#62 = AXIS2_PLACEMENT_3D ( 'NONE', #420, #153, #805 ) ;
#63 = FACE_OUTER_BOUND ( 'NONE', #1110, .T. ) ;
#64 = STYLED_ITEM ( 'NONE', ( #75 ), #738 ) ;
#65 = MANIFOLD_SOLID_BREP ( 'Cut-Extrude1', #50 ) ;
#66 = CARTESIAN_POINT ( 'NONE',  ( 0.0000000000000000000, 0.7500000000000001110, 3.000000000000000444 ) ) ;
#67 = VERTEX_POINT ( 'NONE', #852 ) ;
#68 = PRODUCT_DEFINITION ( 'UNKNOWN', '', #494, #641 ) ;
#69 = EDGE_CURVE ( 'NONE', #240, #43, #232, .T. ) ;
#70 = VECTOR ( 'NONE', #699, 39.37007874015748143 ) ;
#71 = SURFACE_STYLE_USAGE ( .BOTH. , #541 ) ;
#72 = AXIS2_PLACEMENT_3D ( 'NONE', #278, #653, #1149 ) ;
#73 = CARTESIAN_POINT ( 'NONE',  ( -0.2000000000000000111, 0.0000000000000000000, 0.0000000000000000000 ) ) ;
#74 = ORIENTED_EDGE ( 'NONE', *, *, #157, .F. ) ;
#75 = PRESENTATION_STYLE_ASSIGNMENT (( #370 ) ) ;
#76 = CARTESIAN_POINT ( 'NONE',  ( 0.7500000000000318634, 3.188257459926845700E-14, 3.000000000000000444 ) ) ;
#77 = CARTESIAN_POINT ( 'NONE',  ( 0.0000000000000000000, 0.0000000000000000000, 0.0000000000000000000 ) ) ;
#78 = AXIS2_PLACEMENT_3D ( 'NONE', #569, #980, #482 ) ;
#79 = SURFACE_SIDE_STYLE ('',( #546 ) ) ;
#80 = DIRECTION ( 'NONE',  ( -1.000000000000000000, 0.0000000000000000000, 0.0000000000000000000 ) ) ;
#81 = DIRECTION ( 'NONE',  ( -1.000000000000000000, 0.0000000000000000000, 0.0000000000000000000 ) ) ;
#82 = EDGE_CURVE ( 'NONE', #1153, #574, #260, .T. ) ;
#83 = AXIS2_PLACEMENT_3D ( 'NONE', #511, #330, #620 ) ;
#84 = DIRECTION ( 'NONE',  ( -1.000000000000000000, 0.0000000000000000000, 0.0000000000000000000 ) ) ;
#85 = DIRECTION ( 'NONE',  ( -0.0000000000000000000, -0.0000000000000000000, -1.000000000000000000 ) ) ;
#86 = CARTESIAN_POINT ( 'NONE',  ( 0.2000000000000000111, 2.449293598294706229E-17, 3.000000000000000444 ) ) ;
#87 = AXIS2_PLACEMENT_3D ( 'NONE', #1264, #649, #1169 ) ;
#88 = DIRECTION ( 'NONE',  ( -1.000000000000000000, 0.0000000000000000000, 0.0000000000000000000 ) ) ;
#89 = DIRECTION ( 'NONE',  ( -0.0000000000000000000, -0.0000000000000000000, -1.000000000000000000 ) ) ;
#90 = DIRECTION ( 'NONE',  ( -0.0000000000000000000, 0.0000000000000000000, 1.000000000000000000 ) ) ;
#91 = CARTESIAN_POINT ( 'NONE',  ( -1.500000000000000222, 0.0000000000000000000, 0.0000000000000000000 ) ) ;
#92 = ADVANCED_FACE ( 'NONE', ( #465 ), #637, .F. ) ;
#93 = DIRECTION ( 'NONE',  ( 1.000000000000000000, 0.0000000000000000000, 0.0000000000000000000 ) ) ;
#94 = AXIS2_PLACEMENT_3D ( 'NONE', #382, #1262, #756 ) ;
#95 = DIRECTION ( 'NONE',  ( -1.000000000000000000, 0.0000000000000000000, 0.0000000000000000000 ) ) ;
#96 = AXIS2_PLACEMENT_3D ( 'NONE', #1193, #503, #984 ) ;
#97 = DIRECTION ( 'NONE',  ( -0.0000000000000000000, -0.0000000000000000000, -1.000000000000000000 ) ) ;
#98 = ORIENTED_EDGE ( 'NONE', *, *, #1070, .T. ) ;
#99 = CYLINDRICAL_SURFACE ( 'NONE', #325, 1.500000000000000222 ) ;
#100 = VECTOR ( 'NONE', #1246, 39.37007874015748143 ) ;
#101 = FACE_BOUND ( 'NONE', #118, .T. ) ;
#102 = EDGE_LOOP ( 'NONE', ( #413, #619 ) ) ;
#103 = EDGE_LOOP ( 'NONE', ( #343, #235, #154, #1032 ) ) ;
#104 = DIRECTION ( 'NONE',  ( -1.000000000000000000, 0.0000000000000000000, 0.0000000000000000000 ) ) ;
#105 = ADVANCED_FACE ( 'NONE', ( #231, #927, #1040, #716, #44, #1013, #160, #917, #533, #428, #1124, #1207, #131, #143 ), #256, .T. ) ;
#106 = CARTESIAN_POINT ( 'NONE',  ( 0.0000000000000000000, 0.0000000000000000000, 2.899999999999999467 ) ) ;
#107 = EDGE_LOOP ( 'NONE', ( #348, #635, #726, #435 ) ) ;
#108 = VERTEX_POINT ( 'NONE', #1230 ) ;
#109 = DIRECTION ( 'NONE',  ( -0.0000000000000000000, -0.0000000000000000000, -1.000000000000000000 ) ) ;
#110 = CIRCLE ( 'NONE', #496, 0.05000000000006052381 ) ;
#111 = ADVANCED_FACE ( 'NONE', ( #633 ), #335, .F. ) ;
#112 = DIRECTION ( 'NONE',  ( -1.000000000000000000, 0.0000000000000000000, 0.0000000000000000000 ) ) ;
#113 = CIRCLE ( 'NONE', #623, 0.05000000000006052381 ) ;
#114 = EDGE_LOOP ( 'NONE', ( #584, #706, #161, #411 ) ) ;
#115 = DIRECTION ( 'NONE',  ( -0.0000000000000000000, -0.0000000000000000000, -1.000000000000000000 ) ) ;
#116 = VERTEX_POINT ( 'NONE', #349 ) ;
#117 = CYLINDRICAL_SURFACE ( 'NONE', #701, 0.05000000000006601941 ) ;
#118 = EDGE_LOOP ( 'NONE', ( #717, #646 ) ) ;
#119 = CYLINDRICAL_SURFACE ( 'NONE', #1005, 0.05000000000000002359 ) ;
#120 = VECTOR ( 'NONE', #888, 39.37007874015748143 ) ;
#121 = ORIENTED_EDGE ( 'NONE', *, *, #890, .F. ) ;
#122 = FACE_OUTER_BOUND ( 'NONE', #418, .T. ) ;
#123 = CIRCLE ( 'NONE', #139, 0.05000000000001845329 ) ;
#124 = ORIENTED_EDGE ( 'NONE', *, *, #573, .T. ) ;
#125 = CYLINDRICAL_SURFACE ( 'NONE', #859, 0.05000000000005676987 ) ;
#126 = EDGE_LOOP ( 'NONE', ( #253, #515, #321, #1250 ) ) ;
#127 = DIMENSIONAL_EXPONENTS ( 1.000000000000000000, 0.0000000000000000000, 0.0000000000000000000, 0.0000000000000000000, 0.0000000000000000000, 0.0000000000000000000, 0.0000000000000000000 ) ;
#128 = CARTESIAN_POINT ( 'NONE',  ( 0.5995190528383360640, 0.3750000000000277001, 3.000000000000000444 ) ) ;
#129 = DIRECTION ( 'NONE',  ( -1.000000000000000000, 0.0000000000000000000, 0.0000000000000000000 ) ) ;
#130 = VERTEX_POINT ( 'NONE', #731 ) ;
#131 = FACE_BOUND ( 'NONE', #247, .T. ) ;
#132 = EDGE_CURVE ( 'NONE', #223, #490, #956, .T. ) ;
#133 = EDGE_CURVE ( 'NONE', #142, #197, #123, .T. ) ;
#134 = PRODUCT ( 'DischargeChamber', 'DischargeChamber', '', ( #242 ) ) ;
#135 = VERTEX_POINT ( 'NONE', #516 ) ;
#136 = LINE ( 'NONE', #931, #385 ) ;
#137 = ORIENTED_EDGE ( 'NONE', *, *, #840, .F. ) ;
#138 = DIRECTION ( 'NONE',  ( 1.000000000000000000, 0.0000000000000000000, 0.0000000000000000000 ) ) ;
#139 = AXIS2_PLACEMENT_3D ( 'NONE', #1133, #436, #626 ) ;
#140 = CIRCLE ( 'NONE', #1078, 0.05000000000005676987 ) ;
#141 = CARTESIAN_POINT ( 'NONE',  ( -0.8000000000000156986, -3.197442310920451468E-14, 3.000000000000000444 ) ) ;
#142 = VERTEX_POINT ( 'NONE', #820 ) ;
#143 = FACE_OUTER_BOUND ( 'NONE', #302, .T. ) ;
#144 = ORIENTED_EDGE ( 'NONE', *, *, #1026, .T. ) ;
#145 =( GEOMETRIC_REPRESENTATION_CONTEXT ( 3 ) GLOBAL_UNCERTAINTY_ASSIGNED_CONTEXT ( ( #746 ) ) GLOBAL_UNIT_ASSIGNED_CONTEXT ( ( #832, #647, #176 ) ) REPRESENTATION_CONTEXT ( 'NONE', 'WORKASPACE' ) );
#146 = VERTEX_POINT ( 'NONE', #938 ) ;
#147 = DIRECTION ( 'NONE',  ( -0.0000000000000000000, -0.0000000000000000000, -1.000000000000000000 ) ) ;
#148 = ORIENTED_EDGE ( 'NONE', *, *, #561, .T. ) ;
#149 = CARTESIAN_POINT ( 'NONE',  ( -0.4250000000000081490, -0.6495190528383452122, 3.000000000000000444 ) ) ;
#150 = VERTEX_POINT ( 'NONE', #53 ) ;
#151 = CARTESIAN_POINT ( 'NONE',  ( 0.0000000000000000000, 0.0000000000000000000, 2.899999999999999467 ) ) ;
#152 = ORIENTED_EDGE ( 'NONE', *, *, #17, .T. ) ;
#153 = DIRECTION ( 'NONE',  ( -0.0000000000000000000, -0.0000000000000000000, -1.000000000000000000 ) ) ;
#154 = ORIENTED_EDGE ( 'NONE', *, *, #933, .F. ) ;
#155 = AXIS2_PLACEMENT_3D ( 'NONE', #271, #961, #754 ) ;
#156 = EDGE_CURVE ( 'NONE', #43, #240, #749, .T. ) ;
#157 = EDGE_CURVE ( 'NONE', #394, #1201, #678, .T. ) ;
#158 = DIRECTION ( 'NONE',  ( -0.0000000000000000000, -0.0000000000000000000, 1.000000000000000000 ) ) ;
#159 = ORIENTED_EDGE ( 'NONE', *, *, #1240, .T. ) ;
#160 = FACE_BOUND ( 'NONE', #773, .T. ) ;
#161 = ORIENTED_EDGE ( 'NONE', *, *, #988, .T. ) ;
#162 = CYLINDRICAL_SURFACE ( 'NONE', #875, 0.05000000000000889150 ) ;
#163 = CARTESIAN_POINT ( 'NONE',  ( 0.3250000000000029532, -0.6495190528383129047, 2.899999999999999467 ) ) ;
#164 = ADVANCED_FACE ( 'NONE', ( #1215 ), #608, .F. ) ;
#165 = EDGE_CURVE ( 'NONE', #691, #43, #1020, .T. ) ;
#166 = DIRECTION ( 'NONE',  ( -0.0000000000000000000, -0.0000000000000000000, -1.000000000000000000 ) ) ;
#167 = ORIENTED_EDGE ( 'NONE', *, *, #957, .T. ) ;
#168 = AXIS2_PLACEMENT_3D ( 'NONE', #106, #1090, #387 ) ;
#169 =( NAMED_UNIT ( * ) SI_UNIT ( $, .STERADIAN. ) SOLID_ANGLE_UNIT ( ) );
#170 = FILL_AREA_STYLE_COLOUR ( '', #406 ) ;
#171 = CYLINDRICAL_SURFACE ( 'NONE', #892, 0.05000000000004112960 ) ;
#172 = ORIENTED_EDGE ( 'NONE', *, *, #1190, .F. ) ;
#173 = AXIS2_PLACEMENT_3D ( 'NONE', #174, #466, #473 ) ;
#174 = CARTESIAN_POINT ( 'NONE',  ( 0.6495190528383448791, 0.3750000000000277001, 2.899999999999999467 ) ) ;
#175 = CARTESIAN_POINT ( 'NONE',  ( 0.4250000000001165068, -0.6495190528383129047, 2.899999999999999467 ) ) ;
#176 =( NAMED_UNIT ( * ) SI_UNIT ( $, .STERADIAN. ) SOLID_ANGLE_UNIT ( ) );
#177 = EDGE_CURVE ( 'NONE', #490, #223, #918, .T. ) ;
#178 = DIRECTION ( 'NONE',  ( -0.0000000000000000000, -0.0000000000000000000, -1.000000000000000000 ) ) ;
#179 = DIRECTION ( 'NONE',  ( -1.000000000000000000, 0.0000000000000000000, 0.0000000000000000000 ) ) ;
#180 = AXIS2_PLACEMENT_3D ( 'NONE', #898, #779, #112 ) ;
#181 = CARTESIAN_POINT ( 'NONE',  ( 0.0000000000000000000, 0.0000000000000000000, 3.000000000000000444 ) ) ;
#182 = DIRECTION ( 'NONE',  ( 1.000000000000000000, 0.0000000000000000000, 0.0000000000000000000 ) ) ;
#183 = AXIS2_PLACEMENT_3D ( 'NONE', #1213, #915, #736 ) ;
#184 = CARTESIAN_POINT ( 'NONE',  ( 0.4250000000001165068, -0.6495190528383129047, 3.000000000000000444 ) ) ;
#185 = CIRCLE ( 'NONE', #1134, 0.05000000000000889150 ) ;
#186 = CARTESIAN_POINT ( 'NONE',  ( -0.3249999999999776956, 0.6495190528383127937, 3.000000000000000444 ) ) ;
#187 = DIRECTION ( 'NONE',  ( 1.000000000000000000, 0.0000000000000000000, 0.0000000000000000000 ) ) ;
#188 = EDGE_CURVE ( 'NONE', #142, #196, #508, .T. ) ;
#189 = LINE ( 'NONE', #1257, #1126 ) ;
#190 = AXIS2_PLACEMENT_3D ( 'NONE', #947, #359, #723 ) ;
#191 = CYLINDRICAL_SURFACE ( 'NONE', #979, 1.500000000000000222 ) ;
#192 = CARTESIAN_POINT ( 'NONE',  ( 0.3750000000000007772, 0.6495190528383285589, 3.000000000000000444 ) ) ;
#193 = CYLINDRICAL_SURFACE ( 'NONE', #78, 0.05000000000006776107 ) ;
#194 = EDGE_CURVE ( 'NONE', #394, #796, #559, .T. ) ;
#195 = AXIS2_PLACEMENT_3D ( 'NONE', #669, #1072, #93 ) ;
#196 = VERTEX_POINT ( 'NONE', #480 ) ;
#197 = VERTEX_POINT ( 'NONE', #186 ) ;
#198 = LINE ( 'NONE', #389, #120 ) ;
#199 = CIRCLE ( 'NONE', #1028, 1.500000000000000222 ) ;
#200 = FACE_BOUND ( 'NONE', #1002, .T. ) ;
#201 = ORIENTED_EDGE ( 'NONE', *, *, #975, .T. ) ;
#202 = VERTEX_POINT ( 'NONE', #967 ) ;
#203 = DIRECTION ( 'NONE',  ( -0.0000000000000000000, 0.0000000000000000000, 1.000000000000000000 ) ) ;
#204 = CIRCLE ( 'NONE', #581, 1.500000000000000222 ) ;
#205 = FACE_BOUND ( 'NONE', #730, .T. ) ;
#206 = ORIENTED_EDGE ( 'NONE', *, *, #1069, .T. ) ;
#207 = VERTEX_POINT ( 'NONE', #1092 ) ;
#208 = EDGE_CURVE ( 'NONE', #1237, #983, #1168, .T. ) ;
#209 = ADVANCED_FACE ( 'NONE', ( #663 ), #1099, .F. ) ;
#210 = CARTESIAN_POINT ( 'NONE',  ( 0.3250000000000029532, -0.6495190528383129047, 3.000000000000000444 ) ) ;
#211 = DIRECTION ( 'NONE',  ( -0.0000000000000000000, -0.0000000000000000000, -1.000000000000000000 ) ) ;
#212 = ORIENTED_EDGE ( 'NONE', *, *, #485, .T. ) ;
#213 = CYLINDRICAL_SURFACE ( 'NONE', #220, 0.05000000000006052381 ) ;
#214 = EDGE_LOOP ( 'NONE', ( #1232, #695 ) ) ;
#215 = CARTESIAN_POINT ( 'NONE',  ( 0.7000000000000080602, 3.188257459926845700E-14, 3.000000000000000444 ) ) ;
#216 = DIRECTION ( 'NONE',  ( -0.0000000000000000000, 0.0000000000000000000, 1.000000000000000000 ) ) ;
#217 = AXIS2_PLACEMENT_3D ( 'NONE', #1042, #1015, #264 ) ;
#218 = ORIENTED_EDGE ( 'NONE', *, *, #743, .T. ) ;
#219 = DIRECTION ( 'NONE',  ( -0.0000000000000000000, -0.0000000000000000000, -1.000000000000000000 ) ) ;
#220 = AXIS2_PLACEMENT_3D ( 'NONE', #996, #115, #380 ) ;
#221 = ORIENTED_EDGE ( 'NONE', *, *, #1104, .T. ) ;
#222 = DIRECTION ( 'NONE',  ( -1.000000000000000000, 0.0000000000000000000, 0.0000000000000000000 ) ) ;
#223 = VERTEX_POINT ( 'NONE', #285 ) ;
#224 = PRODUCT_DEFINITION_SHAPE ( 'NONE', 'NONE',  #68 ) ;
#225 = CARTESIAN_POINT ( 'NONE',  ( 0.5995190528383358419, -0.3749999999999722999, 3.000000000000000444 ) ) ;
#226 = EDGE_CURVE ( 'NONE', #150, #130, #300, .T. ) ;
#227 = ADVANCED_FACE ( 'NONE', ( #901 ), #1067, .F. ) ;
#228 = AXIS2_PLACEMENT_3D ( 'NONE', #287, #279, #95 ) ;
#229 = DIRECTION ( 'NONE',  ( -0.0000000000000000000, -0.0000000000000000000, -1.000000000000000000 ) ) ;
#230 = ORIENTED_EDGE ( 'NONE', *, *, #1036, .T. ) ;
#231 = FACE_BOUND ( 'NONE', #681, .T. ) ;
#232 = CIRCLE ( 'NONE', #72, 0.05000000000000002359 ) ;
#233 = VERTEX_POINT ( 'NONE', #567 ) ;
#234 = CARTESIAN_POINT ( 'NONE',  ( -0.3749999999999403810, -0.6495190528383452122, 3.000000000000000444 ) ) ;
#235 = ORIENTED_EDGE ( 'NONE', *, *, #419, .T. ) ;
#236 = LINE ( 'NONE', #522, #277 ) ;
#237 = FACE_OUTER_BOUND ( 'NONE', #812, .T. ) ;
#238 = EDGE_LOOP ( 'NONE', ( #336, #543, #520, #39 ) ) ;
#239 = DIRECTION ( 'NONE',  ( -0.0000000000000000000, -0.0000000000000000000, -1.000000000000000000 ) ) ;
#240 = VERTEX_POINT ( 'NONE', #501 ) ;
#241 = VERTEX_POINT ( 'NONE', #866 ) ;
#242 = PRODUCT_CONTEXT ( 'NONE', #650, 'mechanical' ) ;
#243 = CARTESIAN_POINT ( 'NONE',  ( -0.5995190528382204898, -0.3750000000000279776, 3.000000000000000444 ) ) ;
#244 = CARTESIAN_POINT ( 'NONE',  ( 0.8000000000000556666, 3.188869783326419881E-14, 3.000000000000000444 ) ) ;
#245 = CIRCLE ( 'NONE', #1231, 0.05000000000005676987 ) ;
#246 = CARTESIAN_POINT ( 'NONE',  ( -1.399999999999999911, 0.0000000000000000000, 2.899999999999999467 ) ) ;
#247 = EDGE_LOOP ( 'NONE', ( #18, #598 ) ) ;
#248 = CARTESIAN_POINT ( 'NONE',  ( 0.7500000000000318634, 3.188257459926845700E-14, 3.000000000000000444 ) ) ;
#249 = ORIENTED_EDGE ( 'NONE', *, *, #788, .F. ) ;
#250 = FACE_OUTER_BOUND ( 'NONE', #831, .T. ) ;
#251 = ADVANCED_FACE ( 'NONE', ( #878 ), #191, .T. ) ;
#252 = VECTOR ( 'NONE', #1138, 39.37007874015748143 ) ;
#253 = ORIENTED_EDGE ( 'NONE', *, *, #323, .F. ) ;
#254 = DIRECTION ( 'NONE',  ( -0.0000000000000000000, -0.0000000000000000000, -1.000000000000000000 ) ) ;
#255 = ORIENTED_EDGE ( 'NONE', *, *, #1080, .F. ) ;
#256 = PLANE ( 'NONE',  #739 ) ;
#257 = ORIENTED_EDGE ( 'NONE', *, *, #975, .F. ) ;
#258 = FACE_OUTER_BOUND ( 'NONE', #987, .T. ) ;
#259 = DIRECTION ( 'NONE',  ( -0.0000000000000000000, -0.0000000000000000000, 1.000000000000000000 ) ) ;
#260 = CIRCLE ( 'NONE', #671, 0.05000000000006776107 ) ;
#261 = ADVANCED_FACE ( 'NONE', ( #696 ), #972, .F. ) ;
#262 = CARTESIAN_POINT ( 'NONE',  ( 6.376514919853691401E-14, -0.7500000000000001110, 2.899999999999999467 ) ) ;
#263 = ORIENTED_EDGE ( 'NONE', *, *, #132, .F. ) ;
#264 = DIRECTION ( 'NONE',  ( -1.000000000000000000, 0.0000000000000000000, 0.0000000000000000000 ) ) ;
#265 = CARTESIAN_POINT ( 'NONE',  ( 0.05000000000000002359, 0.7500000000000001110, 2.899999999999999467 ) ) ;
#266 = CARTESIAN_POINT ( 'NONE',  ( 0.3750000000000597300, -0.6495190528383129047, 2.899999999999999467 ) ) ;
#267 = ORIENTED_EDGE ( 'NONE', *, *, #208, .F. ) ;
#268 = CIRCLE ( 'NONE', #834, 1.399999999999999911 ) ;
#269 = UNCERTAINTY_MEASURE_WITH_UNIT (LENGTH_MEASURE( 1.000000000000000082E-05 ), #452, 'distance_accuracy_value', 'NONE');
#270 = AXIS2_PLACEMENT_3D ( 'NONE', #790, #591, #1269 ) ;
#271 = CARTESIAN_POINT ( 'NONE',  ( 0.3750000000000597300, -0.6495190528383129047, 2.899999999999999467 ) ) ;
#272 = FACE_OUTER_BOUND ( 'NONE', #528, .T. ) ;
#273 = CARTESIAN_POINT ( 'NONE',  ( -0.4250000000000081490, -0.6495190528383452122, 2.899999999999999467 ) ) ;
#274 = VERTEX_POINT ( 'NONE', #388 ) ;
#275 = EDGE_CURVE ( 'NONE', #334, #484, #597, .T. ) ;
#276 =( LENGTH_UNIT ( ) NAMED_UNIT ( * ) SI_UNIT ( $, .METRE. ) );
#277 = VECTOR ( 'NONE', #612, 39.37007874015748143 ) ;
#278 = CARTESIAN_POINT ( 'NONE',  ( 0.0000000000000000000, 0.7500000000000001110, 2.899999999999999467 ) ) ;
#279 = DIRECTION ( 'NONE',  ( -0.0000000000000000000, -0.0000000000000000000, 1.000000000000000000 ) ) ;
#280 = DIRECTION ( 'NONE',  ( -0.0000000000000000000, -0.0000000000000000000, 1.000000000000000000 ) ) ;
#281 = CARTESIAN_POINT ( 'NONE',  ( -0.8000000000000156986, -3.197442310920451468E-14, 3.000000000000000444 ) ) ;
#282 = DIRECTION ( 'NONE',  ( -0.0000000000000000000, 0.0000000000000000000, 1.000000000000000000 ) ) ;
#283 = LINE ( 'NONE', #868, #557 ) ;
#284 = AXIS2_PLACEMENT_3D ( 'NONE', #578, #994, #492 ) ;
#285 = CARTESIAN_POINT ( 'NONE',  ( 0.6995190528384180872, -0.3749999999999722999, 3.000000000000000444 ) ) ;
#286 = ADVANCED_FACE ( 'NONE', ( #1172 ), #213, .F. ) ;
#287 = CARTESIAN_POINT ( 'NONE',  ( 0.6495190528383769646, -0.3749999999999722999, 2.899999999999999467 ) ) ;
#288 = AXIS2_PLACEMENT_3D ( 'NONE', #27, #759, #762 ) ;
#289 = CARTESIAN_POINT ( 'NONE',  ( -0.6495190528383133488, 0.3749999999999719669, 3.000000000000000444 ) ) ;
#290 = DIRECTION ( 'NONE',  ( 1.000000000000000000, 0.0000000000000000000, 0.0000000000000000000 ) ) ;
#291 = DIRECTION ( 'NONE',  ( -1.000000000000000000, 0.0000000000000000000, 0.0000000000000000000 ) ) ;
#292 = AXIS2_PLACEMENT_3D ( 'NONE', #192, #552, #568 ) ;
#293 = EDGE_CURVE ( 'NONE', #1091, #1012, #665, .T. ) ;
#294 = DIRECTION ( 'NONE',  ( -0.0000000000000000000, 0.0000000000000000000, 1.000000000000000000 ) ) ;
#295 = DIRECTION ( 'NONE',  ( -0.0000000000000000000, -0.0000000000000000000, -1.000000000000000000 ) ) ;
#296 = VERTEX_POINT ( 'NONE', #1003 ) ;
#297 = EDGE_LOOP ( 'NONE', ( #616, #821, #798, #1229 ) ) ;
#298 = DIRECTION ( 'NONE',  ( -0.0000000000000000000, -0.0000000000000000000, -1.000000000000000000 ) ) ;
#299 = CARTESIAN_POINT ( 'NONE',  ( 0.3250000000000008438, 0.6495190528383285589, 3.000000000000000444 ) ) ;
#300 = CIRCLE ( 'NONE', #1147, 1.500000000000000222 ) ;
#301 = ORIENTED_EDGE ( 'NONE', *, *, #439, .T. ) ;
#302 = EDGE_LOOP ( 'NONE', ( #1107, #314 ) ) ;
#303 = AXIS2_PLACEMENT_3D ( 'NONE', #1171, #294, #673 ) ;
#304 = DIRECTION ( 'NONE',  ( -0.0000000000000000000, -0.0000000000000000000, -1.000000000000000000 ) ) ;
#305 = DIRECTION ( 'NONE',  ( -0.0000000000000000000, -0.0000000000000000000, -1.000000000000000000 ) ) ;
#306 = ADVANCED_FACE ( 'NONE', ( #122 ), #908, .F. ) ;
#307 = ORIENTED_EDGE ( 'NONE', *, *, #456, .T. ) ;
#308 = ORIENTED_EDGE ( 'NONE', *, *, #275, .T. ) ;
#309 = DIRECTION ( 'NONE',  ( -1.000000000000000000, 0.0000000000000000000, 0.0000000000000000000 ) ) ;
#310 = CIRCLE ( 'NONE', #228, 0.05000000000004112960 ) ;
#311 = FACE_BOUND ( 'NONE', #1098, .T. ) ;
#312 = MECHANICAL_DESIGN_GEOMETRIC_PRESENTATION_REPRESENTATION (  '', ( #865 ), #1037 ) ;
#313 = EDGE_LOOP ( 'NONE', ( #675, #206, #438, #28 ) ) ;
#314 = ORIENTED_EDGE ( 'NONE', *, *, #734, .T. ) ;
#315 = DIRECTION ( 'NONE',  ( -0.0000000000000000000, -0.0000000000000000000, -1.000000000000000000 ) ) ;
#316 = DIRECTION ( 'NONE',  ( 0.0000000000000000000, 0.0000000000000000000, -1.000000000000000000 ) ) ;
#317 = EDGE_LOOP ( 'NONE', ( #1082, #945 ) ) ;
#318 = DIRECTION ( 'NONE',  ( -0.0000000000000000000, -0.0000000000000000000, -1.000000000000000000 ) ) ;
#319 = ORIENTED_EDGE ( 'NONE', *, *, #1144, .F. ) ;
#320 = LINE ( 'NONE', #676, #464 ) ;
#321 = ORIENTED_EDGE ( 'NONE', *, *, #188, .T. ) ;
#322 = CIRCLE ( 'NONE', #1148, 0.2999999999999999889 ) ;
#323 = EDGE_CURVE ( 'NONE', #197, #241, #1163, .T. ) ;
#324 = CARTESIAN_POINT ( 'NONE',  ( 0.0000000000000000000, 0.0000000000000000000, 2.899999999999999467 ) ) ;
#325 = AXIS2_PLACEMENT_3D ( 'NONE', #774, #109, #222 ) ;
#326 = CARTESIAN_POINT ( 'NONE',  ( 0.6995190528384180872, -0.3749999999999722999, 3.000000000000000444 ) ) ;
#327 = ORIENTED_EDGE ( 'NONE', *, *, #544, .T. ) ;
#328 = DIRECTION ( 'NONE',  ( -0.0000000000000000000, -0.0000000000000000000, -1.000000000000000000 ) ) ;
#329 = ORIENTED_EDGE ( 'NONE', *, *, #1143, .F. ) ;
#330 = DIRECTION ( 'NONE',  ( -0.0000000000000000000, -0.0000000000000000000, 1.000000000000000000 ) ) ;
#331 = ORIENTED_EDGE ( 'NONE', *, *, #743, .F. ) ;
#332 = FACE_OUTER_BOUND ( 'NONE', #1087, .T. ) ;
#333 = CARTESIAN_POINT ( 'NONE',  ( 0.6495190528383448791, 0.3750000000000277001, 3.000000000000000444 ) ) ;
#334 = VERTEX_POINT ( 'NONE', #1018 ) ;
#335 = CYLINDRICAL_SURFACE ( 'NONE', #1242, 0.05000000000000889150 ) ;
#336 = ORIENTED_EDGE ( 'NONE', *, *, #379, .T. ) ;
#337 = CARTESIAN_POINT ( 'NONE',  ( 0.7000000000000080602, 3.188257459926845700E-14, 2.899999999999999467 ) ) ;
#338 = ORIENTED_EDGE ( 'NONE', *, *, #1161, .F. ) ;
#339 = DIRECTION ( 'NONE',  ( -1.000000000000000000, 0.0000000000000000000, 0.0000000000000000000 ) ) ;
#340 = VERTEX_POINT ( 'NONE', #836 ) ;
#341 = DIRECTION ( 'NONE',  ( -1.000000000000000000, 0.0000000000000000000, 0.0000000000000000000 ) ) ;
#342 = ORIENTED_EDGE ( 'NONE', *, *, #410, .F. ) ;
#343 = ORIENTED_EDGE ( 'NONE', *, *, #177, .T. ) ;
#344 = ORIENTED_EDGE ( 'NONE', *, *, #713, .F. ) ;
#345 = CIRCLE ( 'NONE', #94, 0.05000000000002378236 ) ;
#346 = AXIS2_PLACEMENT_3D ( 'NONE', #1228, #1131, #25 ) ;
#347 = FACE_OUTER_BOUND ( 'NONE', #1211, .T. ) ;
#348 = ORIENTED_EDGE ( 'NONE', *, *, #573, .F. ) ;
#349 = CARTESIAN_POINT ( 'NONE',  ( 0.2000000000000000111, 2.449293598294706229E-17, 3.000000000000000444 ) ) ;
#350 = ADVANCED_FACE ( 'NONE', ( #1043 ), #936, .F. ) ;
#351 = EDGE_CURVE ( 'NONE', #574, #1153, #732, .T. ) ;
#352 = ORIENTED_EDGE ( 'NONE', *, *, #757, .T. ) ;
#353 = AXIS2_PLACEMENT_3D ( 'NONE', #19, #408, #599 ) ;
#354 = VERTEX_POINT ( 'NONE', #1038 ) ;
#355 = DIRECTION ( 'NONE',  ( -0.0000000000000000000, -0.0000000000000000000, -1.000000000000000000 ) ) ;
#356 = ORIENTED_EDGE ( 'NONE', *, *, #20, .F. ) ;
#357 = UNCERTAINTY_MEASURE_WITH_UNIT (LENGTH_MEASURE( 1.000000000000000082E-05 ), #362, 'distance_accuracy_value', 'NONE');
#358 = LINE ( 'NONE', #1233, #36 ) ;
#359 = DIRECTION ( 'NONE',  ( -0.0000000000000000000, -0.0000000000000000000, -1.000000000000000000 ) ) ;
#360 = LINE ( 'NONE', #184, #571 ) ;
#361 = EDGE_LOOP ( 'NONE', ( #590, #416 ) ) ;
#362 =( CONVERSION_BASED_UNIT ( 'INCH', #1058 ) LENGTH_UNIT ( ) NAMED_UNIT ( #1004 ) );
#363 = PRESENTATION_STYLE_ASSIGNMENT (( #71 ) ) ;
#364 = DIRECTION ( 'NONE',  ( -0.0000000000000000000, -0.0000000000000000000, 1.000000000000000000 ) ) ;
#365 = EDGE_CURVE ( 'NONE', #1112, #207, #894, .T. ) ;
#366 = VECTOR ( 'NONE', #89, 39.37007874015748143 ) ;
#367 = CARTESIAN_POINT ( 'NONE',  ( -0.6495190528383133488, 0.3749999999999719669, 3.000000000000000444 ) ) ;
#368 = ORIENTED_EDGE ( 'NONE', *, *, #1053, .T. ) ;
#369 = CIRCLE ( 'NONE', #644, 0.05000000000006601941 ) ;
#370 = SURFACE_STYLE_USAGE ( .BOTH. , #79 ) ;
#371 = VECTOR ( 'NONE', #725, 39.37007874015748143 ) ;
#372 = DIRECTION ( 'NONE',  ( -0.0000000000000000000, -0.0000000000000000000, -1.000000000000000000 ) ) ;
#373 = CYLINDRICAL_SURFACE ( 'NONE', #292, 0.04999999999999994726 ) ;
#374 = DIRECTION ( 'NONE',  ( 0.0000000000000000000, 0.0000000000000000000, -1.000000000000000000 ) ) ;
#375 = AXIS2_PLACEMENT_3D ( 'NONE', #481, #768, #187 ) ;
#376 = CARTESIAN_POINT ( 'NONE',  ( 0.0000000000000000000, 0.0000000000000000000, 2.899999999999999467 ) ) ;
#377 = CIRCLE ( 'NONE', #534, 0.05000000000006059320 ) ;
#378 = DIRECTION ( 'NONE',  ( -1.000000000000000000, 0.0000000000000000000, 0.0000000000000000000 ) ) ;
#379 = EDGE_CURVE ( 'NONE', #823, #691, #1249, .T. ) ;
#380 = DIRECTION ( 'NONE',  ( -1.000000000000000000, 0.0000000000000000000, 0.0000000000000000000 ) ) ;
#381 = CARTESIAN_POINT ( 'NONE',  ( 0.4250000000000007105, 0.6495190528383285589, 2.899999999999999467 ) ) ;
#382 = CARTESIAN_POINT ( 'NONE',  ( 0.7500000000000318634, 3.188257459926845700E-14, 3.000000000000000444 ) ) ;
#383 = ADVANCED_FACE ( 'NONE', ( #1205 ), #721, .F. ) ;
#384 = CARTESIAN_POINT ( 'NONE',  ( 0.0000000000000000000, 0.0000000000000000000, 3.000000000000000444 ) ) ;
#385 = VECTOR ( 'NONE', #1033, 39.37007874015748143 ) ;
#386 = CARTESIAN_POINT ( 'NONE',  ( -0.3749999999999961142, 0.6495190528383127937, 2.899999999999999467 ) ) ;
#387 = DIRECTION ( 'NONE',  ( -1.000000000000000000, 0.0000000000000000000, 0.0000000000000000000 ) ) ;
#388 = CARTESIAN_POINT ( 'NONE',  ( 0.5995190528383360640, 0.3750000000000277001, 2.899999999999999467 ) ) ;
#389 = CARTESIAN_POINT ( 'NONE',  ( 1.500000000000000222, 1.836970198721029441E-16, 3.000000000000000444 ) ) ;
#390 = CIRCLE ( 'NONE', #953, 0.05000000000000889150 ) ;
#391 = DIRECTION ( 'NONE',  ( -0.0000000000000000000, 0.0000000000000000000, 1.000000000000000000 ) ) ;
#392 = PRESENTATION_LAYER_ASSIGNMENT (  '', '', ( #865 ) ) ;
#393 = ORIENTED_EDGE ( 'NONE', *, *, #1001, .T. ) ;
#394 = VERTEX_POINT ( 'NONE', #141 ) ;
#395 = CARTESIAN_POINT ( 'NONE',  ( 1.399999999999999911, 1.714505518806294391E-16, 2.899999999999999467 ) ) ;
#396 = ADVANCED_FACE ( 'NONE', ( #237 ), #1106, .F. ) ;
#397 = FACE_BOUND ( 'NONE', #609, .T. ) ;
#398 = ORIENTED_EDGE ( 'NONE', *, *, #656, .T. ) ;
#399 = AXIS2_PLACEMENT_3D ( 'NONE', #1243, #556, #744 ) ;
#400 = CARTESIAN_POINT ( 'NONE',  ( 0.2999999999999999889, 3.673940397442058882E-17, 2.899999999999999467 ) ) ;
#401 = CARTESIAN_POINT ( 'NONE',  ( 6.376514919853691401E-14, -0.7500000000000001110, 3.000000000000000444 ) ) ;
#402 = ORIENTED_EDGE ( 'NONE', *, *, #788, .T. ) ;
#403 = ORIENTED_EDGE ( 'NONE', *, *, #1143, .T. ) ;
#404 = CARTESIAN_POINT ( 'NONE',  ( 0.3750000000000597300, -0.6495190528383129047, 3.000000000000000444 ) ) ;
#405 = DIRECTION ( 'NONE',  ( 0.0000000000000000000, 0.0000000000000000000, -1.000000000000000000 ) ) ;
#406 = COLOUR_RGB ( '',0.7921568627450980005, 0.8196078431372548767, 0.9333333333333333481 ) ;
#407 = ORIENTED_EDGE ( 'NONE', *, *, #1220, .T. ) ;
#408 = DIRECTION ( 'NONE',  ( -0.0000000000000000000, -0.0000000000000000000, 1.000000000000000000 ) ) ;
#409 = EDGE_CURVE ( 'NONE', #354, #1112, #1011, .T. ) ;
#410 = EDGE_CURVE ( 'NONE', #819, #274, #1122, .T. ) ;
#411 = ORIENTED_EDGE ( 'NONE', *, *, #293, .F. ) ;
#412 = FACE_OUTER_BOUND ( 'NONE', #431, .T. ) ;
#413 = ORIENTED_EDGE ( 'NONE', *, *, #69, .T. ) ;
#414 = CARTESIAN_POINT ( 'NONE',  ( 0.0000000000000000000, 0.0000000000000000000, 3.000000000000000444 ) ) ;
#415 = CARTESIAN_POINT ( 'NONE',  ( 1.399999999999999911, 1.714505518806294391E-16, 0.0000000000000000000 ) ) ;
#416 = ORIENTED_EDGE ( 'NONE', *, *, #943, .F. ) ;
#417 = CARTESIAN_POINT ( 'NONE',  ( 0.0000000000000000000, 0.7500000000000001110, 2.899999999999999467 ) ) ;
#418 = EDGE_LOOP ( 'NONE', ( #489, #535, #1030, #827 ) ) ;
#419 = EDGE_CURVE ( 'NONE', #223, #233, #1029, .T. ) ;
#420 = CARTESIAN_POINT ( 'NONE',  ( 0.3750000000000597300, -0.6495190528383129047, 3.000000000000000444 ) ) ;
#421 = AXIS2_PLACEMENT_3D ( 'NONE', #845, #858, #965 ) ;
#422 = EDGE_LOOP ( 'NONE', ( #1244, #301, #1217, #500 ) ) ;
#423 = AXIS2_PLACEMENT_3D ( 'NONE', #367, #960, #88 ) ;
#424 = FACE_OUTER_BOUND ( 'NONE', #851, .T. ) ;
#425 = AXIS2_PLACEMENT_3D ( 'NONE', #580, #989, #104 ) ;
#426 = CARTESIAN_POINT ( 'NONE',  ( 0.0000000000000000000, 0.0000000000000000000, 3.000000000000000444 ) ) ;
#427 = ORIENTED_EDGE ( 'NONE', *, *, #1240, .F. ) ;
#428 = FACE_BOUND ( 'NONE', #317, .T. ) ;
#429 = EDGE_LOOP ( 'NONE', ( #331, #902, #159, #1214 ) ) ;
#430 = PLANE ( 'NONE',  #1151 ) ;
#431 = EDGE_LOOP ( 'NONE', ( #883, #402, #804, #806 ) ) ;
#432 = DIRECTION ( 'NONE',  ( 1.000000000000000000, 0.0000000000000000000, 0.0000000000000000000 ) ) ;
#433 = AXIS2_PLACEMENT_3D ( 'NONE', #755, #853, #1073 ) ;
#434 = DIRECTION ( 'NONE',  ( -0.0000000000000000000, -0.0000000000000000000, -1.000000000000000000 ) ) ;
#435 = ORIENTED_EDGE ( 'NONE', *, *, #82, .F. ) ;
#436 = DIRECTION ( 'NONE',  ( -0.0000000000000000000, 0.0000000000000000000, 1.000000000000000000 ) ) ;
#437 = ORIENTED_EDGE ( 'NONE', *, *, #1198, .T. ) ;
#438 = ORIENTED_EDGE ( 'NONE', *, *, #970, .T. ) ;
#439 = EDGE_CURVE ( 'NONE', #801, #819, #185, .T. ) ;
#440 = EDGE_CURVE ( 'NONE', #929, #334, #448, .T. ) ;
#441 = CARTESIAN_POINT ( 'NONE',  ( -0.6495190528383133488, 0.3749999999999719669, 3.000000000000000444 ) ) ;
#442 = ORIENTED_EDGE ( 'NONE', *, *, #1162, .F. ) ;
#443 = CARTESIAN_POINT ( 'NONE',  ( -0.7499999999999682476, -3.197442310920451468E-14, 3.000000000000000444 ) ) ;
#444 = ORIENTED_EDGE ( 'NONE', *, *, #757, .F. ) ;
#445 = LENGTH_MEASURE_WITH_UNIT ( LENGTH_MEASURE( 0.02539999999999999897 ), #912 );
#446 = ORIENTED_EDGE ( 'NONE', *, *, #1035, .F. ) ;
#447 =( GEOMETRIC_REPRESENTATION_CONTEXT ( 3 ) GLOBAL_UNCERTAINTY_ASSIGNED_CONTEXT ( ( #357 ) ) GLOBAL_UNIT_ASSIGNED_CONTEXT ( ( #362, #860, #169 ) ) REPRESENTATION_CONTEXT ( 'NONE', 'WORKASPACE' ) );
#448 = LINE ( 'NONE', #246, #899 ) ;
#449 = ORIENTED_EDGE ( 'NONE', *, *, #1095, .F. ) ;
#450 = CIRCLE ( 'NONE', #425, 0.05000000000000889150 ) ;
#451 = DIRECTION ( 'NONE',  ( -1.000000000000000000, 0.0000000000000000000, 0.0000000000000000000 ) ) ;
#452 =( CONVERSION_BASED_UNIT ( 'INCH', #1054 ) LENGTH_UNIT ( ) NAMED_UNIT ( #822 ) );
#453 = DIRECTION ( 'NONE',  ( -0.0000000000000000000, 0.0000000000000000000, 1.000000000000000000 ) ) ;
#454 = VERTEX_POINT ( 'NONE', #149 ) ;
#455 = CIRCLE ( 'NONE', #758, 0.04999999999999994726 ) ;
#456 = EDGE_CURVE ( 'NONE', #796, #296, #1238, .T. ) ;
#457 = CARTESIAN_POINT ( 'NONE',  ( 0.0000000000000000000, 0.0000000000000000000, 2.899999999999999467 ) ) ;
#458 = ORIENTED_EDGE ( 'NONE', *, *, #685, .T. ) ;
#459 =( NAMED_UNIT ( * ) SI_UNIT ( $, .STERADIAN. ) SOLID_ANGLE_UNIT ( ) );
#460 = CYLINDRICAL_SURFACE ( 'NONE', #1056, 1.399999999999999911 ) ;
#461 = CYLINDRICAL_SURFACE ( 'NONE', #180, 0.05000000000000002359 ) ;
#462 = CIRCLE ( 'NONE', #1181, 0.05000000000006601941 ) ;
#463 = FILL_AREA_STYLE ('',( #847 ) ) ;
#464 = VECTOR ( 'NONE', #304, 39.37007874015748143 ) ;
#465 = FACE_OUTER_BOUND ( 'NONE', #493, .T. ) ;
#466 = DIRECTION ( 'NONE',  ( -0.0000000000000000000, -0.0000000000000000000, 1.000000000000000000 ) ) ;
#467 = VECTOR ( 'NONE', #355, 39.37007874015748143 ) ;
#468 = ADVANCED_FACE ( 'NONE', ( #51 ), #57, .F. ) ;
#469 = ADVANCED_FACE ( 'NONE', ( #347 ), #1236, .F. ) ;
#470 = DIRECTION ( 'NONE',  ( -0.0000000000000000000, -0.0000000000000000000, -1.000000000000000000 ) ) ;
#471 = CIRCLE ( 'NONE', #550, 0.05000000000002378236 ) ;
#472 = DIRECTION ( 'NONE',  ( -1.000000000000000000, 0.0000000000000000000, 0.0000000000000000000 ) ) ;
#473 = DIRECTION ( 'NONE',  ( -1.000000000000000000, 0.0000000000000000000, 0.0000000000000000000 ) ) ;
#474 = CARTESIAN_POINT ( 'NONE',  ( -0.6495190528382811523, -0.3750000000000279776, 2.899999999999999467 ) ) ;
#475 = PRODUCT_RELATED_PRODUCT_CATEGORY ( 'part', '', ( #134 ) ) ;
#476 = ADVANCED_FACE ( 'NONE', ( #639 ), #606, .F. ) ;
#477 = CARTESIAN_POINT ( 'NONE',  ( 0.0000000000000000000, 0.0000000000000000000, 0.0000000000000000000 ) ) ;
#478 = CARTESIAN_POINT ( 'NONE',  ( 0.0000000000000000000, 0.0000000000000000000, 0.0000000000000000000 ) ) ;
#479 = LINE ( 'NONE', #1194, #697 ) ;
#480 = CARTESIAN_POINT ( 'NONE',  ( -0.4250000000000145883, 0.6495190528383127937, 2.899999999999999467 ) ) ;
#481 = CARTESIAN_POINT ( 'NONE',  ( 0.3750000000000597300, -0.6495190528383129047, 3.000000000000000444 ) ) ;
#482 = DIRECTION ( 'NONE',  ( -1.000000000000000000, 0.0000000000000000000, 0.0000000000000000000 ) ) ;
#483 = ORIENTED_EDGE ( 'NONE', *, *, #293, .T. ) ;
#484 = VERTEX_POINT ( 'NONE', #415 ) ;
#485 = EDGE_CURVE ( 'NONE', #1146, #882, #1247, .T. ) ;
#486 = DIRECTION ( 'NONE',  ( -0.0000000000000000000, -0.0000000000000000000, -1.000000000000000000 ) ) ;
#487 = VECTOR ( 'NONE', #1017, 39.37007874015748143 ) ;
#488 = LINE ( 'NONE', #793, #855 ) ;
#489 = ORIENTED_EDGE ( 'NONE', *, *, #742, .T. ) ;
#490 = VERTEX_POINT ( 'NONE', #950 ) ;
#491 = CARTESIAN_POINT ( 'NONE',  ( -0.6995190528383455897, 0.3749999999999719669, 2.899999999999999467 ) ) ;
#492 = DIRECTION ( 'NONE',  ( 1.000000000000000000, 0.0000000000000000000, 0.0000000000000000000 ) ) ;
#493 = EDGE_LOOP ( 'NONE', ( #329, #1021, #689, #846 ) ) ;
#494 = PRODUCT_DEFINITION_FORMATION_WITH_SPECIFIED_SOURCE ( 'ANY', '', #134, .NOT_KNOWN. ) ;
#495 = ORIENTED_EDGE ( 'NONE', *, *, #958, .T. ) ;
#496 = AXIS2_PLACEMENT_3D ( 'NONE', #474, #1160, #378 ) ;
#497 = DIRECTION ( 'NONE',  ( -1.000000000000000000, 0.0000000000000000000, 0.0000000000000000000 ) ) ;
#498 = DIRECTION ( 'NONE',  ( -1.000000000000000000, 0.0000000000000000000, 0.0000000000000000000 ) ) ;
#499 = EDGE_CURVE ( 'NONE', #895, #1091, #1057, .T. ) ;
#500 = ORIENTED_EDGE ( 'NONE', *, *, #976, .F. ) ;
#501 = CARTESIAN_POINT ( 'NONE',  ( -0.05000000000000002359, 0.7500000000000001110, 2.899999999999999467 ) ) ;
#502 = ORIENTED_EDGE ( 'NONE', *, *, #617, .F. ) ;
#503 = DIRECTION ( 'NONE',  ( -0.0000000000000000000, -0.0000000000000000000, 1.000000000000000000 ) ) ;
#504 = ORIENTED_EDGE ( 'NONE', *, *, #419, .F. ) ;
#505 = CARTESIAN_POINT ( 'NONE',  ( 0.0000000000000000000, 0.0000000000000000000, 0.0000000000000000000 ) ) ;
#506 = AXIS2_PLACEMENT_3D ( 'NONE', #1027, #629, #1137 ) ;
#507 = ORIENTED_EDGE ( 'NONE', *, *, #890, .T. ) ;
#508 = LINE ( 'NONE', #795, #1077 ) ;
#509 = ADVANCED_FACE ( 'NONE', ( #1254 ), #1248, .F. ) ;
#510 = ORIENTED_EDGE ( 'NONE', *, *, #970, .F. ) ;
#511 = CARTESIAN_POINT ( 'NONE',  ( 0.7500000000000318634, 3.188257459926845700E-14, 2.899999999999999467 ) ) ;
#512 = EDGE_LOOP ( 'NONE', ( #932, #98 ) ) ;
#513 = DIRECTION ( 'NONE',  ( -0.0000000000000000000, 0.0000000000000000000, 1.000000000000000000 ) ) ;
#514 = DIRECTION ( 'NONE',  ( -1.000000000000000000, 0.0000000000000000000, 0.0000000000000000000 ) ) ;
#515 = ORIENTED_EDGE ( 'NONE', *, *, #1258, .T. ) ;
#516 = CARTESIAN_POINT ( 'NONE',  ( -0.6995190528383455897, 0.3749999999999719669, 3.000000000000000444 ) ) ;
#517 = ORIENTED_EDGE ( 'NONE', *, *, #809, .T. ) ;
#518 = CARTESIAN_POINT ( 'NONE',  ( 0.4250000000000007105, 0.6495190528383285589, 3.000000000000000444 ) ) ;
#519 = VECTOR ( 'NONE', #1196, 39.37007874015748143 ) ;
#520 = ORIENTED_EDGE ( 'NONE', *, *, #69, .F. ) ;
#521 = CIRCLE ( 'NONE', #168, 1.399999999999999911 ) ;
#522 = CARTESIAN_POINT ( 'NONE',  ( -0.05000000000000225792, -0.7500000000000001110, 3.000000000000000444 ) ) ;
#523 = DIRECTION ( 'NONE',  ( -0.0000000000000000000, -0.0000000000000000000, -1.000000000000000000 ) ) ;
#524 = ORIENTED_EDGE ( 'NONE', *, *, #672, .T. ) ;
#525 = DIRECTION ( 'NONE',  ( -1.000000000000000000, 0.0000000000000000000, 0.0000000000000000000 ) ) ;
#526 = VERTEX_POINT ( 'NONE', #761 ) ;
#527 = CARTESIAN_POINT ( 'NONE',  ( -1.500000000000000222, 0.0000000000000000000, 3.000000000000000444 ) ) ;
#528 = EDGE_LOOP ( 'NONE', ( #444, #212, #407, #955 ) ) ;
#529 = EDGE_CURVE ( 'NONE', #995, #146, #322, .T. ) ;
#530 = AXIS2_PLACEMENT_3D ( 'NONE', #1212, #924, #1113 ) ;
#531 = CARTESIAN_POINT ( 'NONE',  ( -0.7499999999999682476, -3.197442310920451468E-14, 2.899999999999999467 ) ) ;
#532 = ORIENTED_EDGE ( 'NONE', *, *, #275, .F. ) ;
#533 = FACE_BOUND ( 'NONE', #26, .T. ) ;
#534 = AXIS2_PLACEMENT_3D ( 'NONE', #602, #1008, #843 ) ;
#535 = ORIENTED_EDGE ( 'NONE', *, *, #409, .T. ) ;
#536 = DIRECTION ( 'NONE',  ( -0.0000000000000000000, 0.0000000000000000000, 1.000000000000000000 ) ) ;
#537 = ORIENTED_EDGE ( 'NONE', *, *, #657, .T. ) ;
#538 = CARTESIAN_POINT ( 'NONE',  ( 0.6495190528383769646, -0.3749999999999722999, 3.000000000000000444 ) ) ;
#539 = ORIENTED_EDGE ( 'NONE', *, *, #1080, .T. ) ;
#540 = LINE ( 'NONE', #527, #1234 ) ;
#541 = SURFACE_SIDE_STYLE ('',( #648 ) ) ;
#542 = DIRECTION ( 'NONE',  ( -1.000000000000000000, 0.0000000000000000000, 0.0000000000000000000 ) ) ;
#543 = ORIENTED_EDGE ( 'NONE', *, *, #165, .T. ) ;
#544 = EDGE_CURVE ( 'NONE', #600, #680, #360, .T. ) ;
#545 = AXIS2_PLACEMENT_3D ( 'NONE', #1140, #536, #642 ) ;
#546 = SURFACE_STYLE_FILL_AREA ( #463 ) ;
#547 = CARTESIAN_POINT ( 'NONE',  ( -0.3749999999999403810, -0.6495190528383452122, 3.000000000000000444 ) ) ;
#548 = DIRECTION ( 'NONE',  ( -1.000000000000000000, 0.0000000000000000000, 0.0000000000000000000 ) ) ;
#549 = ORIENTED_EDGE ( 'NONE', *, *, #594, .T. ) ;
#550 = AXIS2_PLACEMENT_3D ( 'NONE', #76, #90, #760 ) ;
#551 =( NAMED_UNIT ( * ) PLANE_ANGLE_UNIT ( ) SI_UNIT ( $, .RADIAN. ) );
#552 = DIRECTION ( 'NONE',  ( -0.0000000000000000000, -0.0000000000000000000, -1.000000000000000000 ) ) ;
#553 = FACE_OUTER_BOUND ( 'NONE', #238, .T. ) ;
#554 = CARTESIAN_POINT ( 'NONE',  ( -0.3749999999999403810, -0.6495190528383452122, 2.899999999999999467 ) ) ;
#555 = DIRECTION ( 'NONE',  ( 1.000000000000000000, 0.0000000000000000000, 0.0000000000000000000 ) ) ;
#556 = DIRECTION ( 'NONE',  ( -0.0000000000000000000, -0.0000000000000000000, 1.000000000000000000 ) ) ;
#557 = VECTOR ( 'NONE', #660, 39.37007874015748143 ) ;
#558 = AXIS2_PLACEMENT_3D ( 'NONE', #426, #523, #925 ) ;
#559 = LINE ( 'NONE', #281, #366 ) ;
#560 = CARTESIAN_POINT ( 'NONE',  ( 0.7000000000000080602, 3.188257459926845700E-14, 3.000000000000000444 ) ) ;
#561 = EDGE_CURVE ( 'NONE', #5, #49, #110, .T. ) ;
#562 = DIRECTION ( 'NONE',  ( -0.0000000000000000000, -0.0000000000000000000, -1.000000000000000000 ) ) ;
#563 = CARTESIAN_POINT ( 'NONE',  ( 0.0000000000000000000, 0.0000000000000000000, 3.000000000000000444 ) ) ;
#564 = AXIS2_PLACEMENT_3D ( 'NONE', #631, #166, #542 ) ;
#565 = DIRECTION ( 'NONE',  ( -1.000000000000000000, 0.0000000000000000000, 0.0000000000000000000 ) ) ;
#566 = FACE_BOUND ( 'NONE', #1192, .T. ) ;
#567 = CARTESIAN_POINT ( 'NONE',  ( 0.6995190528384180872, -0.3749999999999722999, 2.899999999999999467 ) ) ;
#568 = DIRECTION ( 'NONE',  ( -1.000000000000000000, 0.0000000000000000000, 0.0000000000000000000 ) ) ;
#569 = CARTESIAN_POINT ( 'NONE',  ( -0.3749999999999403810, -0.6495190528383452122, 3.000000000000000444 ) ) ;
#570 = AXIS2_PLACEMENT_3D ( 'NONE', #417, #813, #341 ) ;
#571 = VECTOR ( 'NONE', #645, 39.37007874015748143 ) ;
#572 = EDGE_CURVE ( 'NONE', #1012, #1091, #1204, .T. ) ;
#573 = EDGE_CURVE ( 'NONE', #526, #1153, #283, .T. ) ;
#574 = VERTEX_POINT ( 'NONE', #273 ) ;
#575 = ORIENTED_EDGE ( 'NONE', *, *, #226, .F. ) ;
#576 = CIRCLE ( 'NONE', #217, 1.399999999999999911 ) ;
#577 = FACE_OUTER_BOUND ( 'NONE', #583, .T. ) ;
#578 = CARTESIAN_POINT ( 'NONE',  ( 0.3750000000000007772, 0.6495190528383285589, 3.000000000000000444 ) ) ;
#579 = ORIENTED_EDGE ( 'NONE', *, *, #976, .T. ) ;
#580 = CARTESIAN_POINT ( 'NONE',  ( 0.6495190528383448791, 0.3750000000000277001, 2.899999999999999467 ) ) ;
#581 = AXIS2_PLACEMENT_3D ( 'NONE', #478, #670, #978 ) ;
#582 = DIRECTION ( 'NONE',  ( 1.000000000000000000, 0.0000000000000000000, 0.0000000000000000000 ) ) ;
#583 = EDGE_LOOP ( 'NONE', ( #920, #393, #507, #338 ) ) ;
#584 = ORIENTED_EDGE ( 'NONE', *, *, #499, .F. ) ;
#585 = DIRECTION ( 'NONE',  ( -0.0000000000000000000, -0.0000000000000000000, 1.000000000000000000 ) ) ;
#586 = EDGE_CURVE ( 'NONE', #640, #941, #345, .T. ) ;
#587 = CARTESIAN_POINT ( 'NONE',  ( 0.0000000000000000000, 0.0000000000000000000, 0.0000000000000000000 ) ) ;
#588 = ORIENTED_EDGE ( 'NONE', *, *, #713, .T. ) ;
#589 = CARTESIAN_POINT ( 'NONE',  ( 0.3750000000000007772, 0.6495190528383285589, 3.000000000000000444 ) ) ;
#590 = ORIENTED_EDGE ( 'NONE', *, *, #685, .F. ) ;
#591 = DIRECTION ( 'NONE',  ( -0.0000000000000000000, 0.0000000000000000000, 1.000000000000000000 ) ) ;
#592 = EDGE_LOOP ( 'NONE', ( #144, #58 ) ) ;
#593 = CIRCLE ( 'NONE', #270, 1.500000000000000222 ) ;
#594 = EDGE_CURVE ( 'NONE', #1075, #23, #1145, .T. ) ;
#595 = EDGE_CURVE ( 'NONE', #146, #995, #1065, .T. ) ;
#596 = FACE_OUTER_BOUND ( 'NONE', #926, .T. ) ;
#597 = CIRCLE ( 'NONE', #769, 1.399999999999999911 ) ;
#598 = ORIENTED_EDGE ( 'NONE', *, *, #529, .F. ) ;
#599 = DIRECTION ( 'NONE',  ( -1.000000000000000000, 0.0000000000000000000, 0.0000000000000000000 ) ) ;
#600 = VERTEX_POINT ( 'NONE', #1167 ) ;
#601 = CARTESIAN_POINT ( 'NONE',  ( 0.0000000000000000000, 0.0000000000000000000, 3.000000000000000444 ) ) ;
#602 = CARTESIAN_POINT ( 'NONE',  ( -0.6495190528382811523, -0.3750000000000279776, 3.000000000000000444 ) ) ;
#603 = AXIS2_PLACEMENT_3D ( 'NONE', #1150, #1154, #555 ) ;
#604 = FACE_OUTER_BOUND ( 'NONE', #429, .T. ) ;
#605 = CIRCLE ( 'NONE', #506, 0.05000000000004112960 ) ;
#606 = CYLINDRICAL_SURFACE ( 'NONE', #564, 1.399999999999999911 ) ;
#607 = EDGE_LOOP ( 'NONE', ( #1224, #745, #837, #704 ) ) ;
#608 = CYLINDRICAL_SURFACE ( 'NONE', #32, 0.05000000000002378236 ) ;
#609 = EDGE_LOOP ( 'NONE', ( #698, #263 ) ) ;
#610 = CYLINDRICAL_SURFACE ( 'NONE', #62, 0.05000000000005676987 ) ;
#611 = ORIENTED_EDGE ( 'NONE', *, *, #1157, .T. ) ;
#612 = DIRECTION ( 'NONE',  ( -0.0000000000000000000, -0.0000000000000000000, -1.000000000000000000 ) ) ;
#613 = DIRECTION ( 'NONE',  ( -1.000000000000000000, 0.0000000000000000000, 0.0000000000000000000 ) ) ;
#614 = VERTEX_POINT ( 'NONE', #73 ) ;
#615 = DIRECTION ( 'NONE',  ( -1.000000000000000000, 0.0000000000000000000, 0.0000000000000000000 ) ) ;
#616 = ORIENTED_EDGE ( 'NONE', *, *, #133, .T. ) ;
#617 = EDGE_CURVE ( 'NONE', #680, #23, #245, .T. ) ;
#618 = EDGE_CURVE ( 'NONE', #895, #135, #622, .T. ) ;
#619 = ORIENTED_EDGE ( 'NONE', *, *, #156, .T. ) ;
#620 = DIRECTION ( 'NONE',  ( -1.000000000000000000, 0.0000000000000000000, 0.0000000000000000000 ) ) ;
#621 = DIRECTION ( 'NONE',  ( -0.0000000000000000000, -0.0000000000000000000, -1.000000000000000000 ) ) ;
#622 = CIRCLE ( 'NONE', #873, 0.05000000000003217843 ) ;
#623 = AXIS2_PLACEMENT_3D ( 'NONE', #1129, #1210, #451 ) ;
#624 = DIRECTION ( 'NONE',  ( -0.0000000000000000000, -0.0000000000000000000, -1.000000000000000000 ) ) ;
#625 = ORIENTED_EDGE ( 'NONE', *, *, #1253, .F. ) ;
#626 = DIRECTION ( 'NONE',  ( 1.000000000000000000, 0.0000000000000000000, 0.0000000000000000000 ) ) ;
#627 = ORIENTED_EDGE ( 'NONE', *, *, #1199, .F. ) ;
#628 = CARTESIAN_POINT ( 'NONE',  ( 0.3250000000000008438, 0.6495190528383285589, 2.899999999999999467 ) ) ;
#629 = DIRECTION ( 'NONE',  ( -0.0000000000000000000, -0.0000000000000000000, 1.000000000000000000 ) ) ;
#630 = AXIS2_PLACEMENT_3D ( 'NONE', #1055, #654, #962 ) ;
#631 = CARTESIAN_POINT ( 'NONE',  ( 0.0000000000000000000, 0.0000000000000000000, 2.899999999999999467 ) ) ;
#632 = EDGE_LOOP ( 'NONE', ( #74, #137 ) ) ;
#633 = FACE_OUTER_BOUND ( 'NONE', #794, .T. ) ;
#634 = VECTOR ( 'NONE', #372, 39.37007874015748143 ) ;
#635 = ORIENTED_EDGE ( 'NONE', *, *, #969, .T. ) ;
#636 = CARTESIAN_POINT ( 'NONE',  ( -0.3249999999998726685, -0.6495190528383452122, 2.899999999999999467 ) ) ;
#637 = CYLINDRICAL_SURFACE ( 'NONE', #190, 0.05000000000004740930 ) ;
#638 = ADVANCED_FACE ( 'NONE', ( #1050 ), #171, .F. ) ;
#639 = FACE_OUTER_BOUND ( 'NONE', #1139, .T. ) ;
#640 = VERTEX_POINT ( 'NONE', #1071 ) ;
#641 = PRODUCT_DEFINITION_CONTEXT ( 'detailed design', #712, 'design' ) ;
#642 = DIRECTION ( 'NONE',  ( 1.000000000000000000, 0.0000000000000000000, 0.0000000000000000000 ) ) ;
#643 = CYLINDRICAL_SURFACE ( 'NONE', #1009, 0.05000000000006776107 ) ;
#644 = AXIS2_PLACEMENT_3D ( 'NONE', #401, #974, #582 ) ;
#645 = DIRECTION ( 'NONE',  ( -0.0000000000000000000, -0.0000000000000000000, -1.000000000000000000 ) ) ;
#646 = ORIENTED_EDGE ( 'NONE', *, *, #618, .F. ) ;
#647 =( NAMED_UNIT ( * ) PLANE_ANGLE_UNIT ( ) SI_UNIT ( $, .RADIAN. ) );
#648 = SURFACE_STYLE_FILL_AREA ( #952 ) ;
#649 = DIRECTION ( 'NONE',  ( -0.0000000000000000000, 0.0000000000000000000, 1.000000000000000000 ) ) ;
#650 = APPLICATION_CONTEXT ( 'automotive_design' ) ;
#651 = DIRECTION ( 'NONE',  ( -1.000000000000000000, 0.0000000000000000000, 0.0000000000000000000 ) ) ;
#652 = CIRCLE ( 'NONE', #530, 0.05000000000004740930 ) ;
#653 = DIRECTION ( 'NONE',  ( -0.0000000000000000000, -0.0000000000000000000, 1.000000000000000000 ) ) ;
#654 = DIRECTION ( 'NONE',  ( -0.0000000000000000000, -0.0000000000000000000, -1.000000000000000000 ) ) ;
#655 = DIRECTION ( 'NONE',  ( -1.000000000000000000, 0.0000000000000000000, 0.0000000000000000000 ) ) ;
#656 = EDGE_CURVE ( 'NONE', #801, #202, #189, .T. ) ;
#657 = EDGE_CURVE ( 'NONE', #691, #823, #1023, .T. ) ;
#658 = CARTESIAN_POINT ( 'NONE',  ( 0.4250000000000007105, 0.6495190528383285589, 3.000000000000000444 ) ) ;
#659 = CARTESIAN_POINT ( 'NONE',  ( -0.5995190528382812190, 0.3749999999999719669, 3.000000000000000444 ) ) ;
#660 = DIRECTION ( 'NONE',  ( -0.0000000000000000000, -0.0000000000000000000, -1.000000000000000000 ) ) ;
#661 = CIRCLE ( 'NONE', #728, 0.2999999999999999889 ) ;
#662 = AXIS2_PLACEMENT_3D ( 'NONE', #601, #682, #1084 ) ;
#663 = FACE_OUTER_BOUND ( 'NONE', #313, .T. ) ;
#664 = LINE ( 'NONE', #86, #100 ) ;
#665 = CIRCLE ( 'NONE', #353, 0.05000000000003224782 ) ;
#666 = AXIS2_PLACEMENT_3D ( 'NONE', #531, #826, #944 ) ;
#667 = DIRECTION ( 'NONE',  ( 1.000000000000000000, 0.0000000000000000000, 0.0000000000000000000 ) ) ;
#668 = CIRCLE ( 'NONE', #87, 0.05000000000006776107 ) ;
#669 = CARTESIAN_POINT ( 'NONE',  ( 0.6495190528383769646, -0.3749999999999722999, 3.000000000000000444 ) ) ;
#670 = DIRECTION ( 'NONE',  ( -0.0000000000000000000, 0.0000000000000000000, 1.000000000000000000 ) ) ;
#671 = AXIS2_PLACEMENT_3D ( 'NONE', #554, #259, #80 ) ;
#672 = EDGE_CURVE ( 'NONE', #67, #816, #661, .T. ) ;
#673 = DIRECTION ( 'NONE',  ( 1.000000000000000000, 0.0000000000000000000, 0.0000000000000000000 ) ) ;
#674 = ORIENTED_EDGE ( 'NONE', *, *, #10, .T. ) ;
#675 = ORIENTED_EDGE ( 'NONE', *, *, #957, .F. ) ;
#676 = CARTESIAN_POINT ( 'NONE',  ( -0.05000000000000002359, 0.7500000000000001110, 3.000000000000000444 ) ) ;
#677 = CARTESIAN_POINT ( 'NONE',  ( -0.8000000000000156986, -3.197442310920451468E-14, 2.899999999999999467 ) ) ;
#678 = CIRCLE ( 'NONE', #1045, 0.05000000000004740930 ) ;
#679 = VECTOR ( 'NONE', #850, 39.37007874015748143 ) ;
#680 = VERTEX_POINT ( 'NONE', #175 ) ;
#681 = EDGE_LOOP ( 'NONE', ( #752, #483 ) ) ;
#682 = DIRECTION ( 'NONE',  ( -0.0000000000000000000, 0.0000000000000000000, 1.000000000000000000 ) ) ;
#683 = CARTESIAN_POINT ( 'NONE',  ( 0.0000000000000000000, 0.0000000000000000000, 2.899999999999999467 ) ) ;
#684 = ADVANCED_FACE ( 'NONE', ( #553 ), #461, .F. ) ;
#685 = EDGE_CURVE ( 'NONE', #1075, #600, #140, .T. ) ;
#686 = ORIENTED_EDGE ( 'NONE', *, *, #1268, .T. ) ;
#687 = CARTESIAN_POINT ( 'NONE',  ( 0.05000000000012978091, -0.7500000000000001110, 2.899999999999999467 ) ) ;
#688 = FACE_BOUND ( 'NONE', #991, .T. ) ;
#689 = ORIENTED_EDGE ( 'NONE', *, *, #194, .T. ) ;
#690 = DIRECTION ( 'NONE',  ( -0.0000000000000000000, 0.0000000000000000000, 1.000000000000000000 ) ) ;
#691 = VERTEX_POINT ( 'NONE', #785 ) ;
#692 = ADVANCED_FACE ( 'NONE', ( #9 ), #885, .T. ) ;
#693 = CYLINDRICAL_SURFACE ( 'NONE', #1183, 0.05000000000002378236 ) ;
#694 = DIRECTION ( 'NONE',  ( -1.000000000000000000, 0.0000000000000000000, 0.0000000000000000000 ) ) ;
#695 = ORIENTED_EDGE ( 'NONE', *, *, #586, .F. ) ;
#696 = FACE_OUTER_BOUND ( 'NONE', #126, .T. ) ;
#697 = VECTOR ( 'NONE', #211, 39.37007874015748143 ) ;
#698 = ORIENTED_EDGE ( 'NONE', *, *, #177, .F. ) ;
#699 = DIRECTION ( 'NONE',  ( -0.0000000000000000000, -0.0000000000000000000, -1.000000000000000000 ) ) ;
#700 = EDGE_LOOP ( 'NONE', ( #13, #218, #733, #427 ) ) ;
#701 = AXIS2_PLACEMENT_3D ( 'NONE', #1089, #486, #497 ) ;
#702 = CARTESIAN_POINT ( 'NONE',  ( 0.6495190528383448791, 0.3750000000000277001, 3.000000000000000444 ) ) ;
#703 = DIRECTION ( 'NONE',  ( 1.000000000000000000, 0.0000000000000000000, 0.0000000000000000000 ) ) ;
#704 = ORIENTED_EDGE ( 'NONE', *, *, #988, .F. ) ;
#705 = DIRECTION ( 'NONE',  ( -0.0000000000000000000, 0.0000000000000000000, 1.000000000000000000 ) ) ;
#706 = ORIENTED_EDGE ( 'NONE', *, *, #618, .T. ) ;
#707 = CARTESIAN_POINT ( 'NONE',  ( 0.0000000000000000000, 0.0000000000000000000, 0.0000000000000000000 ) ) ;
#708 = ORIENTED_EDGE ( 'NONE', *, *, #586, .T. ) ;
#709 = AXIS2_PLACEMENT_3D ( 'NONE', #1064, #364, #81 ) ;
#710 = PLANE ( 'NONE',  #1155 ) ;
#711 = EDGE_CURVE ( 'NONE', #484, #334, #268, .T. ) ;
#712 = APPLICATION_CONTEXT ( 'automotive_design' ) ;
#713 = EDGE_CURVE ( 'NONE', #789, #1237, #919, .T. ) ;
#714 = DIRECTION ( 'NONE',  ( -0.0000000000000000000, -0.0000000000000000000, -1.000000000000000000 ) ) ;
#715 = VERTEX_POINT ( 'NONE', #91 ) ;
#716 = FACE_BOUND ( 'NONE', #939, .T. ) ;
#717 = ORIENTED_EDGE ( 'NONE', *, *, #909, .F. ) ;
#718 = ORIENTED_EDGE ( 'NONE', *, *, #133, .F. ) ;
#719 = DIRECTION ( 'NONE',  ( -0.0000000000000000000, -0.0000000000000000000, -1.000000000000000000 ) ) ;
#720 = EDGE_LOOP ( 'NONE', ( #532, #1178 ) ) ;
#721 = CYLINDRICAL_SURFACE ( 'NONE', #1127, 0.05000000000004112960 ) ;
#722 = ORIENTED_EDGE ( 'NONE', *, *, #1220, .F. ) ;
#723 = DIRECTION ( 'NONE',  ( -1.000000000000000000, 0.0000000000000000000, 0.0000000000000000000 ) ) ;
#724 = EDGE_LOOP ( 'NONE', ( #913, #575, #910, #1103 ) ) ;
#725 = DIRECTION ( 'NONE',  ( -0.0000000000000000000, -0.0000000000000000000, -1.000000000000000000 ) ) ;
#726 = ORIENTED_EDGE ( 'NONE', *, *, #1253, .T. ) ;
#727 = MECHANICAL_DESIGN_GEOMETRIC_PRESENTATION_REPRESENTATION (  '', ( #64 ), #447 ) ;
#728 = AXIS2_PLACEMENT_3D ( 'NONE', #77, #1152, #651 ) ;
#729 = CARTESIAN_POINT ( 'NONE',  ( -0.7499999999999682476, -3.197442310920451468E-14, 3.000000000000000444 ) ) ;
#730 = EDGE_LOOP ( 'NONE', ( #1024, #14 ) ) ;
#731 = CARTESIAN_POINT ( 'NONE',  ( 1.500000000000000222, 1.836970198721029441E-16, 3.000000000000000444 ) ) ;
#732 = CIRCLE ( 'NONE', #838, 0.05000000000006776107 ) ;
#733 = ORIENTED_EDGE ( 'NONE', *, *, #767, .F. ) ;
#734 = EDGE_CURVE ( 'NONE', #997, #929, #521, .T. ) ;
#735 = EDGE_LOOP ( 'NONE', ( #611, #148 ) ) ;
#736 = DIRECTION ( 'NONE',  ( -1.000000000000000000, 0.0000000000000000000, 0.0000000000000000000 ) ) ;
#737 = ORIENTED_EDGE ( 'NONE', *, *, #194, .F. ) ;
#738 = ADVANCED_BREP_SHAPE_REPRESENTATION ( 'DischargeChamber', ( #65, #1165 ), #145 ) ;
#739 = AXIS2_PLACEMENT_3D ( 'NONE', #151, #1223, #35 ) ;
#740 = DIRECTION ( 'NONE',  ( -0.0000000000000000000, 0.0000000000000000000, 1.000000000000000000 ) ) ;
#741 = CARTESIAN_POINT ( 'NONE',  ( 1.399999999999999911, 1.714505518806294391E-16, 2.899999999999999467 ) ) ;
#742 = EDGE_CURVE ( 'NONE', #12, #354, #369, .T. ) ;
#743 = EDGE_CURVE ( 'NONE', #995, #67, #488, .T. ) ;
#744 = DIRECTION ( 'NONE',  ( -1.000000000000000000, 0.0000000000000000000, 0.0000000000000000000 ) ) ;
#745 = ORIENTED_EDGE ( 'NONE', *, *, #499, .T. ) ;
#746 = UNCERTAINTY_MEASURE_WITH_UNIT (LENGTH_MEASURE( 1.000000000000000082E-05 ), #832, 'distance_accuracy_value', 'NONE');
#747 =( LENGTH_UNIT ( ) NAMED_UNIT ( * ) SI_UNIT ( $, .METRE. ) );
#748 = DIRECTION ( 'NONE',  ( -0.0000000000000000000, -0.0000000000000000000, 1.000000000000000000 ) ) ;
#749 = CIRCLE ( 'NONE', #570, 0.05000000000000002359 ) ;
#750 = VECTOR ( 'NONE', #470, 39.37007874015748143 ) ;
#751 = CARTESIAN_POINT ( 'NONE',  ( 0.6495190528383769646, -0.3749999999999722999, 3.000000000000000444 ) ) ;
#752 = ORIENTED_EDGE ( 'NONE', *, *, #572, .T. ) ;
#753 = AXIS2_PLACEMENT_3D ( 'NONE', #61, #29, #1047 ) ;
#754 = DIRECTION ( 'NONE',  ( -1.000000000000000000, 0.0000000000000000000, 0.0000000000000000000 ) ) ;
#755 = CARTESIAN_POINT ( 'NONE',  ( -0.7499999999999682476, -3.197442310920451468E-14, 2.899999999999999467 ) ) ;
#756 = DIRECTION ( 'NONE',  ( 1.000000000000000000, 0.0000000000000000000, 0.0000000000000000000 ) ) ;
#757 = EDGE_CURVE ( 'NONE', #1146, #5, #479, .T. ) ;
#758 = AXIS2_PLACEMENT_3D ( 'NONE', #959, #282, #182 ) ;
#759 = DIRECTION ( 'NONE',  ( -0.0000000000000000000, -0.0000000000000000000, -1.000000000000000000 ) ) ;
#760 = DIRECTION ( 'NONE',  ( 1.000000000000000000, 0.0000000000000000000, 0.0000000000000000000 ) ) ;
#761 = CARTESIAN_POINT ( 'NONE',  ( -0.3249999999998726685, -0.6495190528383452122, 3.000000000000000444 ) ) ;
#762 = DIRECTION ( 'NONE',  ( -1.000000000000000000, 0.0000000000000000000, 0.0000000000000000000 ) ) ;
#763 = FACE_OUTER_BOUND ( 'NONE', #887, .T. ) ;
#764 = CARTESIAN_POINT ( 'NONE',  ( 0.3250000000000029532, -0.6495190528383129047, 3.000000000000000444 ) ) ;
#765 = CIRCLE ( 'NONE', #753, 0.2000000000000000111 ) ;
#766 = CARTESIAN_POINT ( 'NONE',  ( 0.05000000000000002359, 0.7500000000000001110, 3.000000000000000444 ) ) ;
#767 = EDGE_CURVE ( 'NONE', #816, #67, #1046, .T. ) ;
#768 = DIRECTION ( 'NONE',  ( -0.0000000000000000000, 0.0000000000000000000, 1.000000000000000000 ) ) ;
#769 = AXIS2_PLACEMENT_3D ( 'NONE', #477, #1263, #1260 ) ;
#770 = PLANE ( 'NONE',  #303 ) ;
#771 = VECTOR ( 'NONE', #178, 39.37007874015748143 ) ;
#772 = DIRECTION ( 'NONE',  ( -1.000000000000000000, 0.0000000000000000000, 0.0000000000000000000 ) ) ;
#773 = EDGE_LOOP ( 'NONE', ( #495, #201 ) ) ;
#774 = CARTESIAN_POINT ( 'NONE',  ( 0.0000000000000000000, 0.0000000000000000000, 3.000000000000000444 ) ) ;
#775 = FACE_BOUND ( 'NONE', #1188, .T. ) ;
#776 = ORIENTED_EDGE ( 'NONE', *, *, #10, .F. ) ;
#777 = ORIENTED_EDGE ( 'NONE', *, *, #857, .T. ) ;
#778 = DIRECTION ( 'NONE',  ( -1.000000000000000000, 0.0000000000000000000, 0.0000000000000000000 ) ) ;
#779 = DIRECTION ( 'NONE',  ( -0.0000000000000000000, -0.0000000000000000000, -1.000000000000000000 ) ) ;
#780 = ADVANCED_FACE ( 'NONE', ( #1085, #4, #101, #1187, #205, #1097, #566, #874, #397, #1266, #775, #990, #311, #688 ), #770, .T. ) ;
#781 = AXIS2_PLACEMENT_3D ( 'NONE', #1156, #1060, #179 ) ;
#782 = ORIENTED_EDGE ( 'NONE', *, *, #440, .F. ) ;
#783 = CIRCLE ( 'NONE', #835, 0.05000000000006776107 ) ;
#784 = CARTESIAN_POINT ( 'NONE',  ( 0.7500000000000318634, 3.188257459926845700E-14, 3.000000000000000444 ) ) ;
#785 = CARTESIAN_POINT ( 'NONE',  ( 0.05000000000000002359, 0.7500000000000001110, 3.000000000000000444 ) ) ;
#786 = ADVANCED_FACE ( 'NONE', ( #1074 ), #193, .F. ) ;
#787 = ORIENTED_EDGE ( 'NONE', *, *, #226, .T. ) ;
#788 = EDGE_CURVE ( 'NONE', #354, #12, #462, .T. ) ;
#789 = VERTEX_POINT ( 'NONE', #299 ) ;
#790 = CARTESIAN_POINT ( 'NONE',  ( 0.0000000000000000000, 0.0000000000000000000, 3.000000000000000444 ) ) ;
#791 = CIRCLE ( 'NONE', #709, 0.04999999999999994726 ) ;
#792 = CIRCLE ( 'NONE', #155, 0.05000000000005676987 ) ;
#793 = CARTESIAN_POINT ( 'NONE',  ( 0.2999999999999999889, 3.673940397442058882E-17, 2.899999999999999467 ) ) ;
#794 = EDGE_LOOP ( 'NONE', ( #1093, #398, #319, #342 ) ) ;
#795 = CARTESIAN_POINT ( 'NONE',  ( -0.4250000000000145883, 0.6495190528383127937, 3.000000000000000444 ) ) ;
#796 = VERTEX_POINT ( 'NONE', #677 ) ;
#797 = CARTESIAN_POINT ( 'NONE',  ( 0.0000000000000000000, 0.0000000000000000000, 0.0000000000000000000 ) ) ;
#798 = ORIENTED_EDGE ( 'NONE', *, *, #877, .F. ) ;
#799 = CARTESIAN_POINT ( 'NONE',  ( -0.2999999999999999889, 0.0000000000000000000, 0.0000000000000000000 ) ) ;
#800 = CARTESIAN_POINT ( 'NONE',  ( -0.3749999999999403810, -0.6495190528383452122, 2.899999999999999467 ) ) ;
#801 = VERTEX_POINT ( 'NONE', #1079 ) ;
#802 = CARTESIAN_POINT ( 'NONE',  ( 0.6495190528383769646, -0.3749999999999722999, 3.000000000000000444 ) ) ;
#803 = AXIS2_PLACEMENT_3D ( 'NONE', #587, #316, #694 ) ;
#804 = ORIENTED_EDGE ( 'NONE', *, *, #839, .T. ) ;
#805 = DIRECTION ( 'NONE',  ( -1.000000000000000000, 0.0000000000000000000, 0.0000000000000000000 ) ) ;
#806 = ORIENTED_EDGE ( 'NONE', *, *, #365, .F. ) ;
#807 = ADVANCED_FACE ( 'NONE', ( #200, #332 ), #710, .F. ) ;
#808 = CIRCLE ( 'NONE', #923, 0.2000000000000000111 ) ;
#809 = EDGE_CURVE ( 'NONE', #340, #116, #1170, .T. ) ;
#810 = DIRECTION ( 'NONE',  ( -0.0000000000000000000, -0.0000000000000000000, -1.000000000000000000 ) ) ;
#811 = CARTESIAN_POINT ( 'NONE',  ( 0.5995190528383360640, 0.3750000000000277001, 3.000000000000000444 ) ) ;
#812 = EDGE_LOOP ( 'NONE', ( #517, #167, #255, #510 ) ) ;
#813 = DIRECTION ( 'NONE',  ( -0.0000000000000000000, -0.0000000000000000000, 1.000000000000000000 ) ) ;
#814 = ORIENTED_EDGE ( 'NONE', *, *, #208, .T. ) ;
#815 = FACE_OUTER_BOUND ( 'NONE', #422, .T. ) ;
#816 = VERTEX_POINT ( 'NONE', #799 ) ;
#817 = CIRCLE ( 'NONE', #173, 0.05000000000000889150 ) ;
#818 = DIRECTION ( 'NONE',  ( -0.0000000000000000000, -0.0000000000000000000, -1.000000000000000000 ) ) ;
#819 = VERTEX_POINT ( 'NONE', #128 ) ;
#820 = CARTESIAN_POINT ( 'NONE',  ( -0.4250000000000145883, 0.6495190528383127937, 3.000000000000000444 ) ) ;
#821 = ORIENTED_EDGE ( 'NONE', *, *, #323, .T. ) ;
#822 = DIMENSIONAL_EXPONENTS ( 1.000000000000000000, 0.0000000000000000000, 0.0000000000000000000, 0.0000000000000000000, 0.0000000000000000000, 0.0000000000000000000, 0.0000000000000000000 ) ;
#823 = VERTEX_POINT ( 'NONE', #1202 ) ;
#824 = DIRECTION ( 'NONE',  ( -0.0000000000000000000, 0.0000000000000000000, 1.000000000000000000 ) ) ;
#825 = ORIENTED_EDGE ( 'NONE', *, *, #657, .F. ) ;
#826 = DIRECTION ( 'NONE',  ( -0.0000000000000000000, -0.0000000000000000000, 1.000000000000000000 ) ) ;
#827 = ORIENTED_EDGE ( 'NONE', *, *, #839, .F. ) ;
#828 = DIRECTION ( 'NONE',  ( 1.000000000000000000, 0.0000000000000000000, 0.0000000000000000000 ) ) ;
#829 = ADVANCED_FACE ( 'NONE', ( #604 ), #24, .T. ) ;
#830 = EDGE_CURVE ( 'NONE', #819, #801, #390, .T. ) ;
#831 = EDGE_LOOP ( 'NONE', ( #449, #121 ) ) ;
#832 =( CONVERSION_BASED_UNIT ( 'INCH', #445 ) LENGTH_UNIT ( ) NAMED_UNIT ( #127 ) );
#833 = CARTESIAN_POINT ( 'NONE',  ( -0.5995190528382204898, -0.3750000000000279776, 2.899999999999999467 ) ) ;
#834 = AXIS2_PLACEMENT_3D ( 'NONE', #985, #405, #498 ) ;
#835 = AXIS2_PLACEMENT_3D ( 'NONE', #234, #740, #1136 ) ;
#836 = CARTESIAN_POINT ( 'NONE',  ( -0.2000000000000000111, 0.0000000000000000000, 3.000000000000000444 ) ) ;
#837 = ORIENTED_EDGE ( 'NONE', *, *, #572, .F. ) ;
#838 = AXIS2_PLACEMENT_3D ( 'NONE', #800, #33, #613 ) ;
#839 = EDGE_CURVE ( 'NONE', #12, #207, #236, .T. ) ;
#840 = EDGE_CURVE ( 'NONE', #1201, #394, #652, .T. ) ;
#841 = VECTOR ( 'NONE', #434, 39.37007874015748143 ) ;
#842 = DIRECTION ( 'NONE',  ( -0.0000000000000000000, -0.0000000000000000000, -1.000000000000000000 ) ) ;
#843 = DIRECTION ( 'NONE',  ( 1.000000000000000000, 0.0000000000000000000, 0.0000000000000000000 ) ) ;
#844 = AXIS2_PLACEMENT_3D ( 'NONE', #993, #585, #1200 ) ;
#845 = CARTESIAN_POINT ( 'NONE',  ( -0.6495190528382811523, -0.3750000000000279776, 3.000000000000000444 ) ) ;
#846 = ORIENTED_EDGE ( 'NONE', *, *, #876, .F. ) ;
#847 = FILL_AREA_STYLE_COLOUR ( '', #7 ) ;
#848 = DIRECTION ( 'NONE',  ( -1.000000000000000000, 0.0000000000000000000, 0.0000000000000000000 ) ) ;
#849 = AXIS2_PLACEMENT_3D ( 'NONE', #729, #254, #514 ) ;
#850 = DIRECTION ( 'NONE',  ( -0.0000000000000000000, -0.0000000000000000000, -1.000000000000000000 ) ) ;
#851 = EDGE_LOOP ( 'NONE', ( #1185, #1222, #900, #782 ) ) ;
#852 = CARTESIAN_POINT ( 'NONE',  ( 0.2999999999999999889, 3.673940397442058882E-17, 0.0000000000000000000 ) ) ;
#853 = DIRECTION ( 'NONE',  ( -0.0000000000000000000, -0.0000000000000000000, 1.000000000000000000 ) ) ;
#854 = AXIS2_PLACEMENT_3D ( 'NONE', #384, #85, #1061 ) ;
#855 = VECTOR ( 'NONE', #97, 39.37007874015748143 ) ;
#856 = ADVANCED_FACE ( 'NONE', ( #596 ), #119, .F. ) ;
#857 = EDGE_CURVE ( 'NONE', #490, #922, #1105, .T. ) ;
#858 = DIRECTION ( 'NONE',  ( -0.0000000000000000000, 0.0000000000000000000, 1.000000000000000000 ) ) ;
#859 = AXIS2_PLACEMENT_3D ( 'NONE', #404, #879, #1186 ) ;
#860 =( NAMED_UNIT ( * ) PLANE_ANGLE_UNIT ( ) SI_UNIT ( $, .RADIAN. ) );
#861 = CARTESIAN_POINT ( 'NONE',  ( 0.2000000000000000111, 2.449293598294706229E-17, 0.0000000000000000000 ) ) ;
#862 = LINE ( 'NONE', #1255, #1241 ) ;
#863 = DIRECTION ( 'NONE',  ( -0.0000000000000000000, 0.0000000000000000000, 1.000000000000000000 ) ) ;
#864 = CIRCLE ( 'NONE', #603, 0.05000000000003217843 ) ;
#865 = STYLED_ITEM ( 'NONE', ( #363 ), #65 ) ;
#866 = CARTESIAN_POINT ( 'NONE',  ( -0.3249999999999776956, 0.6495190528383127937, 2.899999999999999467 ) ) ;
#867 = LINE ( 'NONE', #1159, #771 ) ;
#868 = CARTESIAN_POINT ( 'NONE',  ( -0.3249999999998726685, -0.6495190528383452122, 3.000000000000000444 ) ) ;
#869 = ADVANCED_FACE ( 'NONE', ( #424 ), #460, .F. ) ;
#870 = EDGE_CURVE ( 'NONE', #1237, #789, #455, .T. ) ;
#871 = DIRECTION ( 'NONE',  ( -0.0000000000000000000, -0.0000000000000000000, -1.000000000000000000 ) ) ;
#872 = CYLINDRICAL_SURFACE ( 'NONE', #630, 0.05000000000006052381 ) ;
#873 = AXIS2_PLACEMENT_3D ( 'NONE', #289, #863, #667 ) ;
#874 = FACE_BOUND ( 'NONE', #361, .T. ) ;
#875 = AXIS2_PLACEMENT_3D ( 'NONE', #1218, #719, #946 ) ;
#876 = EDGE_CURVE ( 'NONE', #296, #796, #1109, .T. ) ;
#877 = EDGE_CURVE ( 'NONE', #196, #241, #986, .T. ) ;
#878 = FACE_OUTER_BOUND ( 'NONE', #724, .T. ) ;
#879 = DIRECTION ( 'NONE',  ( -0.0000000000000000000, -0.0000000000000000000, -1.000000000000000000 ) ) ;
#880 = CARTESIAN_POINT ( 'NONE',  ( 6.376514919853691401E-14, -0.7500000000000001110, 3.000000000000000444 ) ) ;
#881 = CIRCLE ( 'NONE', #844, 0.05000000000006601941 ) ;
#882 = VERTEX_POINT ( 'NONE', #973 ) ;
#883 = ORIENTED_EDGE ( 'NONE', *, *, #409, .F. ) ;
#884 = DIRECTION ( 'NONE',  ( -0.0000000000000000000, -0.0000000000000000000, -1.000000000000000000 ) ) ;
#885 = CYLINDRICAL_SURFACE ( 'NONE', #1251, 0.2999999999999999889 ) ;
#886 = ORIENTED_EDGE ( 'NONE', *, *, #958, .F. ) ;
#887 = EDGE_LOOP ( 'NONE', ( #267, #1051, #686, #257 ) ) ;
#888 = DIRECTION ( 'NONE',  ( -0.0000000000000000000, -0.0000000000000000000, -1.000000000000000000 ) ) ;
#889 = ADVANCED_FACE ( 'NONE', ( #763 ), #373, .F. ) ;
#890 = EDGE_CURVE ( 'NONE', #1041, #715, #204, .T. ) ;
#891 = DIRECTION ( 'NONE',  ( 1.000000000000000000, 0.0000000000000000000, 0.0000000000000000000 ) ) ;
#892 = AXIS2_PLACEMENT_3D ( 'NONE', #751, #562, #548 ) ;
#893 = EDGE_LOOP ( 'NONE', ( #172, #1019 ) ) ;
#894 = CIRCLE ( 'NONE', #8, 0.05000000000006601941 ) ;
#895 = VERTEX_POINT ( 'NONE', #659 ) ;
#896 = EDGE_LOOP ( 'NONE', ( #152, #352, #1, #722 ) ) ;
#897 = FACE_OUTER_BOUND ( 'NONE', #1044, .T. ) ;
#898 = CARTESIAN_POINT ( 'NONE',  ( 0.0000000000000000000, 0.7500000000000001110, 3.000000000000000444 ) ) ;
#899 = VECTOR ( 'NONE', #624, 39.37007874015748143 ) ;
#900 = ORIENTED_EDGE ( 'NONE', *, *, #711, .T. ) ;
#901 = FACE_OUTER_BOUND ( 'NONE', #52, .T. ) ;
#902 = ORIENTED_EDGE ( 'NONE', *, *, #529, .T. ) ;
#903 = DIRECTION ( 'NONE',  ( 1.000000000000000000, 0.0000000000000000000, 0.0000000000000000000 ) ) ;
#904 = ORIENTED_EDGE ( 'NONE', *, *, #544, .F. ) ;
#905 = AXIS2_PLACEMENT_3D ( 'NONE', #802, #705, #1031 ) ;
#906 = DIRECTION ( 'NONE',  ( -1.000000000000000000, 0.0000000000000000000, 0.0000000000000000000 ) ) ;
#907 = ORIENTED_EDGE ( 'NONE', *, *, #11, .T. ) ;
#908 = CYLINDRICAL_SURFACE ( 'NONE', #288, 0.05000000000006601941 ) ;
#909 = EDGE_CURVE ( 'NONE', #135, #895, #864, .T. ) ;
#910 = ORIENTED_EDGE ( 'NONE', *, *, #1161, .T. ) ;
#911 = SHAPE_DEFINITION_REPRESENTATION ( #224, #738 ) ;
#912 =( LENGTH_UNIT ( ) NAMED_UNIT ( * ) SI_UNIT ( $, .METRE. ) );
#913 = ORIENTED_EDGE ( 'NONE', *, *, #1001, .F. ) ;
#914 = DIRECTION ( 'NONE',  ( 1.000000000000000000, 0.0000000000000000000, 0.0000000000000000000 ) ) ;
#915 = DIRECTION ( 'NONE',  ( -0.0000000000000000000, -0.0000000000000000000, -1.000000000000000000 ) ) ;
#916 = ORIENTED_EDGE ( 'NONE', *, *, #594, .F. ) ;
#917 = FACE_BOUND ( 'NONE', #30, .T. ) ;
#918 = CIRCLE ( 'NONE', #195, 0.05000000000004112960 ) ;
#919 = CIRCLE ( 'NONE', #284, 0.04999999999999994726 ) ;
#920 = ORIENTED_EDGE ( 'NONE', *, *, #1104, .F. ) ;
#921 = LINE ( 'NONE', #38, #371 ) ;
#922 = VERTEX_POINT ( 'NONE', #1164 ) ;
#923 = AXIS2_PLACEMENT_3D ( 'NONE', #797, #203, #1102 ) ;
#924 = DIRECTION ( 'NONE',  ( -0.0000000000000000000, 0.0000000000000000000, 1.000000000000000000 ) ) ;
#925 = DIRECTION ( 'NONE',  ( -1.000000000000000000, 0.0000000000000000000, 0.0000000000000000000 ) ) ;
#926 = EDGE_LOOP ( 'NONE', ( #1174, #537, #230, #1173 ) ) ;
#927 = FACE_BOUND ( 'NONE', #735, .T. ) ;
#928 = ORIENTED_EDGE ( 'NONE', *, *, #439, .F. ) ;
#929 = VERTEX_POINT ( 'NONE', #1261 ) ;
#930 = DIRECTION ( 'NONE',  ( 0.0000000000000000000, 0.0000000000000000000, 1.000000000000000000 ) ) ;
#931 = CARTESIAN_POINT ( 'NONE',  ( -0.6995190528383417039, -0.3750000000000279776, 3.000000000000000444 ) ) ;
#932 = ORIENTED_EDGE ( 'NONE', *, *, #877, .T. ) ;
#933 = EDGE_CURVE ( 'NONE', #922, #233, #310, .T. ) ;
#934 = ADVANCED_FACE ( 'NONE', ( #272 ), #872, .F. ) ;
#935 = VECTOR ( 'NONE', #621, 39.37007874015748143 ) ;
#936 = CYLINDRICAL_SURFACE ( 'NONE', #183, 0.05000000000001845329 ) ;
#937 = EDGE_LOOP ( 'NONE', ( #504, #1016, #777, #37 ) ) ;
#938 = CARTESIAN_POINT ( 'NONE',  ( -0.2999999999999999889, 0.0000000000000000000, 2.899999999999999467 ) ) ;
#939 = EDGE_LOOP ( 'NONE', ( #47, #907 ) ) ;
#940 = APPLICATION_PROTOCOL_DEFINITION ( 'draft international standard', 'automotive_design', 1998, #650 ) ;
#941 = VERTEX_POINT ( 'NONE', #560 ) ;
#942 = EDGE_CURVE ( 'NONE', #941, #640, #471, .T. ) ;
#943 = EDGE_CURVE ( 'NONE', #600, #1075, #1270, .T. ) ;
#944 = DIRECTION ( 'NONE',  ( -1.000000000000000000, 0.0000000000000000000, 0.0000000000000000000 ) ) ;
#945 = ORIENTED_EDGE ( 'NONE', *, *, #82, .T. ) ;
#946 = DIRECTION ( 'NONE',  ( -1.000000000000000000, 0.0000000000000000000, 0.0000000000000000000 ) ) ;
#947 = CARTESIAN_POINT ( 'NONE',  ( -0.7499999999999682476, -3.197442310920451468E-14, 3.000000000000000444 ) ) ;
#948 = PRESENTATION_LAYER_ASSIGNMENT (  '', '', ( #64 ) ) ;
#949 = CIRCLE ( 'NONE', #83, 0.05000000000002378236 ) ;
#950 = CARTESIAN_POINT ( 'NONE',  ( 0.5995190528383358419, -0.3749999999999722999, 3.000000000000000444 ) ) ;
#951 = ORIENTED_EDGE ( 'NONE', *, *, #440, .T. ) ;
#952 = FILL_AREA_STYLE ('',( #170 ) ) ;
#953 = AXIS2_PLACEMENT_3D ( 'NONE', #702, #513, #138 ) ;
#954 = DIRECTION ( 'NONE',  ( 1.000000000000000000, 0.0000000000000000000, 0.0000000000000000000 ) ) ;
#955 = ORIENTED_EDGE ( 'NONE', *, *, #561, .F. ) ;
#956 = CIRCLE ( 'NONE', #905, 0.05000000000004112960 ) ;
#957 = EDGE_CURVE ( 'NONE', #116, #54, #664, .T. ) ;
#958 = EDGE_CURVE ( 'NONE', #1206, #983, #1189, .T. ) ;
#959 = CARTESIAN_POINT ( 'NONE',  ( 0.3750000000000007772, 0.6495190528383285589, 3.000000000000000444 ) ) ;
#960 = DIRECTION ( 'NONE',  ( -0.0000000000000000000, -0.0000000000000000000, -1.000000000000000000 ) ) ;
#961 = DIRECTION ( 'NONE',  ( -0.0000000000000000000, -0.0000000000000000000, 1.000000000000000000 ) ) ;
#962 = DIRECTION ( 'NONE',  ( -1.000000000000000000, 0.0000000000000000000, 0.0000000000000000000 ) ) ;
#963 = AXIS2_PLACEMENT_3D ( 'NONE', #66, #453, #954 ) ;
#964 = VECTOR ( 'NONE', #818, 39.37007874015748143 ) ;
#965 = DIRECTION ( 'NONE',  ( 1.000000000000000000, 0.0000000000000000000, 0.0000000000000000000 ) ) ;
#966 = AXIS2_PLACEMENT_3D ( 'NONE', #977, #219, #1267 ) ;
#967 = CARTESIAN_POINT ( 'NONE',  ( 0.6995190528383538053, 0.3750000000000277001, 2.899999999999999467 ) ) ;
#968 = DIRECTION ( 'NONE',  ( -0.0000000000000000000, -0.0000000000000000000, -1.000000000000000000 ) ) ;
#969 = EDGE_CURVE ( 'NONE', #526, #454, #668, .T. ) ;
#970 = EDGE_CURVE ( 'NONE', #340, #614, #867, .T. ) ;
#971 = CARTESIAN_POINT ( 'NONE',  ( -0.5995190528382812190, 0.3749999999999719669, 3.000000000000000444 ) ) ;
#972 = CYLINDRICAL_SURFACE ( 'NONE', #966, 0.05000000000001845329 ) ;
#973 = CARTESIAN_POINT ( 'NONE',  ( -0.6995190528383417039, -0.3750000000000279776, 3.000000000000000444 ) ) ;
#974 = DIRECTION ( 'NONE',  ( -0.0000000000000000000, 0.0000000000000000000, 1.000000000000000000 ) ) ;
#975 = EDGE_CURVE ( 'NONE', #983, #1206, #791, .T. ) ;
#976 = EDGE_CURVE ( 'NONE', #202, #274, #817, .T. ) ;
#977 = CARTESIAN_POINT ( 'NONE',  ( -0.3749999999999961142, 0.6495190528383127937, 3.000000000000000444 ) ) ;
#978 = DIRECTION ( 'NONE',  ( 1.000000000000000000, 0.0000000000000000000, 0.0000000000000000000 ) ) ;
#979 = AXIS2_PLACEMENT_3D ( 'NONE', #563, #318, #472 ) ;
#980 = DIRECTION ( 'NONE',  ( -0.0000000000000000000, -0.0000000000000000000, -1.000000000000000000 ) ) ;
#981 = VECTOR ( 'NONE', #298, 39.37007874015748143 ) ;
#982 = ORIENTED_EDGE ( 'NONE', *, *, #40, .F. ) ;
#983 = VERTEX_POINT ( 'NONE', #381 ) ;
#984 = DIRECTION ( 'NONE',  ( -1.000000000000000000, 0.0000000000000000000, 0.0000000000000000000 ) ) ;
#985 = CARTESIAN_POINT ( 'NONE',  ( 0.0000000000000000000, 0.0000000000000000000, 0.0000000000000000000 ) ) ;
#986 = CIRCLE ( 'NONE', #1086, 0.05000000000001845329 ) ;
#987 = EDGE_LOOP ( 'NONE', ( #458, #327, #356, #916 ) ) ;
#988 = EDGE_CURVE ( 'NONE', #135, #1012, #862, .T. ) ;
#989 = DIRECTION ( 'NONE',  ( -0.0000000000000000000, -0.0000000000000000000, 1.000000000000000000 ) ) ;
#990 = FACE_BOUND ( 'NONE', #1227, .T. ) ;
#991 = EDGE_LOOP ( 'NONE', ( #1006, #21 ) ) ;
#992 = ORIENTED_EDGE ( 'NONE', *, *, #830, .F. ) ;
#993 = CARTESIAN_POINT ( 'NONE',  ( 6.376514919853691401E-14, -0.7500000000000001110, 2.899999999999999467 ) ) ;
#994 = DIRECTION ( 'NONE',  ( -0.0000000000000000000, 0.0000000000000000000, 1.000000000000000000 ) ) ;
#995 = VERTEX_POINT ( 'NONE', #400 ) ;
#996 = CARTESIAN_POINT ( 'NONE',  ( -0.6495190528382811523, -0.3750000000000279776, 3.000000000000000444 ) ) ;
#997 = VERTEX_POINT ( 'NONE', #395 ) ;
#998 = LINE ( 'NONE', #1175, #981 ) ;
#999 = LINE ( 'NONE', #244, #935 ) ;
#1000 = DIRECTION ( 'NONE',  ( -1.000000000000000000, 0.0000000000000000000, 0.0000000000000000000 ) ) ;
#1001 = EDGE_CURVE ( 'NONE', #130, #1041, #198, .T. ) ;
#1002 = EDGE_LOOP ( 'NONE', ( #539, #437 ) ) ;
#1003 = CARTESIAN_POINT ( 'NONE',  ( -0.6999999999999207967, -3.196829987520877287E-14, 2.899999999999999467 ) ) ;
#1004 = DIMENSIONAL_EXPONENTS ( 1.000000000000000000, 0.0000000000000000000, 0.0000000000000000000, 0.0000000000000000000, 0.0000000000000000000, 0.0000000000000000000, 0.0000000000000000000 ) ;
#1005 = AXIS2_PLACEMENT_3D ( 'NONE', #41, #810, #906 ) ;
#1006 = ORIENTED_EDGE ( 'NONE', *, *, #809, .F. ) ;
#1007 = CARTESIAN_POINT ( 'NONE',  ( -0.5995190528382812190, 0.3749999999999719669, 2.899999999999999467 ) ) ;
#1008 = DIRECTION ( 'NONE',  ( -0.0000000000000000000, 0.0000000000000000000, 1.000000000000000000 ) ) ;
#1009 = AXIS2_PLACEMENT_3D ( 'NONE', #547, #1048, #848 ) ;
#1010 = DIRECTION ( 'NONE',  ( -0.0000000000000000000, -0.0000000000000000000, -1.000000000000000000 ) ) ;
#1011 = LINE ( 'NONE', #42, #964 ) ;
#1012 = VERTEX_POINT ( 'NONE', #491 ) ;
#1013 = FACE_BOUND ( 'NONE', #102, .T. ) ;
#1014 = ORIENTED_EDGE ( 'NONE', *, *, #456, .F. ) ;
#1015 = DIRECTION ( 'NONE',  ( 0.0000000000000000000, 0.0000000000000000000, -1.000000000000000000 ) ) ;
#1016 = ORIENTED_EDGE ( 'NONE', *, *, #132, .T. ) ;
#1017 = DIRECTION ( 'NONE',  ( -0.0000000000000000000, -0.0000000000000000000, -1.000000000000000000 ) ) ;
#1018 = CARTESIAN_POINT ( 'NONE',  ( -1.399999999999999911, 0.0000000000000000000, 0.0000000000000000000 ) ) ;
#1019 = ORIENTED_EDGE ( 'NONE', *, *, #969, .F. ) ;
#1020 = LINE ( 'NONE', #766, #1022 ) ;
#1021 = ORIENTED_EDGE ( 'NONE', *, *, #840, .T. ) ;
#1022 = VECTOR ( 'NONE', #295, 39.37007874015748143 ) ;
#1023 = CIRCLE ( 'NONE', #963, 0.05000000000000002359 ) ;
#1024 = ORIENTED_EDGE ( 'NONE', *, *, #17, .F. ) ;
#1025 = CARTESIAN_POINT ( 'NONE',  ( 0.3250000000000008438, 0.6495190528383285589, 3.000000000000000444 ) ) ;
#1026 = EDGE_CURVE ( 'NONE', #207, #1112, #881, .T. ) ;
#1027 = CARTESIAN_POINT ( 'NONE',  ( 0.6495190528383769646, -0.3749999999999722999, 2.899999999999999467 ) ) ;
#1028 = AXIS2_PLACEMENT_3D ( 'NONE', #1180, #1094, #903 ) ;
#1029 = LINE ( 'NONE', #326, #841 ) ;
#1030 = ORIENTED_EDGE ( 'NONE', *, *, #1026, .F. ) ;
#1031 = DIRECTION ( 'NONE',  ( 1.000000000000000000, 0.0000000000000000000, 0.0000000000000000000 ) ) ;
#1032 = ORIENTED_EDGE ( 'NONE', *, *, #857, .F. ) ;
#1033 = DIRECTION ( 'NONE',  ( -0.0000000000000000000, -0.0000000000000000000, -1.000000000000000000 ) ) ;
#1034 = CARTESIAN_POINT ( 'NONE',  ( -0.05000000000000225792, -0.7500000000000001110, 3.000000000000000444 ) ) ;
#1035 = EDGE_CURVE ( 'NONE', #941, #1225, #3, .T. ) ;
#1036 = EDGE_CURVE ( 'NONE', #823, #240, #320, .T. ) ;
#1037 =( GEOMETRIC_REPRESENTATION_CONTEXT ( 3 ) GLOBAL_UNCERTAINTY_ASSIGNED_CONTEXT ( ( #269 ) ) GLOBAL_UNIT_ASSIGNED_CONTEXT ( ( #452, #551, #459 ) ) REPRESENTATION_CONTEXT ( 'NONE', 'WORKASPACE' ) );
#1038 = CARTESIAN_POINT ( 'NONE',  ( 0.05000000000012978091, -0.7500000000000001110, 3.000000000000000444 ) ) ;
#1039 = ORIENTED_EDGE ( 'NONE', *, *, #943, .T. ) ;
#1040 = FACE_BOUND ( 'NONE', #592, .T. ) ;
#1041 = VERTEX_POINT ( 'NONE', #1076 ) ;
#1042 = CARTESIAN_POINT ( 'NONE',  ( 0.0000000000000000000, 0.0000000000000000000, 2.899999999999999467 ) ) ;
#1043 = FACE_OUTER_BOUND ( 'NONE', #297, .T. ) ;
#1044 = EDGE_LOOP ( 'NONE', ( #1083, #674, #442, #446 ) ) ;
#1045 = AXIS2_PLACEMENT_3D ( 'NONE', #443, #1108, #828 ) ;
#1046 = CIRCLE ( 'NONE', #803, 0.2999999999999999889 ) ;
#1047 = DIRECTION ( 'NONE',  ( 1.000000000000000000, 0.0000000000000000000, 0.0000000000000000000 ) ) ;
#1048 = DIRECTION ( 'NONE',  ( -0.0000000000000000000, -0.0000000000000000000, -1.000000000000000000 ) ) ;
#1049 = CIRCLE ( 'NONE', #96, 0.05000000000002378236 ) ;
#1050 = FACE_OUTER_BOUND ( 'NONE', #937, .T. ) ;
#1051 = ORIENTED_EDGE ( 'NONE', *, *, #870, .T. ) ;
#1052 = ADVANCED_FACE ( 'NONE', ( #577 ), #99, .T. ) ;
#1053 = EDGE_CURVE ( 'NONE', #108, #1225, #1049, .T. ) ;
#1054 = LENGTH_MEASURE_WITH_UNIT ( LENGTH_MEASURE( 0.02539999999999999897 ), #747 );
#1055 = CARTESIAN_POINT ( 'NONE',  ( -0.6495190528382811523, -0.3750000000000279776, 3.000000000000000444 ) ) ;
#1056 = AXIS2_PLACEMENT_3D ( 'NONE', #376, #968, #291 ) ;
#1057 = LINE ( 'NONE', #971, #750 ) ;
#1058 = LENGTH_MEASURE_WITH_UNIT ( LENGTH_MEASURE( 0.02539999999999999897 ), #276 );
#1059 = DIRECTION ( 'NONE',  ( -0.0000000000000000000, -0.0000000000000000000, 1.000000000000000000 ) ) ;
#1060 = DIRECTION ( 'NONE',  ( 0.0000000000000000000, 0.0000000000000000000, -1.000000000000000000 ) ) ;
#1061 = DIRECTION ( 'NONE',  ( -1.000000000000000000, 0.0000000000000000000, 0.0000000000000000000 ) ) ;
#1062 = ADVANCED_FACE ( 'NONE', ( #412 ), #117, .F. ) ;
#1063 = ADVANCED_FACE ( 'NONE', ( #897 ), #693, .F. ) ;
#1064 = CARTESIAN_POINT ( 'NONE',  ( 0.3750000000000007772, 0.6495190528383285589, 2.899999999999999467 ) ) ;
#1065 = CIRCLE ( 'NONE', #781, 0.2999999999999999889 ) ;
#1066 = DIRECTION ( 'NONE',  ( -0.0000000000000000000, -0.0000000000000000000, -1.000000000000000000 ) ) ;
#1067 = CYLINDRICAL_SURFACE ( 'NONE', #1203, 0.04999999999999994726 ) ;
#1068 = CARTESIAN_POINT ( 'NONE',  ( 0.3750000000000007772, 0.6495190528383285589, 2.899999999999999467 ) ) ;
#1069 = EDGE_CURVE ( 'NONE', #116, #340, #1208, .T. ) ;
#1070 = EDGE_CURVE ( 'NONE', #241, #196, #1166, .T. ) ;
#1071 = CARTESIAN_POINT ( 'NONE',  ( 0.8000000000000556666, 3.188869783326419881E-14, 3.000000000000000444 ) ) ;
#1072 = DIRECTION ( 'NONE',  ( -0.0000000000000000000, 0.0000000000000000000, 1.000000000000000000 ) ) ;
#1073 = DIRECTION ( 'NONE',  ( -1.000000000000000000, 0.0000000000000000000, 0.0000000000000000000 ) ) ;
#1074 = FACE_OUTER_BOUND ( 'NONE', #107, .T. ) ;
#1075 = VERTEX_POINT ( 'NONE', #210 ) ;
#1076 = CARTESIAN_POINT ( 'NONE',  ( 1.500000000000000222, 1.836970198721029441E-16, 0.0000000000000000000 ) ) ;
#1077 = VECTOR ( 'NONE', #871, 39.37007874015748143 ) ;
#1078 = AXIS2_PLACEMENT_3D ( 'NONE', #1182, #391, #891 ) ;
#1079 = CARTESIAN_POINT ( 'NONE',  ( 0.6995190528383538053, 0.3750000000000277001, 3.000000000000000444 ) ) ;
#1080 = EDGE_CURVE ( 'NONE', #614, #54, #808, .T. ) ;
#1081 = AXIS2_PLACEMENT_3D ( 'NONE', #22, #15, #309 ) ;
#1082 = ORIENTED_EDGE ( 'NONE', *, *, #351, .T. ) ;
#1083 = ORIENTED_EDGE ( 'NONE', *, *, #942, .T. ) ;
#1084 = DIRECTION ( 'NONE',  ( 1.000000000000000000, 0.0000000000000000000, 0.0000000000000000000 ) ) ;
#1085 = FACE_OUTER_BOUND ( 'NONE', #1209, .T. ) ;
#1086 = AXIS2_PLACEMENT_3D ( 'NONE', #386, #748, #1252 ) ;
#1087 = EDGE_LOOP ( 'NONE', ( #1115, #524 ) ) ;
#1088 = ORIENTED_EDGE ( 'NONE', *, *, #379, .F. ) ;
#1089 = CARTESIAN_POINT ( 'NONE',  ( 6.376514919853691401E-14, -0.7500000000000001110, 3.000000000000000444 ) ) ;
#1090 = DIRECTION ( 'NONE',  ( 0.0000000000000000000, 0.0000000000000000000, -1.000000000000000000 ) ) ;
#1091 = VERTEX_POINT ( 'NONE', #1007 ) ;
#1092 = CARTESIAN_POINT ( 'NONE',  ( -0.05000000000000225792, -0.7500000000000001110, 2.899999999999999467 ) ) ;
#1093 = ORIENTED_EDGE ( 'NONE', *, *, #830, .T. ) ;
#1094 = DIRECTION ( 'NONE',  ( -0.0000000000000000000, 0.0000000000000000000, 1.000000000000000000 ) ) ;
#1095 = EDGE_CURVE ( 'NONE', #715, #1041, #199, .T. ) ;
#1096 = ADVANCED_FACE ( 'NONE', ( #6 ), #125, .F. ) ;
#1097 = FACE_BOUND ( 'NONE', #893, .T. ) ;
#1098 = EDGE_LOOP ( 'NONE', ( #1088, #825 ) ) ;
#1099 = CYLINDRICAL_SURFACE ( 'NONE', #854, 0.2000000000000000111 ) ;
#1100 = CIRCLE ( 'NONE', #545, 0.05000000000001845329 ) ;
#1101 = ORIENTED_EDGE ( 'NONE', *, *, #1268, .F. ) ;
#1102 = DIRECTION ( 'NONE',  ( 1.000000000000000000, 0.0000000000000000000, 0.0000000000000000000 ) ) ;
#1103 = ORIENTED_EDGE ( 'NONE', *, *, #1095, .T. ) ;
#1104 = EDGE_CURVE ( 'NONE', #130, #150, #593, .T. ) ;
#1105 = LINE ( 'NONE', #225, #487 ) ;
#1106 = CYLINDRICAL_SURFACE ( 'NONE', #558, 0.2000000000000000111 ) ;
#1107 = ORIENTED_EDGE ( 'NONE', *, *, #1199, .T. ) ;
#1108 = DIRECTION ( 'NONE',  ( -0.0000000000000000000, 0.0000000000000000000, 1.000000000000000000 ) ) ;
#1109 = CIRCLE ( 'NONE', #433, 0.05000000000004740930 ) ;
#1110 = EDGE_LOOP ( 'NONE', ( #34, #124, #1184, #625 ) ) ;
#1111 = FACE_BOUND ( 'NONE', #720, .T. ) ;
#1112 = VERTEX_POINT ( 'NONE', #687 ) ;
#1113 = DIRECTION ( 'NONE',  ( 1.000000000000000000, 0.0000000000000000000, 0.0000000000000000000 ) ) ;
#1114 = DIRECTION ( 'NONE',  ( -1.000000000000000000, 0.0000000000000000000, 0.0000000000000000000 ) ) ;
#1115 = ORIENTED_EDGE ( 'NONE', *, *, #767, .T. ) ;
#1116 = CARTESIAN_POINT ( 'NONE',  ( 0.6495190528383448791, 0.3750000000000277001, 3.000000000000000444 ) ) ;
#1117 = ORIENTED_EDGE ( 'NONE', *, *, #1144, .T. ) ;
#1118 = ORIENTED_EDGE ( 'NONE', *, *, #617, .T. ) ;
#1119 = DIRECTION ( 'NONE',  ( 1.000000000000000000, 0.0000000000000000000, 0.0000000000000000000 ) ) ;
#1120 = LINE ( 'NONE', #1025, #1265 ) ;
#1121 = ORIENTED_EDGE ( 'NONE', *, *, #742, .F. ) ;
#1122 = LINE ( 'NONE', #811, #467 ) ;
#1123 = ORIENTED_EDGE ( 'NONE', *, *, #1035, .T. ) ;
#1124 = FACE_BOUND ( 'NONE', #1235, .T. ) ;
#1125 = ORIENTED_EDGE ( 'NONE', *, *, #1258, .F. ) ;
#1126 = VECTOR ( 'NONE', #1066, 39.37007874015748143 ) ;
#1127 = AXIS2_PLACEMENT_3D ( 'NONE', #538, #714, #1114 ) ;
#1128 = EDGE_LOOP ( 'NONE', ( #1117, #579 ) ) ;
#1129 = CARTESIAN_POINT ( 'NONE',  ( -0.6495190528382811523, -0.3750000000000279776, 2.899999999999999467 ) ) ;
#1130 = EDGE_LOOP ( 'NONE', ( #904, #1039, #549, #502 ) ) ;
#1131 = DIRECTION ( 'NONE',  ( -0.0000000000000000000, 0.0000000000000000000, 1.000000000000000000 ) ) ;
#1132 = ORIENTED_EDGE ( 'NONE', *, *, #1162, .T. ) ;
#1133 = CARTESIAN_POINT ( 'NONE',  ( -0.3749999999999961142, 0.6495190528383127937, 3.000000000000000444 ) ) ;
#1134 = AXIS2_PLACEMENT_3D ( 'NONE', #333, #1221, #703 ) ;
#1135 = EDGE_LOOP ( 'NONE', ( #776, #708, #1123, #1197 ) ) ;
#1136 = DIRECTION ( 'NONE',  ( 1.000000000000000000, 0.0000000000000000000, 0.0000000000000000000 ) ) ;
#1137 = DIRECTION ( 'NONE',  ( -1.000000000000000000, 0.0000000000000000000, 0.0000000000000000000 ) ) ;
#1138 = DIRECTION ( 'NONE',  ( -0.0000000000000000000, -0.0000000000000000000, -1.000000000000000000 ) ) ;
#1139 = EDGE_LOOP ( 'NONE', ( #982, #627, #951, #308 ) ) ;
#1140 = CARTESIAN_POINT ( 'NONE',  ( -0.3749999999999961142, 0.6495190528383127937, 3.000000000000000444 ) ) ;
#1141 = CARTESIAN_POINT ( 'NONE',  ( -0.6995190528383417039, -0.3750000000000279776, 2.899999999999999467 ) ) ;
#1142 = AXIS2_PLACEMENT_3D ( 'NONE', #441, #229, #129 ) ;
#1143 = EDGE_CURVE ( 'NONE', #1201, #296, #998, .T. ) ;
#1144 = EDGE_CURVE ( 'NONE', #274, #202, #450, .T. ) ;
#1145 = LINE ( 'NONE', #764, #679 ) ;
#1146 = VERTEX_POINT ( 'NONE', #243 ) ;
#1147 = AXIS2_PLACEMENT_3D ( 'NONE', #181, #690, #290 ) ;
#1148 = AXIS2_PLACEMENT_3D ( 'NONE', #457, #374, #655 ) ;
#1149 = DIRECTION ( 'NONE',  ( -1.000000000000000000, 0.0000000000000000000, 0.0000000000000000000 ) ) ;
#1150 = CARTESIAN_POINT ( 'NONE',  ( -0.6495190528383133488, 0.3749999999999719669, 3.000000000000000444 ) ) ;
#1151 = AXIS2_PLACEMENT_3D ( 'NONE', #707, #824, #1239 ) ;
#1152 = DIRECTION ( 'NONE',  ( 0.0000000000000000000, 0.0000000000000000000, -1.000000000000000000 ) ) ;
#1153 = VERTEX_POINT ( 'NONE', #636 ) ;
#1154 = DIRECTION ( 'NONE',  ( -0.0000000000000000000, 0.0000000000000000000, 1.000000000000000000 ) ) ;
#1155 = AXIS2_PLACEMENT_3D ( 'NONE', #505, #31, #914 ) ;
#1156 = CARTESIAN_POINT ( 'NONE',  ( 0.0000000000000000000, 0.0000000000000000000, 2.899999999999999467 ) ) ;
#1157 = EDGE_CURVE ( 'NONE', #49, #5, #113, .T. ) ;
#1158 = DIRECTION ( 'NONE',  ( -0.0000000000000000000, -0.0000000000000000000, -1.000000000000000000 ) ) ;
#1159 = CARTESIAN_POINT ( 'NONE',  ( -0.2000000000000000111, 0.0000000000000000000, 3.000000000000000444 ) ) ;
#1160 = DIRECTION ( 'NONE',  ( -0.0000000000000000000, -0.0000000000000000000, 1.000000000000000000 ) ) ;
#1161 = EDGE_CURVE ( 'NONE', #150, #715, #540, .T. ) ;
#1162 = EDGE_CURVE ( 'NONE', #1225, #108, #949, .T. ) ;
#1163 = LINE ( 'NONE', #1219, #252 ) ;
#1164 = CARTESIAN_POINT ( 'NONE',  ( 0.5995190528383358419, -0.3749999999999722999, 2.899999999999999467 ) ) ;
#1165 = AXIS2_PLACEMENT_3D ( 'NONE', #1226, #930, #1119 ) ;
#1166 = CIRCLE ( 'NONE', #1081, 0.05000000000001845329 ) ;
#1167 = CARTESIAN_POINT ( 'NONE',  ( 0.4250000000001165068, -0.6495190528383129047, 3.000000000000000444 ) ) ;
#1168 = LINE ( 'NONE', #658, #519 ) ;
#1169 = DIRECTION ( 'NONE',  ( 1.000000000000000000, 0.0000000000000000000, 0.0000000000000000000 ) ) ;
#1170 = CIRCLE ( 'NONE', #1256, 0.2000000000000000111 ) ;
#1171 = CARTESIAN_POINT ( 'NONE',  ( 0.0000000000000000000, 0.0000000000000000000, 3.000000000000000444 ) ) ;
#1172 = FACE_OUTER_BOUND ( 'NONE', #896, .T. ) ;
#1173 = ORIENTED_EDGE ( 'NONE', *, *, #156, .F. ) ;
#1174 = ORIENTED_EDGE ( 'NONE', *, *, #165, .F. ) ;
#1175 = CARTESIAN_POINT ( 'NONE',  ( -0.6999999999999207967, -3.196829987520877287E-14, 3.000000000000000444 ) ) ;
#1176 = ADVANCED_FACE ( 'NONE', ( #1111, #250 ), #430, .F. ) ;
#1177 = DIRECTION ( 'NONE',  ( 1.000000000000000000, 0.0000000000000000000, 0.0000000000000000000 ) ) ;
#1178 = ORIENTED_EDGE ( 'NONE', *, *, #711, .F. ) ;
#1179 = ORIENTED_EDGE ( 'NONE', *, *, #876, .T. ) ;
#1180 = CARTESIAN_POINT ( 'NONE',  ( 0.0000000000000000000, 0.0000000000000000000, 0.0000000000000000000 ) ) ;
#1181 = AXIS2_PLACEMENT_3D ( 'NONE', #880, #1271, #1177 ) ;
#1182 = CARTESIAN_POINT ( 'NONE',  ( 0.3750000000000597300, -0.6495190528383129047, 3.000000000000000444 ) ) ;
#1183 = AXIS2_PLACEMENT_3D ( 'NONE', #784, #884, #778 ) ;
#1184 = ORIENTED_EDGE ( 'NONE', *, *, #351, .F. ) ;
#1185 = ORIENTED_EDGE ( 'NONE', *, *, #734, .F. ) ;
#1186 = DIRECTION ( 'NONE',  ( -1.000000000000000000, 0.0000000000000000000, 0.0000000000000000000 ) ) ;
#1187 = FACE_BOUND ( 'NONE', #632, .T. ) ;
#1188 = EDGE_LOOP ( 'NONE', ( #992, #928 ) ) ;
#1189 = CIRCLE ( 'NONE', #46, 0.04999999999999994726 ) ;
#1190 = EDGE_CURVE ( 'NONE', #454, #526, #783, .T. ) ;
#1191 = ADVANCED_FACE ( 'NONE', ( #258 ), #610, .F. ) ;
#1192 = EDGE_LOOP ( 'NONE', ( #1121, #249 ) ) ;
#1193 = CARTESIAN_POINT ( 'NONE',  ( 0.7500000000000318634, 3.188257459926845700E-14, 2.899999999999999467 ) ) ;
#1194 = CARTESIAN_POINT ( 'NONE',  ( -0.5995190528382204898, -0.3750000000000279776, 3.000000000000000444 ) ) ;
#1195 = ORIENTED_EDGE ( 'NONE', *, *, #870, .F. ) ;
#1196 = DIRECTION ( 'NONE',  ( -0.0000000000000000000, -0.0000000000000000000, -1.000000000000000000 ) ) ;
#1197 = ORIENTED_EDGE ( 'NONE', *, *, #1053, .F. ) ;
#1198 = EDGE_CURVE ( 'NONE', #54, #614, #765, .T. ) ;
#1199 = EDGE_CURVE ( 'NONE', #929, #997, #576, .T. ) ;
#1200 = DIRECTION ( 'NONE',  ( -1.000000000000000000, 0.0000000000000000000, 0.0000000000000000000 ) ) ;
#1201 = VERTEX_POINT ( 'NONE', #55 ) ;
#1202 = CARTESIAN_POINT ( 'NONE',  ( -0.05000000000000002359, 0.7500000000000001110, 3.000000000000000444 ) ) ;
#1203 = AXIS2_PLACEMENT_3D ( 'NONE', #589, #1158, #772 ) ;
#1204 = CIRCLE ( 'NONE', #399, 0.05000000000003224782 ) ;
#1205 = FACE_OUTER_BOUND ( 'NONE', #103, .T. ) ;
#1206 = VERTEX_POINT ( 'NONE', #628 ) ;
#1207 = FACE_BOUND ( 'NONE', #512, .T. ) ;
#1208 = CIRCLE ( 'NONE', #662, 0.2000000000000000111 ) ;
#1209 = EDGE_LOOP ( 'NONE', ( #787, #221 ) ) ;
#1210 = DIRECTION ( 'NONE',  ( -0.0000000000000000000, -0.0000000000000000000, 1.000000000000000000 ) ) ;
#1211 = EDGE_LOOP ( 'NONE', ( #2, #403, #1014, #737 ) ) ;
#1212 = CARTESIAN_POINT ( 'NONE',  ( -0.7499999999999682476, -3.197442310920451468E-14, 3.000000000000000444 ) ) ;
#1213 = CARTESIAN_POINT ( 'NONE',  ( -0.3749999999999961142, 0.6495190528383127937, 3.000000000000000444 ) ) ;
#1214 = ORIENTED_EDGE ( 'NONE', *, *, #672, .F. ) ;
#1215 = FACE_OUTER_BOUND ( 'NONE', #1135, .T. ) ;
#1216 = AXIS2_PLACEMENT_3D ( 'NONE', #324, #1010, #1000 ) ;
#1217 = ORIENTED_EDGE ( 'NONE', *, *, #410, .T. ) ;
#1218 = CARTESIAN_POINT ( 'NONE',  ( 0.6495190528383448791, 0.3750000000000277001, 3.000000000000000444 ) ) ;
#1219 = CARTESIAN_POINT ( 'NONE',  ( -0.3249999999999776956, 0.6495190528383127937, 3.000000000000000444 ) ) ;
#1220 = EDGE_CURVE ( 'NONE', #882, #49, #136, .T. ) ;
#1221 = DIRECTION ( 'NONE',  ( -0.0000000000000000000, 0.0000000000000000000, 1.000000000000000000 ) ) ;
#1222 = ORIENTED_EDGE ( 'NONE', *, *, #40, .T. ) ;
#1223 = DIRECTION ( 'NONE',  ( 0.0000000000000000000, 0.0000000000000000000, -1.000000000000000000 ) ) ;
#1224 = ORIENTED_EDGE ( 'NONE', *, *, #909, .T. ) ;
#1225 = VERTEX_POINT ( 'NONE', #337 ) ;
#1226 = CARTESIAN_POINT ( 'NONE',  ( 0.0000000000000000000, 0.0000000000000000000, 0.0000000000000000000 ) ) ;
#1227 = EDGE_LOOP ( 'NONE', ( #344, #1195 ) ) ;
#1228 = CARTESIAN_POINT ( 'NONE',  ( 0.0000000000000000000, 0.7500000000000001110, 3.000000000000000444 ) ) ;
#1229 = ORIENTED_EDGE ( 'NONE', *, *, #188, .F. ) ;
#1230 = CARTESIAN_POINT ( 'NONE',  ( 0.8000000000000556666, 3.188869783326419881E-14, 2.899999999999999467 ) ) ;
#1231 = AXIS2_PLACEMENT_3D ( 'NONE', #266, #280, #84 ) ;
#1232 = ORIENTED_EDGE ( 'NONE', *, *, #942, .F. ) ;
#1233 = CARTESIAN_POINT ( 'NONE',  ( -0.4250000000000081490, -0.6495190528383452122, 3.000000000000000444 ) ) ;
#1234 = VECTOR ( 'NONE', #842, 39.37007874015748143 ) ;
#1235 = EDGE_LOOP ( 'NONE', ( #307, #1179 ) ) ;
#1236 = CYLINDRICAL_SURFACE ( 'NONE', #849, 0.05000000000004740930 ) ;
#1237 = VERTEX_POINT ( 'NONE', #518 ) ;
#1238 = CIRCLE ( 'NONE', #666, 0.05000000000004740930 ) ;
#1239 = DIRECTION ( 'NONE',  ( 1.000000000000000000, 0.0000000000000000000, 0.0000000000000000000 ) ) ;
#1240 = EDGE_CURVE ( 'NONE', #146, #816, #921, .T. ) ;
#1241 = VECTOR ( 'NONE', #315, 39.37007874015748143 ) ;
#1242 = AXIS2_PLACEMENT_3D ( 'NONE', #1116, #328, #525 ) ;
#1243 = CARTESIAN_POINT ( 'NONE',  ( -0.6495190528383133488, 0.3749999999999719669, 2.899999999999999467 ) ) ;
#1244 = ORIENTED_EDGE ( 'NONE', *, *, #656, .F. ) ;
#1245 = LINE ( 'NONE', #741, #634 ) ;
#1246 = DIRECTION ( 'NONE',  ( -0.0000000000000000000, -0.0000000000000000000, -1.000000000000000000 ) ) ;
#1247 = CIRCLE ( 'NONE', #421, 0.05000000000006059320 ) ;
#1248 = CYLINDRICAL_SURFACE ( 'NONE', #423, 0.05000000000003224782 ) ;
#1249 = CIRCLE ( 'NONE', #346, 0.05000000000000002359 ) ;
#1250 = ORIENTED_EDGE ( 'NONE', *, *, #1070, .F. ) ;
#1251 = AXIS2_PLACEMENT_3D ( 'NONE', #683, #305, #16 ) ;
#1252 = DIRECTION ( 'NONE',  ( -1.000000000000000000, 0.0000000000000000000, 0.0000000000000000000 ) ) ;
#1253 = EDGE_CURVE ( 'NONE', #454, #574, #358, .T. ) ;
#1254 = FACE_OUTER_BOUND ( 'NONE', #607, .T. ) ;
#1255 = CARTESIAN_POINT ( 'NONE',  ( -0.6995190528383455897, 0.3749999999999719669, 3.000000000000000444 ) ) ;
#1256 = AXIS2_PLACEMENT_3D ( 'NONE', #414, #216, #432 ) ;
#1257 = CARTESIAN_POINT ( 'NONE',  ( 0.6995190528383538053, 0.3750000000000277001, 3.000000000000000444 ) ) ;
#1258 = EDGE_CURVE ( 'NONE', #197, #142, #1100, .T. ) ;
#1259 = ADVANCED_FACE ( 'NONE', ( #815 ), #162, .F. ) ;
#1260 = DIRECTION ( 'NONE',  ( -1.000000000000000000, 0.0000000000000000000, 0.0000000000000000000 ) ) ;
#1261 = CARTESIAN_POINT ( 'NONE',  ( -1.399999999999999911, 0.0000000000000000000, 2.899999999999999467 ) ) ;
#1262 = DIRECTION ( 'NONE',  ( -0.0000000000000000000, 0.0000000000000000000, 1.000000000000000000 ) ) ;
#1263 = DIRECTION ( 'NONE',  ( 0.0000000000000000000, 0.0000000000000000000, -1.000000000000000000 ) ) ;
#1264 = CARTESIAN_POINT ( 'NONE',  ( -0.3749999999999403810, -0.6495190528383452122, 3.000000000000000444 ) ) ;
#1265 = VECTOR ( 'NONE', #48, 39.37007874015748143 ) ;
#1266 = FACE_BOUND ( 'NONE', #214, .T. ) ;
#1267 = DIRECTION ( 'NONE',  ( -1.000000000000000000, 0.0000000000000000000, 0.0000000000000000000 ) ) ;
#1268 = EDGE_CURVE ( 'NONE', #789, #1206, #1120, .T. ) ;
#1269 = DIRECTION ( 'NONE',  ( 1.000000000000000000, 0.0000000000000000000, 0.0000000000000000000 ) ) ;
#1270 = CIRCLE ( 'NONE', #375, 0.05000000000005676987 ) ;
#1271 = DIRECTION ( 'NONE',  ( -0.0000000000000000000, 0.0000000000000000000, 1.000000000000000000 ) ) ;
ENDSEC;
END-ISO-10303-21;
